<ttFont>
    <TTGlyph name=".notdef" xMin="50" yMin="0" xMax="464" yMax="500">
      <contour>
        <pt x="50" y="0" on="1"/>
        <pt x="50" y="500" on="1"/>
        <pt x="464" y="500" on="1"/>
        <pt x="464" y="0" on="1"/>
      </contour>
      <contour>
        <pt x="112" y="438" on="1"/>
        <pt x="112" y="62" on="1"/>
        <pt x="402" y="62" on="1"/>
        <pt x="402" y="438" on="1"/>
      </contour>
    </TTGlyph>
    <TTGlyph name="A" xMin="40" yMin="-13" xMax="667" yMax="713">
      <contour>
        <pt x="46" y="616" on="1"/>
        <pt x="40" y="626" on="0"/>
        <pt x="40" y="642" on="1"/>
        <pt x="40" y="655" on="0"/>
        <pt x="44" y="666" on="1"/>
        <pt x="207" y="713" on="0"/>
        <pt x="425" y="713" on="1"/>
        <pt x="517" y="713" on="0"/>
        <pt x="589" y="656" on="0"/>
        <pt x="589" y="578" on="1"/>
        <pt x="589" y="95" on="1"/>
        <pt x="589" y="40" on="0"/>
        <pt x="600" y="40" on="1"/>
        <pt x="663" y="42" on="1"/>
        <pt x="667" y="34" on="0"/>
        <pt x="667" y="23" on="1"/>
        <pt x="667" y="15" on="0"/>
        <pt x="664" y="6" on="1"/>
        <pt x="597" y="-13" on="0"/>
        <pt x="536" y="-13" on="1"/>
        <pt x="490" y="-13" on="0"/>
        <pt x="468" y="1" on="0"/>
        <pt x="469" y="30" on="1"/>
        <pt x="469" y="393" on="1"/>
        <pt x="346" y="374" on="0"/>
        <pt x="201" y="371" on="1"/>
        <pt x="201" y="95" on="1"/>
        <pt x="201" y="40" on="0"/>
        <pt x="212" y="40" on="1"/>
        <pt x="275" y="42" on="1"/>
        <pt x="279" y="34" on="0"/>
        <pt x="279" y="23" on="1"/>
        <pt x="279" y="15" on="0"/>
        <pt x="276" y="6" on="1"/>
        <pt x="209" y="-13" on="0"/>
        <pt x="148" y="-13" on="1"/>
        <pt x="102" y="-13" on="0"/>
        <pt x="81" y="1" on="0"/>
        <pt x="81" y="30" on="1"/>
        <pt x="81" y="562" on="1"/>
        <pt x="81" y="577" on="0"/>
        <pt x="98" y="583" on="1"/>
        <pt x="134" y="595" on="0"/>
        <pt x="183" y="595" on="1"/>
        <pt x="201" y="595" on="0"/>
        <pt x="201" y="577" on="1"/>
        <pt x="201" y="423" on="1"/>
        <pt x="291" y="425" on="0"/>
        <pt x="469" y="445" on="1"/>
        <pt x="469" y="564" on="1"/>
        <pt x="469" y="620" on="0"/>
        <pt x="429" y="660" on="0"/>
        <pt x="373" y="660" on="1"/>
        <pt x="282" y="660" on="0"/>
        <pt x="84" y="629" on="0"/>
      </contour>
    </TTGlyph>
    <TTGlyph name="AE" xMin="40" yMin="-14" xMax="932" yMax="714">
      <contour>
        <pt x="536" y="696" on="1"/>
        <pt x="631" y="714" on="0"/>
        <pt x="769" y="714" on="1"/>
        <pt x="849" y="714" on="0"/>
        <pt x="894" y="708" on="1"/>
        <pt x="900" y="696" on="0"/>
        <pt x="900" y="682" on="1"/>
        <pt x="900" y="671" on="0"/>
        <pt x="895" y="658" on="1"/>
        <pt x="865" y="662" on="0"/>
        <pt x="812" y="662" on="1"/>
        <pt x="687" y="662" on="0"/>
        <pt x="588" y="649" on="1"/>
        <pt x="589" y="644" on="0"/>
        <pt x="589" y="630" on="1"/>
        <pt x="589" y="431" on="1"/>
        <pt x="703" y="446" on="0"/>
        <pt x="846" y="448" on="1"/>
        <pt x="852" y="436" on="0"/>
        <pt x="852" y="419" on="1"/>
        <pt x="852" y="409" on="0"/>
        <pt x="847" y="396" on="1"/>
        <pt x="758" y="396" on="0"/>
        <pt x="589" y="378" on="1"/>
        <pt x="589" y="105" on="1"/>
        <pt x="589" y="65" on="0"/>
        <pt x="621" y="40" on="0"/>
        <pt x="667" y="40" on="1"/>
        <pt x="721" y="40" on="0"/>
        <pt x="906" y="59" on="0"/>
        <pt x="928" y="65" on="1"/>
        <pt x="932" y="51" on="0"/>
        <pt x="932" y="39" on="1"/>
        <pt x="932" y="29" on="0"/>
        <pt x="928" y="15" on="1"/>
        <pt x="839" y="-14" on="0"/>
        <pt x="621" y="-13" on="1"/>
        <pt x="577" y="-13" on="1"/>
        <pt x="521" y="-13" on="0"/>
        <pt x="469" y="23" on="0"/>
        <pt x="469" y="63" on="1"/>
        <pt x="469" y="393" on="1"/>
        <pt x="346" y="374" on="0"/>
        <pt x="201" y="371" on="1"/>
        <pt x="201" y="95" on="1"/>
        <pt x="201" y="40" on="0"/>
        <pt x="212" y="40" on="1"/>
        <pt x="275" y="42" on="1"/>
        <pt x="279" y="34" on="0"/>
        <pt x="279" y="23" on="1"/>
        <pt x="279" y="15" on="0"/>
        <pt x="276" y="6" on="1"/>
        <pt x="209" y="-13" on="0"/>
        <pt x="148" y="-13" on="1"/>
        <pt x="102" y="-13" on="0"/>
        <pt x="80" y="1" on="0"/>
        <pt x="81" y="30" on="1"/>
        <pt x="81" y="562" on="1"/>
        <pt x="81" y="577" on="0"/>
        <pt x="98" y="583" on="1"/>
        <pt x="134" y="595" on="0"/>
        <pt x="183" y="595" on="1"/>
        <pt x="201" y="595" on="0"/>
        <pt x="201" y="577" on="1"/>
        <pt x="201" y="423" on="1"/>
        <pt x="291" y="425" on="0"/>
        <pt x="469" y="445" on="1"/>
        <pt x="469" y="564" on="1"/>
        <pt x="469" y="620" on="0"/>
        <pt x="429" y="660" on="0"/>
        <pt x="373" y="660" on="1"/>
        <pt x="282" y="660" on="0"/>
        <pt x="84" y="629" on="0"/>
        <pt x="46" y="616" on="1"/>
        <pt x="40" y="626" on="0"/>
        <pt x="40" y="642" on="1"/>
        <pt x="40" y="655" on="0"/>
        <pt x="44" y="666" on="1"/>
        <pt x="207" y="713" on="0"/>
        <pt x="425" y="713" on="1"/>
        <pt x="502" y="713" on="0"/>
      </contour>
    </TTGlyph>
    <TTGlyph name="Aacute" xMin="40" yMin="-13" xMax="667" yMax="926">
      <component glyphName="A" x="0" y="0" flags="0x204"/>
      <component glyphName="acute.case" x="245" y="0" flags="0x4"/>
    </TTGlyph>
    <TTGlyph name="Acircumflex" xMin="40" yMin="-13" xMax="667" yMax="924">
      <component glyphName="A" x="0" y="0" flags="0x204"/>
      <component glyphName="circumflex.case" x="156" y="0" flags="0x4"/>
    </TTGlyph>
    <TTGlyph name="Adieresis" xMin="40" yMin="-13" xMax="667" yMax="884">
      <component glyphName="A" x="0" y="0" flags="0x204"/>
      <component glyphName="dieresis.case" x="158" y="0" flags="0x4"/>
    </TTGlyph>
    <TTGlyph name="Agrave" xMin="40" yMin="-13" xMax="667" yMax="925">
      <component glyphName="A" x="0" y="0" flags="0x204"/>
      <component glyphName="grave.case" x="185" y="0" flags="0x4"/>
    </TTGlyph>
    <TTGlyph name="Aring" xMin="40" yMin="-13" xMax="667" yMax="937">
      <component glyphName="A" x="0" y="0" flags="0x204"/>
      <component glyphName="ring" x="188" y="198" flags="0x4"/>
    </TTGlyph>
    <TTGlyph name="Atilde" xMin="40" yMin="-13" xMax="667" yMax="894">
      <component glyphName="A" x="0" y="0" flags="0x204"/>
      <component glyphName="tilde.case" x="134" y="0" flags="0x4"/>
    </TTGlyph>
    <TTGlyph name="B" xMin="35" yMin="-13" xMax="593" yMax="713">
      <contour>
        <pt x="41" y="616" on="1"/>
        <pt x="35" y="626" on="0"/>
        <pt x="35" y="642" on="1"/>
        <pt x="35" y="655" on="0"/>
        <pt x="39" y="666" on="1"/>
        <pt x="205" y="713" on="0"/>
        <pt x="408" y="713" on="1"/>
        <pt x="500" y="713" on="0"/>
        <pt x="572" y="656" on="0"/>
        <pt x="572" y="578" on="1"/>
        <pt x="572" y="495" on="1"/>
        <pt x="572" y="445" on="0"/>
        <pt x="478" y="422" on="1"/>
        <pt x="478" y="420" on="1"/>
        <pt x="548" y="411" on="0"/>
        <pt x="593" y="350" on="0"/>
        <pt x="593" y="292" on="1"/>
        <pt x="593" y="125" on="1"/>
        <pt x="593" y="93" on="0"/>
        <pt x="567" y="46" on="0"/>
        <pt x="511" y="17" on="0"/>
        <pt x="448" y="-2" on="0"/>
        <pt x="345" y="-10" on="0"/>
        <pt x="257" y="-13" on="0"/>
        <pt x="189" y="-13" on="1"/>
        <pt x="133" y="-13" on="0"/>
        <pt x="81" y="23" on="0"/>
        <pt x="81" y="63" on="1"/>
        <pt x="81" y="562" on="1"/>
        <pt x="81" y="577" on="0"/>
        <pt x="98" y="583" on="1"/>
        <pt x="134" y="595" on="0"/>
        <pt x="183" y="595" on="1"/>
        <pt x="201" y="595" on="0"/>
        <pt x="201" y="577" on="1"/>
        <pt x="201" y="421" on="1"/>
        <pt x="311" y="430" on="1"/>
        <pt x="393" y="437" on="0"/>
        <pt x="452" y="474" on="0"/>
        <pt x="452" y="520" on="1"/>
        <pt x="452" y="564" on="1"/>
        <pt x="452" y="620" on="0"/>
        <pt x="410" y="660" on="0"/>
        <pt x="351" y="660" on="1"/>
        <pt x="260" y="660" on="0"/>
        <pt x="82" y="630" on="0"/>
      </contour>
      <contour>
        <pt x="279" y="40" on="1"/>
        <pt x="394" y="40" on="0"/>
        <pt x="473" y="76" on="0"/>
        <pt x="473" y="130" on="1"/>
        <pt x="473" y="278" on="1"/>
        <pt x="473" y="335" on="0"/>
        <pt x="447" y="387" on="0"/>
        <pt x="403" y="387" on="1"/>
        <pt x="395" y="387" on="0"/>
        <pt x="201" y="371" on="1"/>
        <pt x="201" y="105" on="1"/>
        <pt x="201" y="65" on="0"/>
        <pt x="233" y="40" on="0"/>
      </contour>
    </TTGlyph>
    <TTGlyph name="C" xMin="70" yMin="-16" xMax="554" yMax="714">
      <contour>
        <pt x="542" y="657" on="1"/>
        <pt x="507" y="664" on="0"/>
        <pt x="428" y="664" on="1"/>
        <pt x="301" y="662" on="0"/>
        <pt x="240" y="645" on="1"/>
        <pt x="189" y="632" on="0"/>
        <pt x="190" y="571" on="1"/>
        <pt x="190" y="136" on="1"/>
        <pt x="190" y="81" on="0"/>
        <pt x="230" y="44" on="0"/>
        <pt x="286" y="44" on="1"/>
        <pt x="360" y="44" on="0"/>
        <pt x="519" y="66" on="0"/>
        <pt x="548" y="74" on="1"/>
        <pt x="554" y="54" on="0"/>
        <pt x="554" y="46" on="1"/>
        <pt x="554" y="36" on="0"/>
        <pt x="549" y="24" on="1"/>
        <pt x="419" y="-16" on="0"/>
        <pt x="234" y="-15" on="1"/>
        <pt x="142" y="-15" on="0"/>
        <pt x="70" y="43" on="0"/>
        <pt x="70" y="122" on="1"/>
        <pt x="70" y="576" on="1"/>
        <pt x="70" y="609" on="0"/>
        <pt x="104" y="658" on="0"/>
        <pt x="162" y="687" on="0"/>
        <pt x="226" y="704" on="0"/>
        <pt x="312" y="712" on="0"/>
        <pt x="378" y="714" on="0"/>
        <pt x="422" y="714" on="1"/>
        <pt x="475" y="714" on="0"/>
        <pt x="540" y="707" on="1"/>
        <pt x="546" y="695" on="0"/>
        <pt x="546" y="680" on="1"/>
        <pt x="546" y="669" on="0"/>
      </contour>
    </TTGlyph>
    <TTGlyph name="Ccedilla" xMin="70" yMin="-227" xMax="554" yMax="714">
      <contour>
        <pt x="338" y="-41" on="1"/>
        <pt x="380" y="-44" on="0"/>
        <pt x="426" y="-82" on="0"/>
        <pt x="426" y="-110" on="1"/>
        <pt x="426" y="-149" on="0"/>
        <pt x="348" y="-225" on="0"/>
        <pt x="297" y="-227" on="1"/>
        <pt x="269" y="-206" on="0"/>
        <pt x="269" y="-181" on="1"/>
        <pt x="269" y="-172" on="0"/>
        <pt x="283" y="-171" on="1"/>
        <pt x="317" y="-167" on="0"/>
        <pt x="355" y="-135" on="0"/>
        <pt x="355" y="-118" on="1"/>
        <pt x="355" y="-82" on="0"/>
        <pt x="300" y="-81" on="1"/>
        <pt x="284" y="-81" on="0"/>
        <pt x="287" y="-66" on="1"/>
        <pt x="301" y="-14" on="1"/>
        <pt x="268" y="-15" on="0"/>
        <pt x="234" y="-15" on="1"/>
        <pt x="142" y="-15" on="0"/>
        <pt x="70" y="43" on="0"/>
        <pt x="70" y="122" on="1"/>
        <pt x="70" y="576" on="1"/>
        <pt x="70" y="609" on="0"/>
        <pt x="104" y="658" on="0"/>
        <pt x="162" y="687" on="0"/>
        <pt x="226" y="704" on="0"/>
        <pt x="312" y="712" on="0"/>
        <pt x="378" y="714" on="0"/>
        <pt x="422" y="714" on="1"/>
        <pt x="475" y="714" on="0"/>
        <pt x="540" y="707" on="1"/>
        <pt x="546" y="695" on="0"/>
        <pt x="546" y="680" on="1"/>
        <pt x="546" y="669" on="0"/>
        <pt x="542" y="657" on="1"/>
        <pt x="507" y="664" on="0"/>
        <pt x="428" y="664" on="1"/>
        <pt x="301" y="662" on="0"/>
        <pt x="240" y="645" on="1"/>
        <pt x="189" y="632" on="0"/>
        <pt x="190" y="571" on="1"/>
        <pt x="190" y="136" on="1"/>
        <pt x="190" y="81" on="0"/>
        <pt x="230" y="44" on="0"/>
        <pt x="286" y="44" on="1"/>
        <pt x="360" y="44" on="0"/>
        <pt x="519" y="66" on="0"/>
        <pt x="548" y="74" on="1"/>
        <pt x="554" y="54" on="0"/>
        <pt x="554" y="46" on="1"/>
        <pt x="554" y="36" on="0"/>
        <pt x="549" y="24" on="1"/>
        <pt x="460" y="-3" on="0"/>
        <pt x="346" y="-11" on="1"/>
      </contour>
    </TTGlyph>
    <TTGlyph name="D" xMin="61" yMin="-13" xMax="610" yMax="713">
      <contour>
        <pt x="610" y="125" on="1"/>
        <pt x="610" y="98" on="0"/>
        <pt x="588" y="55" on="0"/>
        <pt x="552" y="26" on="0"/>
        <pt x="488" y="6" on="0"/>
        <pt x="426" y="-5" on="0"/>
        <pt x="329" y="-11" on="0"/>
        <pt x="248" y="-13" on="0"/>
        <pt x="188" y="-13" on="1"/>
        <pt x="125" y="-13" on="0"/>
        <pt x="80" y="5" on="0"/>
        <pt x="80" y="43" on="1"/>
        <pt x="80" y="562" on="1"/>
        <pt x="80" y="577" on="0"/>
        <pt x="97" y="583" on="1"/>
        <pt x="133" y="595" on="0"/>
        <pt x="182" y="595" on="1"/>
        <pt x="200" y="595" on="0"/>
        <pt x="200" y="577" on="1"/>
        <pt x="200" y="105" on="1"/>
        <pt x="200" y="65" on="0"/>
        <pt x="232" y="40" on="0"/>
        <pt x="278" y="40" on="1"/>
        <pt x="404" y="40" on="0"/>
        <pt x="490" y="76" on="0"/>
        <pt x="490" y="130" on="1"/>
        <pt x="490" y="564" on="1"/>
        <pt x="490" y="620" on="0"/>
        <pt x="450" y="660" on="0"/>
        <pt x="394" y="660" on="1"/>
        <pt x="303" y="660" on="0"/>
        <pt x="105" y="629" on="0"/>
        <pt x="67" y="616" on="1"/>
        <pt x="61" y="626" on="0"/>
        <pt x="61" y="642" on="1"/>
        <pt x="61" y="655" on="0"/>
        <pt x="65" y="666" on="1"/>
        <pt x="228" y="713" on="0"/>
        <pt x="446" y="713" on="1"/>
        <pt x="538" y="713" on="0"/>
        <pt x="610" y="656" on="0"/>
        <pt x="610" y="578" on="1"/>
      </contour>
    </TTGlyph>
    <TTGlyph name="E" xMin="32" yMin="-13" xMax="547" yMax="716">
      <contour>
        <pt x="462" y="396" on="1"/>
        <pt x="373" y="396" on="0"/>
        <pt x="204" y="378" on="1"/>
        <pt x="204" y="105" on="1"/>
        <pt x="204" y="65" on="0"/>
        <pt x="236" y="40" on="0"/>
        <pt x="282" y="40" on="1"/>
        <pt x="336" y="40" on="0"/>
        <pt x="521" y="59" on="0"/>
        <pt x="543" y="65" on="1"/>
        <pt x="547" y="45" on="0"/>
        <pt x="547" y="39" on="1"/>
        <pt x="547" y="31" on="0"/>
        <pt x="543" y="15" on="1"/>
        <pt x="424" y="-13" on="0"/>
        <pt x="236" y="-13" on="1"/>
        <pt x="192" y="-13" on="1"/>
        <pt x="136" y="-13" on="0"/>
        <pt x="84" y="23" on="0"/>
        <pt x="84" y="63" on="1"/>
        <pt x="84" y="565" on="1"/>
        <pt x="84" y="620" on="0"/>
        <pt x="73" y="620" on="1"/>
        <pt x="38" y="618" on="1"/>
        <pt x="32" y="628" on="0"/>
        <pt x="32" y="644" on="1"/>
        <pt x="32" y="657" on="0"/>
        <pt x="36" y="668" on="1"/>
        <pt x="196" y="716" on="0"/>
        <pt x="384" y="714" on="1"/>
        <pt x="448" y="715" on="0"/>
        <pt x="509" y="708" on="1"/>
        <pt x="515" y="696" on="0"/>
        <pt x="515" y="682" on="1"/>
        <pt x="515" y="671" on="0"/>
        <pt x="510" y="658" on="1"/>
        <pt x="480" y="662" on="0"/>
        <pt x="427" y="662" on="1"/>
        <pt x="302" y="662" on="0"/>
        <pt x="203" y="649" on="1"/>
        <pt x="204" y="644" on="0"/>
        <pt x="204" y="630" on="1"/>
        <pt x="204" y="431" on="1"/>
        <pt x="318" y="446" on="0"/>
        <pt x="461" y="448" on="1"/>
        <pt x="467" y="436" on="0"/>
        <pt x="467" y="419" on="1"/>
        <pt x="467" y="409" on="0"/>
      </contour>
    </TTGlyph>
    <TTGlyph name="Eacute" xMin="32" yMin="-13" xMax="547" yMax="926">
      <component glyphName="E" x="0" y="0" flags="0x204"/>
      <component glyphName="acute.case" x="239" y="0" flags="0x4"/>
    </TTGlyph>
    <TTGlyph name="Ecircumflex" xMin="32" yMin="-13" xMax="547" yMax="924">
      <component glyphName="E" x="0" y="0" flags="0x204"/>
      <component glyphName="circumflex.case" x="140" y="0" flags="0x4"/>
    </TTGlyph>
    <TTGlyph name="Edieresis" xMin="32" yMin="-13" xMax="547" yMax="884">
      <component glyphName="E" x="0" y="0" flags="0x204"/>
      <component glyphName="dieresis.case" x="143" y="0" flags="0x4"/>
    </TTGlyph>
    <TTGlyph name="Egrave" xMin="32" yMin="-13" xMax="547" yMax="925">
      <component glyphName="E" x="0" y="0" flags="0x204"/>
      <component glyphName="grave.case" x="139" y="0" flags="0x4"/>
    </TTGlyph>
    <TTGlyph name="Eth" xMin="-9" yMin="-14" xMax="627" yMax="714">
      <contour>
        <pt x="-4" y="418" on="1"/>
        <pt x="44" y="418" on="0"/>
        <pt x="97" y="421" on="1"/>
        <pt x="97" y="562" on="1"/>
        <pt x="97" y="577" on="0"/>
        <pt x="114" y="583" on="1"/>
        <pt x="150" y="595" on="0"/>
        <pt x="199" y="595" on="1"/>
        <pt x="217" y="595" on="0"/>
        <pt x="217" y="577" on="1"/>
        <pt x="217" y="431" on="1"/>
        <pt x="323" y="443" on="1"/>
        <pt x="329" y="431" on="0"/>
        <pt x="329" y="417" on="1"/>
        <pt x="329" y="406" on="0"/>
        <pt x="324" y="393" on="1"/>
        <pt x="270" y="384" on="0"/>
        <pt x="217" y="378" on="1"/>
        <pt x="217" y="105" on="1"/>
        <pt x="217" y="65" on="0"/>
        <pt x="249" y="40" on="0"/>
        <pt x="295" y="40" on="1"/>
        <pt x="421" y="40" on="0"/>
        <pt x="508" y="76" on="0"/>
        <pt x="507" y="130" on="1"/>
        <pt x="507" y="564" on="1"/>
        <pt x="507" y="610" on="0"/>
        <pt x="449" y="650" on="0"/>
        <pt x="380" y="650" on="1"/>
        <pt x="281" y="650" on="0"/>
        <pt x="105" y="629" on="0"/>
        <pt x="71" y="618" on="1"/>
        <pt x="65" y="628" on="0"/>
        <pt x="65" y="644" on="1"/>
        <pt x="65" y="657" on="0"/>
        <pt x="69" y="668" on="1"/>
        <pt x="233" y="714" on="0"/>
        <pt x="463" y="713" on="1"/>
        <pt x="555" y="713" on="0"/>
        <pt x="627" y="656" on="0"/>
        <pt x="627" y="578" on="1"/>
        <pt x="627" y="125" on="1"/>
        <pt x="627" y="98" on="0"/>
        <pt x="605" y="55" on="0"/>
        <pt x="570" y="28" on="0"/>
        <pt x="505" y="5" on="0"/>
        <pt x="443" y="-5" on="0"/>
        <pt x="346" y="-11" on="0"/>
        <pt x="265" y="-13" on="0"/>
        <pt x="205" y="-13" on="1"/>
        <pt x="142" y="-14" on="0"/>
        <pt x="97" y="7" on="0"/>
        <pt x="97" y="43" on="1"/>
        <pt x="97" y="369" on="1"/>
        <pt x="46" y="366" on="0"/>
        <pt x="-3" y="366" on="1"/>
        <pt x="-9" y="378" on="0"/>
        <pt x="-9" y="395" on="1"/>
        <pt x="-9" y="405" on="0"/>
      </contour>
    </TTGlyph>
    <TTGlyph name="Euro" xMin="35" yMin="-13" xMax="507" yMax="712">
      <contour>
        <pt x="507" y="680" on="1"/>
        <pt x="507" y="675" on="1"/>
        <pt x="507" y="580" on="1"/>
        <pt x="507" y="564" on="0"/>
        <pt x="490" y="559" on="1"/>
        <pt x="460" y="551" on="0"/>
        <pt x="439" y="551" on="1"/>
        <pt x="421" y="551" on="0"/>
        <pt x="421" y="569" on="1"/>
        <pt x="421" y="662" on="1"/>
        <pt x="348" y="664" on="0"/>
        <pt x="279" y="648" on="1"/>
        <pt x="211" y="637" on="0"/>
        <pt x="211" y="571" on="1"/>
        <pt x="211" y="437" on="1"/>
        <pt x="296" y="443" on="0"/>
        <pt x="417" y="445" on="1"/>
        <pt x="423" y="433" on="0"/>
        <pt x="423" y="416" on="1"/>
        <pt x="423" y="406" on="0"/>
        <pt x="418" y="393" on="1"/>
        <pt x="333" y="393" on="0"/>
        <pt x="211" y="383" on="1"/>
        <pt x="211" y="322" on="1"/>
        <pt x="303" y="329" on="0"/>
        <pt x="387" y="330" on="1"/>
        <pt x="393" y="318" on="0"/>
        <pt x="393" y="301" on="1"/>
        <pt x="393" y="291" on="0"/>
        <pt x="388" y="278" on="1"/>
        <pt x="333" y="278" on="0"/>
        <pt x="211" y="268" on="1"/>
        <pt x="211" y="136" on="1"/>
        <pt x="211" y="81" on="0"/>
        <pt x="251" y="44" on="0"/>
        <pt x="307" y="44" on="1"/>
        <pt x="413" y="46" on="0"/>
        <pt x="499" y="68" on="1"/>
        <pt x="505" y="53" on="0"/>
        <pt x="505" y="40" on="1"/>
        <pt x="505" y="28" on="0"/>
        <pt x="500" y="18" on="1"/>
        <pt x="397" y="-13" on="0"/>
        <pt x="255" y="-13" on="1"/>
        <pt x="163" y="-13" on="0"/>
        <pt x="91" y="44" on="0"/>
        <pt x="91" y="122" on="1"/>
        <pt x="91" y="258" on="1"/>
        <pt x="56" y="254" on="0"/>
        <pt x="41" y="253" on="1"/>
        <pt x="35" y="265" on="0"/>
        <pt x="35" y="279" on="1"/>
        <pt x="35" y="290" on="0"/>
        <pt x="40" y="303" on="1"/>
        <pt x="91" y="310" on="1"/>
        <pt x="91" y="373" on="1"/>
        <pt x="56" y="369" on="0"/>
        <pt x="41" y="368" on="1"/>
        <pt x="35" y="380" on="0"/>
        <pt x="35" y="394" on="1"/>
        <pt x="35" y="405" on="0"/>
        <pt x="40" y="418" on="1"/>
        <pt x="91" y="425" on="1"/>
        <pt x="91" y="576" on="1"/>
        <pt x="91" y="665" on="0"/>
        <pt x="201" y="691" on="1"/>
        <pt x="284" y="712" on="0"/>
        <pt x="396" y="712" on="1"/>
        <pt x="457" y="712" on="0"/>
        <pt x="501" y="707" on="1"/>
        <pt x="507" y="695" on="0"/>
      </contour>
    </TTGlyph>
    <TTGlyph name="F" xMin="15" yMin="-229" xMax="516" yMax="716">
      <contour>
        <pt x="418" y="396" on="1"/>
        <pt x="328" y="396" on="0"/>
        <pt x="205" y="383" on="1"/>
        <pt x="205" y="-114" on="1"/>
        <pt x="205" y="-162" on="0"/>
        <pt x="169" y="-210" on="0"/>
        <pt x="123" y="-220" on="1"/>
        <pt x="83" y="-229" on="0"/>
        <pt x="20" y="-228" on="1"/>
        <pt x="15" y="-218" on="0"/>
        <pt x="15" y="-202" on="1"/>
        <pt x="15" y="-191" on="0"/>
        <pt x="19" y="-180" on="1"/>
        <pt x="56" y="-178" on="0"/>
        <pt x="85" y="-148" on="0"/>
        <pt x="85" y="-110" on="1"/>
        <pt x="85" y="565" on="1"/>
        <pt x="85" y="620" on="0"/>
        <pt x="74" y="620" on="1"/>
        <pt x="39" y="618" on="1"/>
        <pt x="33" y="628" on="0"/>
        <pt x="33" y="644" on="1"/>
        <pt x="33" y="657" on="0"/>
        <pt x="37" y="668" on="1"/>
        <pt x="193" y="716" on="0"/>
        <pt x="385" y="714" on="1"/>
        <pt x="449" y="715" on="0"/>
        <pt x="510" y="708" on="1"/>
        <pt x="516" y="696" on="0"/>
        <pt x="516" y="682" on="1"/>
        <pt x="516" y="671" on="0"/>
        <pt x="511" y="658" on="1"/>
        <pt x="487" y="662" on="0"/>
        <pt x="428" y="662" on="1"/>
        <pt x="303" y="662" on="0"/>
        <pt x="204" y="649" on="1"/>
        <pt x="205" y="644" on="0"/>
        <pt x="205" y="630" on="1"/>
        <pt x="205" y="437" on="1"/>
        <pt x="297" y="446" on="0"/>
        <pt x="417" y="448" on="1"/>
        <pt x="423" y="436" on="0"/>
        <pt x="423" y="419" on="1"/>
        <pt x="423" y="409" on="0"/>
      </contour>
    </TTGlyph>
    <TTGlyph name="G" xMin="70" yMin="-14" xMax="602" yMax="714">
      <contour>
        <pt x="541" y="464" on="1"/>
        <pt x="580" y="464" on="0"/>
        <pt x="602" y="450" on="0"/>
        <pt x="601" y="421" on="1"/>
        <pt x="601" y="125" on="1"/>
        <pt x="601" y="49" on="0"/>
        <pt x="428" y="-14" on="0"/>
        <pt x="235" y="-13" on="1"/>
        <pt x="142" y="-14" on="0"/>
        <pt x="70" y="46" on="0"/>
        <pt x="71" y="122" on="1"/>
        <pt x="71" y="576" on="1"/>
        <pt x="71" y="607" on="0"/>
        <pt x="104" y="658" on="0"/>
        <pt x="169" y="690" on="0"/>
        <pt x="237" y="705" on="0"/>
        <pt x="321" y="713" on="0"/>
        <pt x="379" y="714" on="0"/>
        <pt x="423" y="714" on="1"/>
        <pt x="486" y="714" on="0"/>
        <pt x="551" y="707" on="1"/>
        <pt x="557" y="695" on="0"/>
        <pt x="557" y="680" on="1"/>
        <pt x="557" y="669" on="0"/>
        <pt x="553" y="657" on="1"/>
        <pt x="518" y="663" on="0"/>
        <pt x="429" y="664" on="1"/>
        <pt x="302" y="663" on="0"/>
        <pt x="241" y="645" on="1"/>
        <pt x="190" y="632" on="0"/>
        <pt x="191" y="571" on="1"/>
        <pt x="191" y="136" on="1"/>
        <pt x="191" y="80" on="0"/>
        <pt x="231" y="40" on="0"/>
        <pt x="287" y="40" on="1"/>
        <pt x="376" y="40" on="0"/>
        <pt x="455" y="61" on="0"/>
        <pt x="481" y="97" on="0"/>
        <pt x="481" y="130" on="1"/>
        <pt x="481" y="356" on="1"/>
        <pt x="481" y="411" on="0"/>
        <pt x="470" y="411" on="1"/>
        <pt x="288" y="409" on="1"/>
        <pt x="284" y="417" on="0"/>
        <pt x="284" y="428" on="1"/>
        <pt x="284" y="436" on="0"/>
        <pt x="287" y="445" on="1"/>
        <pt x="313" y="452" on="0"/>
        <pt x="488" y="464" on="0"/>
      </contour>
    </TTGlyph>
    <TTGlyph name="H" xMin="13" yMin="-13" xMax="699" yMax="713">
      <contour>
        <pt x="211" y="366" on="1"/>
        <pt x="211" y="95" on="1"/>
        <pt x="211" y="40" on="0"/>
        <pt x="222" y="40" on="1"/>
        <pt x="285" y="42" on="1"/>
        <pt x="289" y="34" on="0"/>
        <pt x="289" y="23" on="1"/>
        <pt x="289" y="15" on="0"/>
        <pt x="286" y="6" on="1"/>
        <pt x="219" y="-13" on="0"/>
        <pt x="158" y="-13" on="1"/>
        <pt x="112" y="-13" on="0"/>
        <pt x="90" y="1" on="0"/>
        <pt x="91" y="30" on="1"/>
        <pt x="91" y="605" on="1"/>
        <pt x="91" y="660" on="0"/>
        <pt x="80" y="660" on="1"/>
        <pt x="17" y="658" on="1"/>
        <pt x="13" y="666" on="0"/>
        <pt x="13" y="677" on="1"/>
        <pt x="13" y="685" on="0"/>
        <pt x="16" y="694" on="1"/>
        <pt x="83" y="713" on="0"/>
        <pt x="144" y="713" on="1"/>
        <pt x="190" y="713" on="0"/>
        <pt x="212" y="699" on="0"/>
        <pt x="211" y="670" on="1"/>
        <pt x="211" y="418" on="1"/>
        <pt x="303" y="419" on="0"/>
        <pt x="501" y="441" on="1"/>
        <pt x="501" y="605" on="1"/>
        <pt x="501" y="660" on="0"/>
        <pt x="490" y="660" on="1"/>
        <pt x="427" y="658" on="1"/>
        <pt x="423" y="666" on="0"/>
        <pt x="423" y="677" on="1"/>
        <pt x="423" y="685" on="0"/>
        <pt x="426" y="694" on="1"/>
        <pt x="493" y="713" on="0"/>
        <pt x="554" y="713" on="1"/>
        <pt x="600" y="713" on="0"/>
        <pt x="622" y="699" on="0"/>
        <pt x="621" y="670" on="1"/>
        <pt x="621" y="95" on="1"/>
        <pt x="621" y="40" on="0"/>
        <pt x="632" y="40" on="1"/>
        <pt x="695" y="42" on="1"/>
        <pt x="699" y="34" on="0"/>
        <pt x="699" y="23" on="1"/>
        <pt x="699" y="15" on="0"/>
        <pt x="696" y="6" on="1"/>
        <pt x="629" y="-13" on="0"/>
        <pt x="568" y="-13" on="1"/>
        <pt x="522" y="-13" on="0"/>
        <pt x="500" y="1" on="0"/>
        <pt x="501" y="30" on="1"/>
        <pt x="501" y="389" on="1"/>
        <pt x="371" y="368" on="0"/>
      </contour>
    </TTGlyph>
    <TTGlyph name="I" xMin="13" yMin="-13" xMax="289" yMax="713">
      <contour>
        <pt x="211" y="670" on="1"/>
        <pt x="211" y="95" on="1"/>
        <pt x="211" y="40" on="0"/>
        <pt x="222" y="40" on="1"/>
        <pt x="285" y="42" on="1"/>
        <pt x="289" y="34" on="0"/>
        <pt x="289" y="23" on="1"/>
        <pt x="289" y="15" on="0"/>
        <pt x="286" y="6" on="1"/>
        <pt x="219" y="-13" on="0"/>
        <pt x="158" y="-13" on="1"/>
        <pt x="112" y="-13" on="0"/>
        <pt x="90" y="1" on="0"/>
        <pt x="91" y="30" on="1"/>
        <pt x="91" y="605" on="1"/>
        <pt x="91" y="660" on="0"/>
        <pt x="80" y="660" on="1"/>
        <pt x="17" y="658" on="1"/>
        <pt x="13" y="666" on="0"/>
        <pt x="13" y="677" on="1"/>
        <pt x="13" y="685" on="0"/>
        <pt x="16" y="694" on="1"/>
        <pt x="83" y="713" on="0"/>
        <pt x="144" y="713" on="1"/>
        <pt x="190" y="713" on="0"/>
        <pt x="212" y="699" on="0"/>
      </contour>
    </TTGlyph>
    <TTGlyph name="Iacute" xMin="13" yMin="-13" xMax="289" yMax="926">
      <component glyphName="I" x="0" y="0" flags="0x204"/>
      <component glyphName="acute.case" x="59" y="0" flags="0x4"/>
    </TTGlyph>
    <TTGlyph name="Icircumflex" xMin="-35" yMin="-13" xMax="289" yMax="924">
      <component glyphName="I" x="0" y="0" flags="0x204"/>
      <component glyphName="circumflex.case" x="-48" y="0" flags="0x4"/>
    </TTGlyph>
    <TTGlyph name="Idieresis" xMin="-6" yMin="-13" xMax="289" yMax="884">
      <component glyphName="I" x="0" y="0" flags="0x204"/>
      <component glyphName="dieresis.case" x="-43" y="0" flags="0x4"/>
    </TTGlyph>
    <TTGlyph name="Igrave" xMin="-18" yMin="-13" xMax="289" yMax="925">
      <component glyphName="I" x="0" y="0" flags="0x204"/>
      <component glyphName="grave.case" x="-40" y="0" flags="0x4"/>
    </TTGlyph>
    <TTGlyph name="J" xMin="-16" yMin="-229" xMax="212" yMax="713">
      <contour>
        <pt x="-10" y="-229" on="1"/>
        <pt x="-10" y="-228" on="0"/>
        <pt x="-16" y="-208" on="0"/>
        <pt x="-16" y="-203" on="1"/>
        <pt x="-16" y="-190" on="0"/>
        <pt x="-11" y="-182" on="1"/>
        <pt x="-2" y="-182" on="0"/>
        <pt x="20" y="-180" on="1"/>
        <pt x="61" y="-175" on="0"/>
        <pt x="91" y="-147" on="0"/>
        <pt x="91" y="-110" on="1"/>
        <pt x="91" y="605" on="1"/>
        <pt x="91" y="660" on="0"/>
        <pt x="80" y="660" on="1"/>
        <pt x="17" y="658" on="1"/>
        <pt x="13" y="666" on="0"/>
        <pt x="13" y="677" on="1"/>
        <pt x="13" y="685" on="0"/>
        <pt x="16" y="694" on="1"/>
        <pt x="83" y="713" on="0"/>
        <pt x="144" y="713" on="1"/>
        <pt x="190" y="713" on="0"/>
        <pt x="212" y="699" on="0"/>
        <pt x="211" y="670" on="1"/>
        <pt x="211" y="-114" on="1"/>
        <pt x="211" y="-159" on="0"/>
        <pt x="166" y="-208" on="0"/>
        <pt x="118" y="-219" on="1"/>
        <pt x="54" y="-229" on="0"/>
      </contour>
    </TTGlyph>
    <TTGlyph name="K" xMin="13" yMin="-13" xMax="680" yMax="713">
      <contour>
        <pt x="677" y="6" on="1"/>
        <pt x="610" y="-13" on="0"/>
        <pt x="549" y="-13" on="1"/>
        <pt x="506" y="-13" on="0"/>
        <pt x="486" y="-2" on="0"/>
        <pt x="472" y="30" on="1"/>
        <pt x="316" y="378" on="1"/>
        <pt x="246" y="372" on="0"/>
        <pt x="211" y="371" on="1"/>
        <pt x="211" y="95" on="1"/>
        <pt x="211" y="40" on="0"/>
        <pt x="222" y="40" on="1"/>
        <pt x="285" y="42" on="1"/>
        <pt x="289" y="34" on="0"/>
        <pt x="289" y="23" on="1"/>
        <pt x="289" y="15" on="0"/>
        <pt x="286" y="6" on="1"/>
        <pt x="219" y="-13" on="0"/>
        <pt x="158" y="-13" on="1"/>
        <pt x="112" y="-13" on="0"/>
        <pt x="90" y="1" on="0"/>
        <pt x="91" y="30" on="1"/>
        <pt x="91" y="605" on="1"/>
        <pt x="91" y="660" on="0"/>
        <pt x="80" y="660" on="1"/>
        <pt x="17" y="658" on="1"/>
        <pt x="13" y="666" on="0"/>
        <pt x="13" y="677" on="1"/>
        <pt x="13" y="685" on="0"/>
        <pt x="16" y="694" on="1"/>
        <pt x="83" y="713" on="0"/>
        <pt x="144" y="713" on="1"/>
        <pt x="190" y="713" on="0"/>
        <pt x="212" y="699" on="0"/>
        <pt x="211" y="670" on="1"/>
        <pt x="211" y="419" on="1"/>
        <pt x="306" y="423" on="0"/>
        <pt x="368" y="436" on="1"/>
        <pt x="411" y="444" on="0"/>
        <pt x="439" y="469" on="0"/>
        <pt x="439" y="505" on="1"/>
        <pt x="439" y="603" on="1"/>
        <pt x="439" y="650" on="0"/>
        <pt x="459" y="700" on="0"/>
        <pt x="490" y="706" on="1"/>
        <pt x="530" y="713" on="0"/>
        <pt x="634" y="713" on="1"/>
        <pt x="637" y="706" on="0"/>
        <pt x="637" y="697" on="1"/>
        <pt x="637" y="691" on="0"/>
        <pt x="633" y="677" on="1"/>
        <pt x="562" y="669" on="1"/>
        <pt x="551" y="657" on="0"/>
        <pt x="551" y="608" on="1"/>
        <pt x="551" y="501" on="1"/>
        <pt x="551" y="405" on="0"/>
        <pt x="442" y="392" on="1"/>
        <pt x="586" y="70" on="1"/>
        <pt x="595" y="51" on="0"/>
        <pt x="605" y="40" on="0"/>
        <pt x="613" y="40" on="1"/>
        <pt x="676" y="42" on="1"/>
        <pt x="680" y="34" on="0"/>
        <pt x="680" y="23" on="1"/>
        <pt x="680" y="15" on="0"/>
      </contour>
    </TTGlyph>
    <TTGlyph name="L" xMin="13" yMin="-13" xMax="531" yMax="713">
      <contour>
        <pt x="526" y="29" on="1"/>
        <pt x="382" y="-13" on="0"/>
        <pt x="199" y="-13" on="1"/>
        <pt x="143" y="-13" on="0"/>
        <pt x="91" y="23" on="0"/>
        <pt x="91" y="63" on="1"/>
        <pt x="91" y="605" on="1"/>
        <pt x="91" y="660" on="0"/>
        <pt x="80" y="660" on="1"/>
        <pt x="17" y="658" on="1"/>
        <pt x="13" y="666" on="0"/>
        <pt x="13" y="677" on="1"/>
        <pt x="13" y="685" on="0"/>
        <pt x="16" y="694" on="1"/>
        <pt x="83" y="713" on="0"/>
        <pt x="144" y="713" on="1"/>
        <pt x="190" y="713" on="0"/>
        <pt x="212" y="699" on="0"/>
        <pt x="211" y="670" on="1"/>
        <pt x="211" y="75" on="1"/>
        <pt x="211" y="57" on="0"/>
        <pt x="235" y="48" on="0"/>
        <pt x="289" y="48" on="1"/>
        <pt x="407" y="50" on="0"/>
        <pt x="524" y="85" on="1"/>
        <pt x="531" y="74" on="0"/>
        <pt x="531" y="56" on="1"/>
        <pt x="531" y="40" on="0"/>
      </contour>
    </TTGlyph>
    <TTGlyph name="M" xMin="13" yMin="-13" xMax="1009" yMax="714">
      <contour>
        <pt x="571" y="614" on="1"/>
        <pt x="571" y="95" on="1"/>
        <pt x="571" y="40" on="0"/>
        <pt x="582" y="40" on="1"/>
        <pt x="645" y="42" on="1"/>
        <pt x="649" y="34" on="0"/>
        <pt x="649" y="23" on="1"/>
        <pt x="649" y="15" on="0"/>
        <pt x="646" y="6" on="1"/>
        <pt x="579" y="-13" on="0"/>
        <pt x="518" y="-13" on="1"/>
        <pt x="472" y="-13" on="0"/>
        <pt x="450" y="1" on="0"/>
        <pt x="451" y="30" on="1"/>
        <pt x="451" y="582" on="1"/>
        <pt x="451" y="622" on="0"/>
        <pt x="419" y="647" on="0"/>
        <pt x="373" y="647" on="1"/>
        <pt x="316" y="648" on="0"/>
        <pt x="211" y="614" on="1"/>
        <pt x="211" y="95" on="1"/>
        <pt x="211" y="40" on="0"/>
        <pt x="222" y="40" on="1"/>
        <pt x="285" y="42" on="1"/>
        <pt x="289" y="34" on="0"/>
        <pt x="289" y="23" on="1"/>
        <pt x="289" y="15" on="0"/>
        <pt x="286" y="6" on="1"/>
        <pt x="219" y="-13" on="0"/>
        <pt x="158" y="-13" on="1"/>
        <pt x="112" y="-13" on="0"/>
        <pt x="90" y="1" on="0"/>
        <pt x="91" y="30" on="1"/>
        <pt x="91" y="605" on="1"/>
        <pt x="91" y="660" on="0"/>
        <pt x="80" y="660" on="1"/>
        <pt x="17" y="658" on="1"/>
        <pt x="13" y="666" on="0"/>
        <pt x="13" y="677" on="1"/>
        <pt x="13" y="685" on="0"/>
        <pt x="16" y="694" on="1"/>
        <pt x="83" y="713" on="0"/>
        <pt x="144" y="713" on="1"/>
        <pt x="190" y="713" on="0"/>
        <pt x="212" y="699" on="0"/>
        <pt x="211" y="670" on="1"/>
        <pt x="211" y="664" on="1"/>
        <pt x="337" y="712" on="0"/>
        <pt x="463" y="713" on="1"/>
        <pt x="554" y="714" on="0"/>
        <pt x="568" y="662" on="1"/>
        <pt x="699" y="712" on="0"/>
        <pt x="823" y="713" on="1"/>
        <pt x="879" y="713" on="0"/>
        <pt x="931" y="677" on="0"/>
        <pt x="931" y="637" on="1"/>
        <pt x="931" y="95" on="1"/>
        <pt x="931" y="40" on="0"/>
        <pt x="942" y="40" on="1"/>
        <pt x="1005" y="42" on="1"/>
        <pt x="1009" y="34" on="0"/>
        <pt x="1009" y="23" on="1"/>
        <pt x="1009" y="15" on="0"/>
        <pt x="1006" y="6" on="1"/>
        <pt x="939" y="-13" on="0"/>
        <pt x="878" y="-13" on="1"/>
        <pt x="832" y="-13" on="0"/>
        <pt x="810" y="1" on="0"/>
        <pt x="811" y="30" on="1"/>
        <pt x="811" y="582" on="1"/>
        <pt x="811" y="622" on="0"/>
        <pt x="779" y="647" on="0"/>
        <pt x="733" y="647" on="1"/>
        <pt x="676" y="648" on="0"/>
      </contour>
    </TTGlyph>
    <TTGlyph name="N" xMin="13" yMin="-13" xMax="681" yMax="713">
      <contour>
        <pt x="603" y="637" on="1"/>
        <pt x="603" y="95" on="1"/>
        <pt x="603" y="40" on="0"/>
        <pt x="614" y="40" on="1"/>
        <pt x="677" y="42" on="1"/>
        <pt x="681" y="34" on="0"/>
        <pt x="681" y="23" on="1"/>
        <pt x="681" y="15" on="0"/>
        <pt x="678" y="6" on="1"/>
        <pt x="611" y="-13" on="0"/>
        <pt x="550" y="-13" on="1"/>
        <pt x="504" y="-13" on="0"/>
        <pt x="482" y="1" on="0"/>
        <pt x="483" y="30" on="1"/>
        <pt x="483" y="582" on="1"/>
        <pt x="483" y="622" on="0"/>
        <pt x="451" y="647" on="0"/>
        <pt x="405" y="647" on="1"/>
        <pt x="333" y="647" on="0"/>
        <pt x="211" y="614" on="1"/>
        <pt x="211" y="95" on="1"/>
        <pt x="211" y="40" on="0"/>
        <pt x="222" y="40" on="1"/>
        <pt x="285" y="42" on="1"/>
        <pt x="289" y="34" on="0"/>
        <pt x="289" y="23" on="1"/>
        <pt x="289" y="15" on="0"/>
        <pt x="286" y="6" on="1"/>
        <pt x="219" y="-13" on="0"/>
        <pt x="158" y="-13" on="1"/>
        <pt x="112" y="-13" on="0"/>
        <pt x="90" y="1" on="0"/>
        <pt x="91" y="30" on="1"/>
        <pt x="91" y="605" on="1"/>
        <pt x="91" y="660" on="0"/>
        <pt x="80" y="660" on="1"/>
        <pt x="17" y="658" on="1"/>
        <pt x="13" y="666" on="0"/>
        <pt x="13" y="677" on="1"/>
        <pt x="13" y="685" on="0"/>
        <pt x="16" y="694" on="1"/>
        <pt x="83" y="713" on="0"/>
        <pt x="144" y="713" on="1"/>
        <pt x="190" y="713" on="0"/>
        <pt x="212" y="699" on="0"/>
        <pt x="211" y="670" on="1"/>
        <pt x="211" y="664" on="1"/>
        <pt x="350" y="713" on="0"/>
        <pt x="495" y="713" on="1"/>
        <pt x="551" y="713" on="0"/>
        <pt x="603" y="677" on="0"/>
      </contour>
    </TTGlyph>
    <TTGlyph name="Ntilde" xMin="13" yMin="-13" xMax="681" yMax="894">
      <component glyphName="N" x="0" y="0" flags="0x204"/>
      <component glyphName="tilde.case" x="154" y="0" flags="0x4"/>
    </TTGlyph>
    <TTGlyph name="O" xMin="70" yMin="-13" xMax="600" yMax="714">
      <contour>
        <pt x="70" y="122" on="1"/>
        <pt x="70" y="576" on="1"/>
        <pt x="70" y="653" on="0"/>
        <pt x="244" y="714" on="0"/>
        <pt x="436" y="714" on="1"/>
        <pt x="530" y="714" on="0"/>
        <pt x="600" y="657" on="0"/>
        <pt x="600" y="579" on="1"/>
        <pt x="600" y="125" on="1"/>
        <pt x="600" y="48" on="0"/>
        <pt x="426" y="-13" on="0"/>
        <pt x="234" y="-13" on="1"/>
        <pt x="141" y="-13" on="0"/>
        <pt x="70" y="44" on="0"/>
      </contour>
      <contour>
        <pt x="480" y="130" on="1"/>
        <pt x="480" y="565" on="1"/>
        <pt x="480" y="621" on="0"/>
        <pt x="440" y="661" on="0"/>
        <pt x="384" y="661" on="1"/>
        <pt x="301" y="661" on="0"/>
        <pt x="219" y="642" on="0"/>
        <pt x="189" y="604" on="0"/>
        <pt x="190" y="571" on="1"/>
        <pt x="190" y="136" on="1"/>
        <pt x="190" y="80" on="0"/>
        <pt x="230" y="40" on="0"/>
        <pt x="286" y="40" on="1"/>
        <pt x="369" y="40" on="0"/>
        <pt x="453" y="60" on="0"/>
        <pt x="480" y="97" on="0"/>
      </contour>
    </TTGlyph>
    <TTGlyph name="OE" xMin="70" yMin="-13" xMax="943" yMax="714">
      <contour>
        <pt x="70" y="122" on="1"/>
        <pt x="70" y="576" on="1"/>
        <pt x="70" y="653" on="0"/>
        <pt x="244" y="714" on="0"/>
        <pt x="436" y="714" on="1"/>
        <pt x="512" y="714" on="0"/>
        <pt x="548" y="696" on="1"/>
        <pt x="650" y="714" on="0"/>
        <pt x="780" y="714" on="1"/>
        <pt x="844" y="714" on="0"/>
        <pt x="905" y="708" on="1"/>
        <pt x="911" y="696" on="0"/>
        <pt x="911" y="682" on="1"/>
        <pt x="911" y="671" on="0"/>
        <pt x="906" y="658" on="1"/>
        <pt x="876" y="662" on="0"/>
        <pt x="823" y="662" on="1"/>
        <pt x="698" y="662" on="0"/>
        <pt x="599" y="649" on="1"/>
        <pt x="600" y="644" on="0"/>
        <pt x="600" y="630" on="1"/>
        <pt x="600" y="431" on="1"/>
        <pt x="714" y="446" on="0"/>
        <pt x="857" y="448" on="1"/>
        <pt x="863" y="436" on="0"/>
        <pt x="863" y="419" on="1"/>
        <pt x="863" y="409" on="0"/>
        <pt x="858" y="396" on="1"/>
        <pt x="769" y="396" on="0"/>
        <pt x="600" y="378" on="1"/>
        <pt x="600" y="105" on="1"/>
        <pt x="600" y="65" on="0"/>
        <pt x="632" y="40" on="0"/>
        <pt x="678" y="40" on="1"/>
        <pt x="732" y="40" on="0"/>
        <pt x="917" y="59" on="0"/>
        <pt x="939" y="65" on="1"/>
        <pt x="943" y="50" on="0"/>
        <pt x="943" y="39" on="1"/>
        <pt x="943" y="28" on="0"/>
        <pt x="939" y="15" on="1"/>
        <pt x="843" y="-13" on="0"/>
        <pt x="632" y="-13" on="1"/>
        <pt x="588" y="-13" on="1"/>
        <pt x="521" y="-13" on="0"/>
        <pt x="496" y="12" on="1"/>
        <pt x="406" y="-13" on="0"/>
        <pt x="234" y="-13" on="1"/>
        <pt x="142" y="-13" on="0"/>
        <pt x="70" y="44" on="0"/>
      </contour>
      <contour>
        <pt x="480" y="130" on="1"/>
        <pt x="480" y="565" on="1"/>
        <pt x="480" y="621" on="0"/>
        <pt x="440" y="661" on="0"/>
        <pt x="384" y="661" on="1"/>
        <pt x="301" y="661" on="0"/>
        <pt x="214" y="639" on="0"/>
        <pt x="190" y="604" on="0"/>
        <pt x="190" y="571" on="1"/>
        <pt x="190" y="136" on="1"/>
        <pt x="190" y="80" on="0"/>
        <pt x="230" y="40" on="0"/>
        <pt x="286" y="40" on="1"/>
        <pt x="369" y="40" on="0"/>
        <pt x="456" y="62" on="0"/>
        <pt x="480" y="97" on="0"/>
      </contour>
    </TTGlyph>
    <TTGlyph name="Oacute" xMin="70" yMin="-13" xMax="600" yMax="926">
      <component glyphName="O" x="0" y="0" flags="0x204"/>
      <component glyphName="acute.case" x="273" y="0" flags="0x4"/>
    </TTGlyph>
    <TTGlyph name="Ocircumflex" xMin="70" yMin="-13" xMax="600" yMax="924">
      <component glyphName="O" x="0" y="0" flags="0x204"/>
      <component glyphName="circumflex.case" x="164" y="0" flags="0x4"/>
    </TTGlyph>
    <TTGlyph name="Odieresis" xMin="70" yMin="-13" xMax="600" yMax="884">
      <component glyphName="O" x="0" y="0" flags="0x204"/>
      <component glyphName="dieresis.case" x="156" y="0" flags="0x4"/>
    </TTGlyph>
    <TTGlyph name="Ograve" xMin="70" yMin="-13" xMax="600" yMax="925">
      <component glyphName="O" x="0" y="0" flags="0x204"/>
      <component glyphName="grave.case" x="153" y="0" flags="0x4"/>
    </TTGlyph>
    <TTGlyph name="Oslash" xMin="22" yMin="-15" xMax="642" yMax="714">
      <contour>
        <pt x="70" y="122" on="1"/>
        <pt x="70" y="576" on="1"/>
        <pt x="70" y="653" on="0"/>
        <pt x="244" y="714" on="0"/>
        <pt x="436" y="714" on="1"/>
        <pt x="531" y="714" on="0"/>
        <pt x="565" y="684" on="1"/>
        <pt x="589" y="713" on="1"/>
        <pt x="621" y="713" on="0"/>
        <pt x="642" y="689" on="1"/>
        <pt x="595" y="632" on="1"/>
        <pt x="600" y="607" on="0"/>
        <pt x="600" y="579" on="1"/>
        <pt x="600" y="125" on="1"/>
        <pt x="600" y="48" on="0"/>
        <pt x="426" y="-13" on="0"/>
        <pt x="234" y="-13" on="1"/>
        <pt x="137" y="-13" on="0"/>
        <pt x="102" y="18" on="1"/>
        <pt x="75" y="-15" on="1"/>
        <pt x="36" y="-15" on="0"/>
        <pt x="22" y="9" on="1"/>
        <pt x="74" y="72" on="1"/>
        <pt x="70" y="91" on="0"/>
      </contour>
      <contour>
        <pt x="190" y="571" on="1"/>
        <pt x="190" y="219" on="1"/>
        <pt x="480" y="568" on="1"/>
        <pt x="479" y="622" on="0"/>
        <pt x="439" y="661" on="0"/>
        <pt x="384" y="661" on="1"/>
        <pt x="301" y="661" on="0"/>
        <pt x="214" y="639" on="0"/>
        <pt x="190" y="604" on="0"/>
      </contour>
      <contour>
        <pt x="480" y="130" on="1"/>
        <pt x="480" y="482" on="1"/>
        <pt x="190" y="131" on="1"/>
        <pt x="191" y="78" on="0"/>
        <pt x="231" y="40" on="0"/>
        <pt x="286" y="40" on="1"/>
        <pt x="369" y="40" on="0"/>
        <pt x="456" y="62" on="0"/>
        <pt x="480" y="97" on="0"/>
      </contour>
    </TTGlyph>
    <TTGlyph name="Otilde" xMin="70" yMin="-13" xMax="600" yMax="894">
      <component glyphName="O" x="0" y="0" flags="0x204"/>
      <component glyphName="tilde.case" x="132" y="0" flags="0x4"/>
    </TTGlyph>
    <TTGlyph name="P" xMin="28" yMin="-13" xMax="544" yMax="715">
      <contour>
        <pt x="187" y="595" on="1"/>
        <pt x="205" y="595" on="0"/>
        <pt x="205" y="577" on="1"/>
        <pt x="205" y="353" on="1"/>
        <pt x="298" y="359" on="0"/>
        <pt x="353" y="370" on="1"/>
        <pt x="396" y="378" on="0"/>
        <pt x="424" y="403" on="0"/>
        <pt x="424" y="439" on="1"/>
        <pt x="424" y="564" on="1"/>
        <pt x="424" y="620" on="0"/>
        <pt x="384" y="660" on="0"/>
        <pt x="328" y="660" on="1"/>
        <pt x="171" y="658" on="0"/>
        <pt x="34" y="616" on="1"/>
        <pt x="28" y="626" on="0"/>
        <pt x="28" y="642" on="1"/>
        <pt x="28" y="655" on="0"/>
        <pt x="32" y="666" on="1"/>
        <pt x="194" y="715" on="0"/>
        <pt x="380" y="713" on="1"/>
        <pt x="472" y="713" on="0"/>
        <pt x="544" y="656" on="0"/>
        <pt x="544" y="578" on="1"/>
        <pt x="544" y="435" on="1"/>
        <pt x="544" y="390" on="0"/>
        <pt x="499" y="341" on="0"/>
        <pt x="451" y="330" on="1"/>
        <pt x="328" y="310" on="0"/>
        <pt x="205" y="306" on="1"/>
        <pt x="205" y="95" on="1"/>
        <pt x="205" y="40" on="0"/>
        <pt x="216" y="40" on="1"/>
        <pt x="279" y="42" on="1"/>
        <pt x="283" y="34" on="0"/>
        <pt x="283" y="23" on="1"/>
        <pt x="283" y="15" on="0"/>
        <pt x="280" y="6" on="1"/>
        <pt x="213" y="-13" on="0"/>
        <pt x="152" y="-13" on="1"/>
        <pt x="106" y="-13" on="0"/>
        <pt x="84" y="1" on="0"/>
        <pt x="85" y="30" on="1"/>
        <pt x="85" y="562" on="1"/>
        <pt x="85" y="577" on="0"/>
        <pt x="102" y="583" on="1"/>
        <pt x="138" y="595" on="0"/>
      </contour>
    </TTGlyph>
    <TTGlyph name="Q" xMin="71" yMin="-228" xMax="601" yMax="714">
      <contour>
        <pt x="601" y="579" on="1"/>
        <pt x="601" y="-195" on="1"/>
        <pt x="601" y="-210" on="0"/>
        <pt x="584" y="-216" on="1"/>
        <pt x="548" y="-228" on="0"/>
        <pt x="499" y="-228" on="1"/>
        <pt x="481" y="-228" on="0"/>
        <pt x="481" y="-210" on="1"/>
        <pt x="481" y="36" on="1"/>
        <pt x="332" y="-13" on="0"/>
        <pt x="179" y="-13" on="1"/>
        <pt x="123" y="-13" on="0"/>
        <pt x="71" y="23" on="0"/>
        <pt x="71" y="63" on="1"/>
        <pt x="71" y="576" on="1"/>
        <pt x="71" y="653" on="0"/>
        <pt x="245" y="714" on="0"/>
        <pt x="437" y="714" on="1"/>
        <pt x="529" y="714" on="0"/>
        <pt x="601" y="657" on="0"/>
      </contour>
      <contour>
        <pt x="191" y="571" on="1"/>
        <pt x="191" y="118" on="1"/>
        <pt x="191" y="78" on="0"/>
        <pt x="223" y="53" on="0"/>
        <pt x="269" y="53" on="1"/>
        <pt x="348" y="53" on="0"/>
        <pt x="481" y="86" on="1"/>
        <pt x="481" y="565" on="1"/>
        <pt x="481" y="621" on="0"/>
        <pt x="441" y="661" on="0"/>
        <pt x="385" y="661" on="1"/>
        <pt x="302" y="661" on="0"/>
        <pt x="215" y="639" on="0"/>
        <pt x="191" y="604" on="0"/>
      </contour>
    </TTGlyph>
    <TTGlyph name="R" xMin="27" yMin="-13" xMax="680" yMax="713">
      <contour>
        <pt x="33" y="616" on="1"/>
        <pt x="27" y="626" on="0"/>
        <pt x="27" y="642" on="1"/>
        <pt x="27" y="655" on="0"/>
        <pt x="31" y="666" on="1"/>
        <pt x="194" y="713" on="0"/>
        <pt x="412" y="713" on="1"/>
        <pt x="504" y="713" on="0"/>
        <pt x="576" y="656" on="0"/>
        <pt x="576" y="578" on="1"/>
        <pt x="576" y="472" on="1"/>
        <pt x="576" y="427" on="0"/>
        <pt x="531" y="378" on="0"/>
        <pt x="483" y="367" on="1"/>
        <pt x="458" y="363" on="0"/>
        <pt x="448" y="362" on="1"/>
        <pt x="568" y="95" on="1"/>
        <pt x="570" y="90" on="0"/>
        <pt x="578" y="73" on="0"/>
        <pt x="582" y="65" on="0"/>
        <pt x="588" y="53" on="0"/>
        <pt x="592" y="48" on="0"/>
        <pt x="598" y="42" on="0"/>
        <pt x="604" y="40" on="0"/>
        <pt x="607" y="40" on="1"/>
        <pt x="676" y="42" on="1"/>
        <pt x="680" y="28" on="0"/>
        <pt x="680" y="22" on="1"/>
        <pt x="680" y="14" on="0"/>
        <pt x="677" y="6" on="1"/>
        <pt x="610" y="-13" on="0"/>
        <pt x="543" y="-13" on="1"/>
        <pt x="501" y="-13" on="0"/>
        <pt x="479" y="0" on="0"/>
        <pt x="466" y="30" on="1"/>
        <pt x="323" y="348" on="1"/>
        <pt x="245" y="342" on="0"/>
        <pt x="206" y="342" on="1"/>
        <pt x="206" y="95" on="1"/>
        <pt x="206" y="40" on="0"/>
        <pt x="217" y="40" on="1"/>
        <pt x="280" y="42" on="1"/>
        <pt x="284" y="34" on="0"/>
        <pt x="284" y="23" on="1"/>
        <pt x="284" y="15" on="0"/>
        <pt x="281" y="6" on="1"/>
        <pt x="214" y="-13" on="0"/>
        <pt x="153" y="-13" on="1"/>
        <pt x="107" y="-13" on="0"/>
        <pt x="85" y="1" on="0"/>
        <pt x="86" y="30" on="1"/>
        <pt x="86" y="562" on="1"/>
        <pt x="86" y="577" on="0"/>
        <pt x="103" y="583" on="1"/>
        <pt x="139" y="595" on="0"/>
        <pt x="188" y="595" on="1"/>
        <pt x="206" y="595" on="0"/>
        <pt x="206" y="577" on="1"/>
        <pt x="206" y="389" on="1"/>
        <pt x="317" y="393" on="0"/>
        <pt x="385" y="407" on="1"/>
        <pt x="428" y="415" on="0"/>
        <pt x="456" y="440" on="0"/>
        <pt x="456" y="476" on="1"/>
        <pt x="456" y="564" on="1"/>
        <pt x="456" y="620" on="0"/>
        <pt x="416" y="660" on="0"/>
        <pt x="360" y="660" on="1"/>
        <pt x="269" y="660" on="0"/>
        <pt x="71" y="629" on="0"/>
      </contour>
    </TTGlyph>
    <TTGlyph name="S" xMin="24" yMin="-16" xMax="460" yMax="714">
      <contour>
        <pt x="165" y="610" on="1"/>
        <pt x="165" y="580" on="0"/>
        <pt x="214" y="506" on="1"/>
        <pt x="355" y="300" on="1"/>
        <pt x="356" y="299" on="0"/>
        <pt x="423" y="199" on="0"/>
        <pt x="436" y="174" on="0"/>
        <pt x="453" y="139" on="0"/>
        <pt x="460" y="110" on="0"/>
        <pt x="460" y="97" on="1"/>
        <pt x="456" y="-16" on="0"/>
        <pt x="214" y="-16" on="1"/>
        <pt x="159" y="-16" on="0"/>
        <pt x="30" y="-7" on="1"/>
        <pt x="24" y="7" on="0"/>
        <pt x="24" y="22" on="1"/>
        <pt x="24" y="34" on="0"/>
        <pt x="29" y="48" on="1"/>
        <pt x="104" y="38" on="0"/>
        <pt x="169" y="38" on="1"/>
        <pt x="267" y="38" on="0"/>
        <pt x="330" y="60" on="0"/>
        <pt x="330" y="95" on="1"/>
        <pt x="330" y="124" on="0"/>
        <pt x="283" y="196" on="1"/>
        <pt x="75" y="506" on="1"/>
        <pt x="39" y="561" on="0"/>
        <pt x="41" y="610" on="1"/>
        <pt x="41" y="714" on="0"/>
        <pt x="298" y="714" on="1"/>
        <pt x="356" y="714" on="0"/>
        <pt x="430" y="706" on="1"/>
        <pt x="434" y="692" on="0"/>
        <pt x="433" y="677" on="1"/>
        <pt x="432" y="663" on="0"/>
        <pt x="427" y="650" on="1"/>
        <pt x="376" y="662" on="0"/>
        <pt x="304" y="662" on="1"/>
        <pt x="227" y="662" on="0"/>
        <pt x="165" y="636" on="0"/>
      </contour>
    </TTGlyph>
    <TTGlyph name="T" xMin="-4" yMin="-13" xMax="522" yMax="714">
      <contour>
        <pt x="516" y="706" on="1"/>
        <pt x="522" y="696" on="0"/>
        <pt x="522" y="677" on="1"/>
        <pt x="522" y="663" on="0"/>
        <pt x="518" y="651" on="1"/>
        <pt x="441" y="660" on="0"/>
        <pt x="325" y="659" on="1"/>
        <pt x="325" y="95" on="1"/>
        <pt x="325" y="40" on="0"/>
        <pt x="336" y="40" on="1"/>
        <pt x="399" y="42" on="1"/>
        <pt x="403" y="34" on="0"/>
        <pt x="403" y="23" on="1"/>
        <pt x="403" y="15" on="0"/>
        <pt x="400" y="6" on="1"/>
        <pt x="333" y="-13" on="0"/>
        <pt x="272" y="-13" on="1"/>
        <pt x="226" y="-13" on="0"/>
        <pt x="204" y="1" on="0"/>
        <pt x="205" y="30" on="1"/>
        <pt x="205" y="651" on="1"/>
        <pt x="84" y="642" on="0"/>
        <pt x="2" y="622" on="1"/>
        <pt x="-3" y="634" on="0"/>
        <pt x="-4" y="649" on="1"/>
        <pt x="-4" y="662" on="0"/>
        <pt x="0" y="676" on="1"/>
        <pt x="142" y="714" on="0"/>
        <pt x="335" y="714" on="1"/>
        <pt x="435" y="714" on="0"/>
      </contour>
    </TTGlyph>
    <TTGlyph name="Thorn" xMin="13" yMin="-13" xMax="550" yMax="713">
      <contour>
        <pt x="550" y="428" on="1"/>
        <pt x="550" y="285" on="1"/>
        <pt x="550" y="240" on="0"/>
        <pt x="505" y="191" on="0"/>
        <pt x="457" y="180" on="1"/>
        <pt x="334" y="160" on="0"/>
        <pt x="211" y="156" on="1"/>
        <pt x="211" y="95" on="1"/>
        <pt x="211" y="40" on="0"/>
        <pt x="222" y="40" on="1"/>
        <pt x="285" y="42" on="1"/>
        <pt x="289" y="34" on="0"/>
        <pt x="289" y="23" on="1"/>
        <pt x="289" y="15" on="0"/>
        <pt x="286" y="6" on="1"/>
        <pt x="219" y="-13" on="0"/>
        <pt x="158" y="-13" on="1"/>
        <pt x="112" y="-13" on="0"/>
        <pt x="90" y="1" on="0"/>
        <pt x="91" y="30" on="1"/>
        <pt x="91" y="605" on="1"/>
        <pt x="91" y="660" on="0"/>
        <pt x="80" y="660" on="1"/>
        <pt x="17" y="658" on="1"/>
        <pt x="13" y="666" on="0"/>
        <pt x="13" y="677" on="1"/>
        <pt x="13" y="685" on="0"/>
        <pt x="16" y="694" on="1"/>
        <pt x="83" y="713" on="0"/>
        <pt x="144" y="713" on="1"/>
        <pt x="190" y="713" on="0"/>
        <pt x="212" y="699" on="0"/>
        <pt x="211" y="670" on="1"/>
        <pt x="211" y="555" on="1"/>
        <pt x="302" y="563" on="0"/>
        <pt x="386" y="563" on="1"/>
        <pt x="478" y="563" on="0"/>
        <pt x="550" y="506" on="0"/>
      </contour>
      <contour>
        <pt x="211" y="502" on="1"/>
        <pt x="211" y="203" on="1"/>
        <pt x="311" y="209" on="0"/>
        <pt x="359" y="219" on="1"/>
        <pt x="402" y="228" on="0"/>
        <pt x="430" y="253" on="0"/>
        <pt x="430" y="289" on="1"/>
        <pt x="430" y="414" on="1"/>
        <pt x="430" y="470" on="0"/>
        <pt x="390" y="510" on="0"/>
        <pt x="334" y="510" on="1"/>
        <pt x="275" y="510" on="0"/>
      </contour>
    </TTGlyph>
    <TTGlyph name="U" xMin="13" yMin="-13" xMax="681" yMax="713">
      <contour>
        <pt x="585" y="713" on="1"/>
        <pt x="603" y="713" on="0"/>
        <pt x="603" y="695" on="1"/>
        <pt x="603" y="95" on="1"/>
        <pt x="603" y="40" on="0"/>
        <pt x="614" y="40" on="1"/>
        <pt x="677" y="42" on="1"/>
        <pt x="681" y="34" on="0"/>
        <pt x="681" y="23" on="1"/>
        <pt x="681" y="15" on="0"/>
        <pt x="678" y="6" on="1"/>
        <pt x="611" y="-13" on="0"/>
        <pt x="550" y="-13" on="1"/>
        <pt x="504" y="-13" on="0"/>
        <pt x="482" y="1" on="0"/>
        <pt x="483" y="30" on="1"/>
        <pt x="483" y="36" on="1"/>
        <pt x="344" y="-13" on="0"/>
        <pt x="199" y="-13" on="1"/>
        <pt x="143" y="-13" on="0"/>
        <pt x="91" y="23" on="0"/>
        <pt x="91" y="63" on="1"/>
        <pt x="91" y="605" on="1"/>
        <pt x="91" y="660" on="0"/>
        <pt x="80" y="660" on="1"/>
        <pt x="17" y="658" on="1"/>
        <pt x="13" y="666" on="0"/>
        <pt x="13" y="677" on="1"/>
        <pt x="13" y="685" on="0"/>
        <pt x="16" y="694" on="1"/>
        <pt x="83" y="713" on="0"/>
        <pt x="144" y="713" on="1"/>
        <pt x="190" y="713" on="0"/>
        <pt x="212" y="699" on="0"/>
        <pt x="211" y="670" on="1"/>
        <pt x="211" y="118" on="1"/>
        <pt x="211" y="78" on="0"/>
        <pt x="243" y="53" on="0"/>
        <pt x="289" y="53" on="1"/>
        <pt x="361" y="53" on="0"/>
        <pt x="483" y="86" on="1"/>
        <pt x="483" y="680" on="1"/>
        <pt x="483" y="695" on="0"/>
        <pt x="500" y="701" on="1"/>
        <pt x="536" y="713" on="0"/>
      </contour>
    </TTGlyph>
    <TTGlyph name="Uacute" xMin="13" yMin="-13" xMax="681" yMax="926">
      <component glyphName="U" x="0" y="0" flags="0x204"/>
      <component glyphName="acute.case" x="265" y="0" flags="0x4"/>
    </TTGlyph>
    <TTGlyph name="Ucircumflex" xMin="13" yMin="-13" xMax="681" yMax="924">
      <component glyphName="U" x="0" y="0" flags="0x204"/>
      <component glyphName="circumflex.case" x="176" y="0" flags="0x4"/>
    </TTGlyph>
    <TTGlyph name="Udieresis" xMin="13" yMin="-13" xMax="681" yMax="884">
      <component glyphName="U" x="0" y="0" flags="0x204"/>
      <component glyphName="dieresis.case" x="169" y="0" flags="0x4"/>
    </TTGlyph>
    <TTGlyph name="Ugrave" xMin="13" yMin="-13" xMax="681" yMax="925">
      <component glyphName="U" x="0" y="0" flags="0x204"/>
      <component glyphName="grave.case" x="175" y="0" flags="0x4"/>
    </TTGlyph>
    <TTGlyph name="V" xMin="13" yMin="-14" xMax="603" yMax="713">
      <contour>
        <pt x="603" y="670" on="1"/>
        <pt x="603" y="125" on="1"/>
        <pt x="603" y="98" on="0"/>
        <pt x="582" y="55" on="0"/>
        <pt x="547" y="26" on="0"/>
        <pt x="487" y="6" on="0"/>
        <pt x="427" y="-5" on="0"/>
        <pt x="334" y="-11" on="0"/>
        <pt x="257" y="-13" on="0"/>
        <pt x="199" y="-13" on="1"/>
        <pt x="138" y="-14" on="0"/>
        <pt x="91" y="6" on="0"/>
        <pt x="91" y="43" on="1"/>
        <pt x="91" y="605" on="1"/>
        <pt x="91" y="660" on="0"/>
        <pt x="80" y="660" on="1"/>
        <pt x="17" y="658" on="1"/>
        <pt x="13" y="666" on="0"/>
        <pt x="13" y="677" on="1"/>
        <pt x="13" y="685" on="0"/>
        <pt x="16" y="694" on="1"/>
        <pt x="83" y="713" on="0"/>
        <pt x="144" y="713" on="1"/>
        <pt x="190" y="713" on="0"/>
        <pt x="212" y="699" on="0"/>
        <pt x="211" y="670" on="1"/>
        <pt x="211" y="105" on="1"/>
        <pt x="211" y="65" on="0"/>
        <pt x="243" y="40" on="0"/>
        <pt x="289" y="40" on="1"/>
        <pt x="404" y="40" on="0"/>
        <pt x="483" y="76" on="0"/>
        <pt x="483" y="130" on="1"/>
        <pt x="483" y="605" on="1"/>
        <pt x="483" y="638" on="0"/>
        <pt x="477" y="660" on="0"/>
        <pt x="472" y="660" on="1"/>
        <pt x="409" y="658" on="1"/>
        <pt x="405" y="666" on="0"/>
        <pt x="405" y="677" on="1"/>
        <pt x="405" y="685" on="0"/>
        <pt x="408" y="694" on="1"/>
        <pt x="437" y="702" on="0"/>
        <pt x="499" y="713" on="0"/>
        <pt x="536" y="713" on="1"/>
        <pt x="560" y="713" on="0"/>
        <pt x="586" y="710" on="0"/>
        <pt x="600" y="701" on="0"/>
        <pt x="603" y="684" on="0"/>
      </contour>
    </TTGlyph>
    <TTGlyph name="V.001" xMin="13" yMin="-14" xMax="603" yMax="713">
      <contour>
        <pt x="243" y="616" on="1"/>
        <pt x="237" y="628" on="0"/>
        <pt x="237" y="640" on="1"/>
        <pt x="237" y="653" on="0"/>
        <pt x="241" y="664" on="1"/>
        <pt x="367" y="713" on="0"/>
        <pt x="495" y="713" on="1"/>
        <pt x="551" y="713" on="0"/>
        <pt x="603" y="677" on="0"/>
        <pt x="603" y="637" on="1"/>
        <pt x="603" y="125" on="1"/>
        <pt x="603" y="98" on="0"/>
        <pt x="582" y="55" on="0"/>
        <pt x="547" y="26" on="0"/>
        <pt x="487" y="6" on="0"/>
        <pt x="427" y="-5" on="0"/>
        <pt x="334" y="-11" on="0"/>
        <pt x="257" y="-13" on="0"/>
        <pt x="199" y="-13" on="1"/>
        <pt x="138" y="-14" on="0"/>
        <pt x="91" y="6" on="0"/>
        <pt x="91" y="43" on="1"/>
        <pt x="91" y="605" on="1"/>
        <pt x="91" y="660" on="0"/>
        <pt x="80" y="660" on="1"/>
        <pt x="17" y="658" on="1"/>
        <pt x="13" y="666" on="0"/>
        <pt x="13" y="677" on="1"/>
        <pt x="13" y="685" on="0"/>
        <pt x="16" y="694" on="1"/>
        <pt x="83" y="713" on="0"/>
        <pt x="144" y="713" on="1"/>
        <pt x="190" y="713" on="0"/>
        <pt x="212" y="699" on="0"/>
        <pt x="211" y="670" on="1"/>
        <pt x="211" y="105" on="1"/>
        <pt x="211" y="65" on="0"/>
        <pt x="243" y="40" on="0"/>
        <pt x="289" y="40" on="1"/>
        <pt x="404" y="40" on="0"/>
        <pt x="483" y="76" on="0"/>
        <pt x="483" y="130" on="1"/>
        <pt x="483" y="584" on="1"/>
        <pt x="483" y="624" on="0"/>
        <pt x="451" y="649" on="0"/>
        <pt x="405" y="649" on="1"/>
        <pt x="342" y="649" on="0"/>
      </contour>
    </TTGlyph>
    <TTGlyph name="W" xMin="12" yMin="-13" xMax="884" yMax="713">
      <contour>
        <pt x="884" y="670" on="1"/>
        <pt x="884" y="125" on="1"/>
        <pt x="884" y="79" on="0"/>
        <pt x="837" y="25" on="0"/>
        <pt x="750" y="-4" on="0"/>
        <pt x="625" y="-13" on="0"/>
        <pt x="547" y="-13" on="1"/>
        <pt x="509" y="-13" on="0"/>
        <pt x="450" y="8" on="0"/>
        <pt x="434" y="31" on="1"/>
        <pt x="395" y="13" on="0"/>
        <pt x="290" y="-12" on="0"/>
        <pt x="234" y="-12" on="1"/>
        <pt x="192" y="-12" on="0"/>
        <pt x="137" y="-2" on="0"/>
        <pt x="104" y="23" on="0"/>
        <pt x="90" y="65" on="0"/>
        <pt x="90" y="97" on="1"/>
        <pt x="90" y="605" on="1"/>
        <pt x="90" y="638" on="0"/>
        <pt x="84" y="660" on="0"/>
        <pt x="79" y="660" on="1"/>
        <pt x="16" y="658" on="1"/>
        <pt x="12" y="666" on="0"/>
        <pt x="12" y="677" on="1"/>
        <pt x="12" y="685" on="0"/>
        <pt x="15" y="694" on="1"/>
        <pt x="44" y="702" on="0"/>
        <pt x="106" y="713" on="0"/>
        <pt x="143" y="713" on="1"/>
        <pt x="167" y="713" on="0"/>
        <pt x="193" y="710" on="0"/>
        <pt x="207" y="701" on="0"/>
        <pt x="210" y="684" on="0"/>
        <pt x="210" y="670" on="1"/>
        <pt x="210" y="124" on="1"/>
        <pt x="210" y="82" on="0"/>
        <pt x="232" y="47" on="0"/>
        <pt x="267" y="47" on="1"/>
        <pt x="317" y="47" on="0"/>
        <pt x="391" y="64" on="0"/>
        <pt x="420" y="78" on="1"/>
        <pt x="420" y="605" on="1"/>
        <pt x="420" y="638" on="0"/>
        <pt x="414" y="660" on="0"/>
        <pt x="409" y="660" on="1"/>
        <pt x="346" y="658" on="1"/>
        <pt x="342" y="666" on="0"/>
        <pt x="342" y="677" on="1"/>
        <pt x="342" y="685" on="0"/>
        <pt x="345" y="694" on="1"/>
        <pt x="374" y="702" on="0"/>
        <pt x="436" y="713" on="0"/>
        <pt x="473" y="713" on="1"/>
        <pt x="497" y="713" on="0"/>
        <pt x="523" y="710" on="0"/>
        <pt x="537" y="701" on="0"/>
        <pt x="540" y="684" on="0"/>
        <pt x="540" y="670" on="1"/>
        <pt x="540" y="105" on="1"/>
        <pt x="540" y="85" on="0"/>
        <pt x="547" y="59" on="0"/>
        <pt x="565" y="45" on="0"/>
        <pt x="595" y="40" on="0"/>
        <pt x="618" y="40" on="1"/>
        <pt x="665" y="40" on="0"/>
        <pt x="723" y="48" on="0"/>
        <pt x="754" y="68" on="0"/>
        <pt x="764" y="103" on="0"/>
        <pt x="764" y="130" on="1"/>
        <pt x="764" y="605" on="1"/>
        <pt x="764" y="638" on="0"/>
        <pt x="758" y="660" on="0"/>
        <pt x="753" y="660" on="1"/>
        <pt x="690" y="658" on="1"/>
        <pt x="686" y="666" on="0"/>
        <pt x="686" y="677" on="1"/>
        <pt x="686" y="685" on="0"/>
        <pt x="689" y="694" on="1"/>
        <pt x="718" y="702" on="0"/>
        <pt x="780" y="713" on="0"/>
        <pt x="817" y="713" on="1"/>
        <pt x="841" y="713" on="0"/>
        <pt x="867" y="710" on="0"/>
        <pt x="881" y="701" on="0"/>
        <pt x="884" y="684" on="0"/>
      </contour>
    </TTGlyph>
    <TTGlyph name="W.001" xMin="13" yMin="-13" xMax="885" yMax="714">
      <contour>
        <pt x="555" y="616" on="1"/>
        <pt x="550" y="626" on="0"/>
        <pt x="549" y="638" on="1"/>
        <pt x="549" y="652" on="0"/>
        <pt x="553" y="664" on="1"/>
        <pt x="665" y="713" on="0"/>
        <pt x="777" y="713" on="1"/>
        <pt x="833" y="713" on="0"/>
        <pt x="885" y="677" on="0"/>
        <pt x="885" y="637" on="1"/>
        <pt x="885" y="125" on="1"/>
        <pt x="885" y="93" on="0"/>
        <pt x="861" y="48" on="0"/>
        <pt x="814" y="17" on="0"/>
        <pt x="751" y="-1" on="0"/>
        <pt x="657" y="-11" on="0"/>
        <pt x="576" y="-13" on="0"/>
        <pt x="514" y="-13" on="1"/>
        <pt x="458" y="-13" on="0"/>
        <pt x="406" y="23" on="0"/>
        <pt x="406" y="63" on="1"/>
        <pt x="406" y="582" on="1"/>
        <pt x="406" y="623" on="0"/>
        <pt x="379" y="647" on="0"/>
        <pt x="334" y="647" on="1"/>
        <pt x="286" y="647" on="0"/>
        <pt x="211" y="616" on="1"/>
        <pt x="211" y="95" on="1"/>
        <pt x="211" y="40" on="0"/>
        <pt x="222" y="40" on="1"/>
        <pt x="285" y="42" on="1"/>
        <pt x="289" y="34" on="0"/>
        <pt x="289" y="23" on="1"/>
        <pt x="289" y="15" on="0"/>
        <pt x="286" y="6" on="1"/>
        <pt x="219" y="-13" on="0"/>
        <pt x="158" y="-13" on="1"/>
        <pt x="112" y="-13" on="0"/>
        <pt x="90" y="1" on="0"/>
        <pt x="91" y="30" on="1"/>
        <pt x="91" y="605" on="1"/>
        <pt x="91" y="660" on="0"/>
        <pt x="80" y="660" on="1"/>
        <pt x="17" y="658" on="1"/>
        <pt x="13" y="666" on="0"/>
        <pt x="13" y="677" on="1"/>
        <pt x="13" y="685" on="0"/>
        <pt x="16" y="694" on="1"/>
        <pt x="83" y="713" on="0"/>
        <pt x="144" y="713" on="1"/>
        <pt x="190" y="713" on="0"/>
        <pt x="212" y="699" on="0"/>
        <pt x="211" y="670" on="1"/>
        <pt x="211" y="666" on="1"/>
        <pt x="321" y="714" on="0"/>
        <pt x="418" y="713" on="1"/>
        <pt x="474" y="713" on="0"/>
        <pt x="526" y="677" on="0"/>
        <pt x="526" y="637" on="1"/>
        <pt x="526" y="105" on="1"/>
        <pt x="526" y="65" on="0"/>
        <pt x="558" y="40" on="0"/>
        <pt x="604" y="40" on="1"/>
        <pt x="699" y="40" on="0"/>
        <pt x="765" y="76" on="0"/>
        <pt x="765" y="130" on="1"/>
        <pt x="765" y="582" on="1"/>
        <pt x="765" y="623" on="0"/>
        <pt x="740" y="647" on="0"/>
        <pt x="696" y="647" on="1"/>
        <pt x="640" y="647" on="0"/>
      </contour>
    </TTGlyph>
    <TTGlyph name="X" xMin="-8" yMin="-15" xMax="619" yMax="713">
      <contour>
        <pt x="214" y="670" on="1"/>
        <pt x="332" y="430" on="1"/>
        <pt x="491" y="706" on="1"/>
        <pt x="510" y="713" on="0"/>
        <pt x="526" y="713" on="1"/>
        <pt x="548" y="713" on="0"/>
        <pt x="561" y="705" on="1"/>
        <pt x="365" y="363" on="1"/>
        <pt x="497" y="95" on="1"/>
        <pt x="513" y="65" on="0"/>
        <pt x="534" y="40" on="0"/>
        <pt x="546" y="40" on="1"/>
        <pt x="615" y="42" on="1"/>
        <pt x="619" y="28" on="0"/>
        <pt x="619" y="22" on="1"/>
        <pt x="619" y="14" on="0"/>
        <pt x="616" y="6" on="1"/>
        <pt x="549" y="-13" on="0"/>
        <pt x="482" y="-13" on="1"/>
        <pt x="436" y="-13" on="0"/>
        <pt x="408" y="1" on="0"/>
        <pt x="395" y="30" on="1"/>
        <pt x="273" y="277" on="1"/>
        <pt x="109" y="-8" on="1"/>
        <pt x="90" y="-15" on="0"/>
        <pt x="74" y="-15" on="1"/>
        <pt x="52" y="-15" on="0"/>
        <pt x="39" y="-7" on="1"/>
        <pt x="240" y="344" on="1"/>
        <pt x="112" y="605" on="1"/>
        <pt x="86" y="660" on="0"/>
        <pt x="65" y="660" on="1"/>
        <pt x="-4" y="658" on="1"/>
        <pt x="-8" y="672" on="0"/>
        <pt x="-8" y="678" on="1"/>
        <pt x="-8" y="686" on="0"/>
        <pt x="-5" y="694" on="1"/>
        <pt x="62" y="713" on="0"/>
        <pt x="129" y="713" on="1"/>
        <pt x="172" y="713" on="0"/>
        <pt x="199" y="699" on="0"/>
      </contour>
    </TTGlyph>
    <TTGlyph name="Y" xMin="13" yMin="-240" xMax="603" yMax="713">
      <contour>
        <pt x="121" y="-183" on="1"/>
        <pt x="178" y="-189" on="0"/>
        <pt x="233" y="-189" on="1"/>
        <pt x="330" y="-189" on="0"/>
        <pt x="433" y="-167" on="1"/>
        <pt x="484" y="-157" on="0"/>
        <pt x="483" y="-97" on="1"/>
        <pt x="483" y="36" on="1"/>
        <pt x="344" y="-13" on="0"/>
        <pt x="199" y="-13" on="1"/>
        <pt x="143" y="-13" on="0"/>
        <pt x="91" y="23" on="0"/>
        <pt x="91" y="63" on="1"/>
        <pt x="91" y="605" on="1"/>
        <pt x="91" y="660" on="0"/>
        <pt x="80" y="660" on="1"/>
        <pt x="17" y="658" on="1"/>
        <pt x="13" y="666" on="0"/>
        <pt x="13" y="677" on="1"/>
        <pt x="13" y="685" on="0"/>
        <pt x="16" y="694" on="1"/>
        <pt x="83" y="713" on="0"/>
        <pt x="144" y="713" on="1"/>
        <pt x="190" y="713" on="0"/>
        <pt x="212" y="699" on="0"/>
        <pt x="211" y="670" on="1"/>
        <pt x="211" y="118" on="1"/>
        <pt x="211" y="78" on="0"/>
        <pt x="243" y="53" on="0"/>
        <pt x="289" y="53" on="1"/>
        <pt x="361" y="53" on="0"/>
        <pt x="483" y="86" on="1"/>
        <pt x="483" y="680" on="1"/>
        <pt x="483" y="695" on="0"/>
        <pt x="500" y="701" on="1"/>
        <pt x="536" y="713" on="0"/>
        <pt x="585" y="713" on="1"/>
        <pt x="603" y="713" on="0"/>
        <pt x="603" y="695" on="1"/>
        <pt x="603" y="-102" on="1"/>
        <pt x="603" y="-193" on="0"/>
        <pt x="493" y="-216" on="1"/>
        <pt x="383" y="-240" on="0"/>
        <pt x="241" y="-240" on="1"/>
        <pt x="169" y="-240" on="0"/>
        <pt x="123" y="-235" on="1"/>
        <pt x="117" y="-224" on="0"/>
        <pt x="117" y="-210" on="1"/>
        <pt x="117" y="-198" on="0"/>
      </contour>
    </TTGlyph>
    <TTGlyph name="Yacute" xMin="13" yMin="-240" xMax="603" yMax="926">
      <component glyphName="Y" x="0" y="0" flags="0x204"/>
      <component glyphName="acute.case" x="256" y="0" flags="0x4"/>
    </TTGlyph>
    <TTGlyph name="Z" xMin="25" yMin="-12" xMax="545" yMax="714">
      <contour>
        <pt x="539" y="87" on="1"/>
        <pt x="545" y="72" on="0"/>
        <pt x="545" y="58" on="1"/>
        <pt x="545" y="44" on="0"/>
        <pt x="541" y="33" on="1"/>
        <pt x="373" y="-12" on="0"/>
        <pt x="213" y="-12" on="1"/>
        <pt x="157" y="-12" on="0"/>
        <pt x="66" y="-9" on="0"/>
        <pt x="31" y="-5" on="1"/>
        <pt x="25" y="16" on="0"/>
        <pt x="25" y="26" on="1"/>
        <pt x="25" y="37" on="0"/>
        <pt x="30" y="47" on="1"/>
        <pt x="383" y="655" on="1"/>
        <pt x="342" y="658" on="0"/>
        <pt x="309" y="658" on="1"/>
        <pt x="208" y="659" on="0"/>
        <pt x="61" y="617" on="1"/>
        <pt x="54" y="631" on="0"/>
        <pt x="54" y="647" on="1"/>
        <pt x="54" y="657" on="0"/>
        <pt x="57" y="668" on="1"/>
        <pt x="177" y="714" on="0"/>
        <pt x="324" y="714" on="1"/>
        <pt x="416" y="714" on="0"/>
        <pt x="516" y="694" on="1"/>
        <pt x="521" y="682" on="0"/>
        <pt x="521" y="665" on="1"/>
        <pt x="521" y="653" on="0"/>
        <pt x="515" y="643" on="1"/>
        <pt x="177" y="44" on="1"/>
        <pt x="185" y="44" on="1"/>
        <pt x="394" y="45" on="0"/>
      </contour>
    </TTGlyph>
    <TTGlyph name="a" xMin="46" yMin="-13" xMax="543" yMax="514">
      <contour>
        <pt x="540" y="6" on="1"/>
        <pt x="474" y="-13" on="0"/>
        <pt x="405" y="-13" on="1"/>
        <pt x="366" y="-13" on="0"/>
        <pt x="345" y="-2" on="0"/>
        <pt x="345" y="20" on="1"/>
        <pt x="229" y="-13" on="0"/>
        <pt x="147" y="-13" on="1"/>
        <pt x="92" y="-13" on="0"/>
        <pt x="46" y="21" on="0"/>
        <pt x="46" y="63" on="1"/>
        <pt x="46" y="203" on="1"/>
        <pt x="46" y="246" on="0"/>
        <pt x="89" y="292" on="0"/>
        <pt x="134" y="302" on="1"/>
        <pt x="192" y="311" on="0"/>
        <pt x="297" y="322" on="0"/>
        <pt x="345" y="324" on="1"/>
        <pt x="345" y="402" on="1"/>
        <pt x="345" y="440" on="0"/>
        <pt x="315" y="464" on="0"/>
        <pt x="271" y="464" on="1"/>
        <pt x="252" y="464" on="0"/>
        <pt x="190" y="455" on="0"/>
        <pt x="127" y="444" on="0"/>
        <pt x="73" y="432" on="0"/>
        <pt x="63" y="429" on="1"/>
        <pt x="58" y="439" on="0"/>
        <pt x="58" y="454" on="1"/>
        <pt x="58" y="467" on="0"/>
        <pt x="62" y="474" on="1"/>
        <pt x="191" y="514" on="0"/>
        <pt x="356" y="514" on="1"/>
        <pt x="410" y="514" on="0"/>
        <pt x="459" y="480" on="0"/>
        <pt x="459" y="441" on="1"/>
        <pt x="459" y="95" on="1"/>
        <pt x="459" y="40" on="0"/>
        <pt x="470" y="40" on="1"/>
        <pt x="539" y="42" on="1"/>
        <pt x="543" y="35" on="0"/>
        <pt x="543" y="23" on="1"/>
        <pt x="543" y="15" on="0"/>
      </contour>
      <contour>
        <pt x="345" y="65" on="1"/>
        <pt x="345" y="279" on="1"/>
        <pt x="318" y="278" on="0"/>
        <pt x="264" y="272" on="0"/>
        <pt x="217" y="263" on="0"/>
        <pt x="181" y="251" on="0"/>
        <pt x="173" y="244" on="1"/>
        <pt x="160" y="234" on="0"/>
        <pt x="160" y="199" on="1"/>
        <pt x="160" y="88" on="1"/>
        <pt x="160" y="43" on="0"/>
        <pt x="223" y="43" on="1"/>
        <pt x="269" y="43" on="0"/>
      </contour>
    </TTGlyph>
    <TTGlyph name="aacute" xMin="46" yMin="-13" xMax="543" yMax="736">
      <component glyphName="a" x="0" y="0" flags="0x204"/>
      <component glyphName="acute" x="181" y="0" flags="0x4"/>
    </TTGlyph>
    <TTGlyph name="acircumflex" xMin="46" yMin="-13" xMax="543" yMax="739">
      <component glyphName="a" x="0" y="0" flags="0x204"/>
      <component glyphName="circumflex" x="102" y="0" flags="0x4"/>
    </TTGlyph>
    <TTGlyph name="acute" xMin="22" yMin="561" xMax="222" yMax="736">
      <contour>
        <pt x="150" y="728" on="1"/>
        <pt x="158" y="736" on="0"/>
        <pt x="166" y="736" on="1"/>
        <pt x="173" y="736" on="0"/>
        <pt x="192" y="720" on="0"/>
        <pt x="210" y="698" on="0"/>
        <pt x="222" y="674" on="0"/>
        <pt x="222" y="666" on="1"/>
        <pt x="222" y="657" on="0"/>
        <pt x="178" y="626" on="0"/>
        <pt x="121" y="593" on="0"/>
        <pt x="58" y="561" on="0"/>
        <pt x="49" y="562" on="1"/>
        <pt x="40" y="562" on="0"/>
        <pt x="22" y="587" on="0"/>
        <pt x="22" y="593" on="1"/>
        <pt x="22" y="598" on="0"/>
        <pt x="26" y="601" on="1"/>
        <pt x="101" y="671" on="0"/>
      </contour>
    </TTGlyph>
    <TTGlyph name="acute.case" xMin="22" yMin="751" xMax="222" yMax="926">
      <contour>
        <pt x="150" y="918" on="1"/>
        <pt x="158" y="926" on="0"/>
        <pt x="166" y="926" on="1"/>
        <pt x="173" y="926" on="0"/>
        <pt x="192" y="910" on="0"/>
        <pt x="210" y="888" on="0"/>
        <pt x="222" y="864" on="0"/>
        <pt x="222" y="856" on="1"/>
        <pt x="222" y="847" on="0"/>
        <pt x="178" y="816" on="0"/>
        <pt x="121" y="783" on="0"/>
        <pt x="58" y="751" on="0"/>
        <pt x="49" y="752" on="1"/>
        <pt x="40" y="752" on="0"/>
        <pt x="22" y="777" on="0"/>
        <pt x="22" y="783" on="1"/>
        <pt x="22" y="788" on="0"/>
        <pt x="26" y="791" on="1"/>
        <pt x="101" y="861" on="0"/>
      </contour>
    </TTGlyph>
    <TTGlyph name="adieresis" xMin="46" yMin="-13" xMax="543" yMax="709">
      <component glyphName="a" x="0" y="0" flags="0x204"/>
      <component glyphName="dieresis" x="94" y="0" flags="0x4"/>
    </TTGlyph>
    <TTGlyph name="ae" xMin="46" yMin="-13" xMax="749" yMax="514">
      <contour>
        <pt x="530" y="37" on="1"/>
        <pt x="577" y="37" on="0"/>
        <pt x="716" y="60" on="0"/>
        <pt x="741" y="67" on="1"/>
        <pt x="746" y="58" on="0"/>
        <pt x="746" y="42" on="1"/>
        <pt x="746" y="30" on="0"/>
        <pt x="742" y="22" on="1"/>
        <pt x="610" y="-13" on="0"/>
        <pt x="448" y="-13" on="1"/>
        <pt x="372" y="-13" on="0"/>
        <pt x="353" y="22" on="1"/>
        <pt x="230" y="-13" on="0"/>
        <pt x="147" y="-13" on="1"/>
        <pt x="92" y="-13" on="0"/>
        <pt x="46" y="22" on="0"/>
        <pt x="46" y="63" on="1"/>
        <pt x="46" y="203" on="1"/>
        <pt x="46" y="246" on="0"/>
        <pt x="89" y="292" on="0"/>
        <pt x="134" y="302" on="1"/>
        <pt x="250" y="320" on="0"/>
        <pt x="345" y="324" on="1"/>
        <pt x="345" y="402" on="1"/>
        <pt x="345" y="440" on="0"/>
        <pt x="315" y="464" on="0"/>
        <pt x="271" y="464" on="1"/>
        <pt x="227" y="464" on="0"/>
        <pt x="88" y="437" on="0"/>
        <pt x="63" y="429" on="1"/>
        <pt x="58" y="438" on="0"/>
        <pt x="58" y="454" on="1"/>
        <pt x="58" y="466" on="0"/>
        <pt x="62" y="474" on="1"/>
        <pt x="193" y="514" on="0"/>
        <pt x="356" y="514" on="1"/>
        <pt x="407" y="514" on="0"/>
        <pt x="433" y="497" on="1"/>
        <pt x="497" y="514" on="0"/>
        <pt x="619" y="514" on="1"/>
        <pt x="693" y="514" on="0"/>
        <pt x="749" y="469" on="0"/>
        <pt x="749" y="406" on="1"/>
        <pt x="749" y="335" on="1"/>
        <pt x="749" y="292" on="0"/>
        <pt x="706" y="246" on="0"/>
        <pt x="661" y="236" on="1"/>
        <pt x="554" y="219" on="0"/>
        <pt x="459" y="213" on="1"/>
        <pt x="459" y="99" on="1"/>
        <pt x="459" y="61" on="0"/>
        <pt x="489" y="37" on="0"/>
      </contour>
      <contour>
        <pt x="345" y="65" on="1"/>
        <pt x="345" y="279" on="1"/>
        <pt x="281" y="276" on="0"/>
        <pt x="227" y="265" on="1"/>
        <pt x="186" y="256" on="0"/>
        <pt x="160" y="233" on="0"/>
        <pt x="160" y="199" on="1"/>
        <pt x="160" y="88" on="1"/>
        <pt x="160" y="43" on="0"/>
        <pt x="223" y="43" on="1"/>
        <pt x="267" y="43" on="0"/>
      </contour>
      <contour>
        <pt x="459" y="399" on="1"/>
        <pt x="459" y="259" on="1"/>
        <pt x="531" y="265" on="0"/>
        <pt x="568" y="273" on="1"/>
        <pt x="608" y="281" on="0"/>
        <pt x="635" y="305" on="0"/>
        <pt x="635" y="338" on="1"/>
        <pt x="635" y="399" on="1"/>
        <pt x="635" y="441" on="0"/>
        <pt x="609" y="472" on="0"/>
        <pt x="577" y="472" on="1"/>
        <pt x="503" y="472" on="0"/>
        <pt x="459" y="439" on="0"/>
      </contour>
    </TTGlyph>
    <TTGlyph name="agrave" xMin="46" yMin="-13" xMax="543" yMax="736">
      <component glyphName="a" x="0" y="0" flags="0x204"/>
      <component glyphName="grave" x="111" y="0" flags="0x4"/>
    </TTGlyph>
    <TTGlyph name="ampersand" xMin="4" yMin="-15" xMax="630" yMax="709">
      <contour>
        <pt x="410" y="30" on="1"/>
        <pt x="378" y="80" on="1"/>
        <pt x="303" y="29" on="1"/>
        <pt x="238" y="-15" on="0"/>
        <pt x="181" y="-15" on="1"/>
        <pt x="111" y="-15" on="0"/>
        <pt x="72" y="52" on="1"/>
        <pt x="23" y="137" on="1"/>
        <pt x="4" y="170" on="0"/>
        <pt x="4" y="197" on="1"/>
        <pt x="4" y="237" on="0"/>
        <pt x="85" y="322" on="0"/>
        <pt x="179" y="386" on="1"/>
        <pt x="128" y="466" on="1"/>
        <pt x="112" y="494" on="0"/>
        <pt x="112" y="520" on="1"/>
        <pt x="112" y="560" on="0"/>
        <pt x="184" y="635" on="0"/>
        <pt x="257" y="678" on="1"/>
        <pt x="309" y="708" on="0"/>
        <pt x="338" y="708" on="1"/>
        <pt x="383" y="709" on="0"/>
        <pt x="422" y="642" on="1"/>
        <pt x="453" y="590" on="0"/>
        <pt x="453" y="556" on="1"/>
        <pt x="453" y="517" on="0"/>
        <pt x="409" y="484" on="1"/>
        <pt x="294" y="397" on="1"/>
        <pt x="432" y="184" on="1"/>
        <pt x="595" y="295" on="1"/>
        <pt x="624" y="286" on="0"/>
        <pt x="626" y="259" on="1"/>
        <pt x="462" y="138" on="1"/>
        <pt x="482" y="108" on="1"/>
        <pt x="527" y="38" on="0"/>
        <pt x="552" y="40" on="1"/>
        <pt x="621" y="42" on="1"/>
        <pt x="630" y="25" on="0"/>
        <pt x="622" y="6" on="1"/>
        <pt x="555" y="-13" on="0"/>
        <pt x="488" y="-13" on="1"/>
        <pt x="455" y="-13" on="0"/>
        <pt x="428" y="2" on="0"/>
      </contour>
      <contour>
        <pt x="316" y="101" on="1"/>
        <pt x="350" y="124" on="1"/>
        <pt x="208" y="343" on="1"/>
        <pt x="155" y="309" on="0"/>
        <pt x="111" y="262" on="0"/>
        <pt x="111" y="239" on="1"/>
        <pt x="111" y="220" on="0"/>
        <pt x="127" y="193" on="1"/>
        <pt x="166" y="126" on="1"/>
        <pt x="199" y="70" on="0"/>
        <pt x="239" y="70" on="1"/>
        <pt x="270" y="70" on="0"/>
      </contour>
      <contour>
        <pt x="242" y="603" on="1"/>
        <pt x="208" y="580" on="0"/>
        <pt x="208" y="553" on="1"/>
        <pt x="208" y="536" on="0"/>
        <pt x="220" y="515" on="1"/>
        <pt x="265" y="444" on="1"/>
        <pt x="312" y="476" on="1"/>
        <pt x="364" y="512" on="0"/>
        <pt x="364" y="547" on="1"/>
        <pt x="364" y="565" on="0"/>
        <pt x="353" y="583" on="1"/>
        <pt x="338" y="609" on="0"/>
        <pt x="316" y="630" on="0"/>
        <pt x="303" y="630" on="1"/>
        <pt x="282" y="630" on="0"/>
      </contour>
    </TTGlyph>
    <TTGlyph name="aring" xMin="46" yMin="-13" xMax="543" yMax="739">
      <component glyphName="a" x="0" y="0" flags="0x204"/>
      <component glyphName="ring" x="134" y="0" flags="0x4"/>
    </TTGlyph>
    <TTGlyph name="asciicircum" xMin="52" yMin="493" xMax="440" yMax="700">
      <contour>
        <pt x="246" y="618" on="1"/>
        <pt x="169" y="554" on="0"/>
        <pt x="100" y="493" on="0"/>
        <pt x="94" y="493" on="1"/>
        <pt x="88" y="493" on="0"/>
        <pt x="63" y="506" on="0"/>
        <pt x="59" y="511" on="1"/>
        <pt x="56" y="514" on="0"/>
        <pt x="52" y="522" on="0"/>
        <pt x="55" y="525" on="1"/>
        <pt x="212" y="692" on="1"/>
        <pt x="217" y="697" on="0"/>
        <pt x="241" y="700" on="0"/>
        <pt x="246" y="700" on="1"/>
        <pt x="251" y="700" on="0"/>
        <pt x="275" y="697" on="0"/>
        <pt x="280" y="692" on="1"/>
        <pt x="437" y="525" on="1"/>
        <pt x="440" y="522" on="0"/>
        <pt x="437" y="515" on="0"/>
        <pt x="433" y="511" on="1"/>
        <pt x="425" y="502" on="0"/>
        <pt x="404" y="493" on="0"/>
        <pt x="398" y="493" on="1"/>
        <pt x="392" y="493" on="0"/>
        <pt x="323" y="554" on="0"/>
      </contour>
    </TTGlyph>
    <TTGlyph name="asciitilde" xMin="43" yMin="249" xMax="455" yMax="403">
      <contour>
        <pt x="84" y="256" on="1"/>
        <pt x="68" y="260" on="0"/>
        <pt x="58" y="267" on="1"/>
        <pt x="49" y="272" on="0"/>
        <pt x="43" y="284" on="1"/>
        <pt x="96" y="403" on="0"/>
        <pt x="177" y="403" on="1"/>
        <pt x="213" y="403" on="0"/>
        <pt x="297" y="350" on="0"/>
        <pt x="321" y="350" on="1"/>
        <pt x="352" y="350" on="0"/>
        <pt x="403" y="372" on="0"/>
        <pt x="414" y="396" on="1"/>
        <pt x="425" y="394" on="0"/>
        <pt x="440" y="385" on="1"/>
        <pt x="451" y="378" on="0"/>
        <pt x="455" y="368" on="1"/>
        <pt x="403" y="249" on="0"/>
        <pt x="321" y="249" on="1"/>
        <pt x="285" y="249" on="0"/>
        <pt x="197" y="303" on="0"/>
        <pt x="177" y="303" on="1"/>
        <pt x="152" y="303" on="0"/>
        <pt x="96" y="280" on="0"/>
      </contour>
    </TTGlyph>
    <TTGlyph name="asterisk" xMin="38" yMin="338" xMax="441" yMax="777">
      <contour>
        <pt x="386" y="439" on="1"/>
        <pt x="269" y="506" on="1"/>
        <pt x="269" y="373" on="1"/>
        <pt x="269" y="356" on="0"/>
        <pt x="262" y="344" on="0"/>
        <pt x="249" y="342" on="1"/>
        <pt x="228" y="339" on="1"/>
        <pt x="217" y="338" on="0"/>
        <pt x="210" y="352" on="0"/>
        <pt x="210" y="371" on="1"/>
        <pt x="210" y="506" on="1"/>
        <pt x="94" y="440" on="1"/>
        <pt x="80" y="431" on="0"/>
        <pt x="66" y="431" on="0"/>
        <pt x="58" y="442" on="1"/>
        <pt x="45" y="458" on="1"/>
        <pt x="38" y="467" on="0"/>
        <pt x="47" y="480" on="0"/>
        <pt x="63" y="490" on="1"/>
        <pt x="180" y="557" on="1"/>
        <pt x="65" y="624" on="1"/>
        <pt x="50" y="633" on="0"/>
        <pt x="43" y="645" on="0"/>
        <pt x="48" y="657" on="1"/>
        <pt x="56" y="677" on="1"/>
        <pt x="61" y="687" on="0"/>
        <pt x="76" y="686" on="0"/>
        <pt x="93" y="676" on="1"/>
        <pt x="210" y="608" on="1"/>
        <pt x="210" y="742" on="1"/>
        <pt x="210" y="759" on="0"/>
        <pt x="217" y="771" on="0"/>
        <pt x="230" y="773" on="1"/>
        <pt x="251" y="776" on="1"/>
        <pt x="262" y="777" on="0"/>
        <pt x="269" y="763" on="0"/>
        <pt x="269" y="744" on="1"/>
        <pt x="269" y="608" on="1"/>
        <pt x="385" y="675" on="1"/>
        <pt x="399" y="684" on="0"/>
        <pt x="413" y="684" on="0"/>
        <pt x="421" y="673" on="1"/>
        <pt x="434" y="657" on="1"/>
        <pt x="441" y="648" on="0"/>
        <pt x="432" y="635" on="0"/>
        <pt x="416" y="625" on="1"/>
        <pt x="298" y="557" on="1"/>
        <pt x="414" y="491" on="1"/>
        <pt x="429" y="482" on="0"/>
        <pt x="436" y="470" on="0"/>
        <pt x="431" y="458" on="1"/>
        <pt x="423" y="438" on="1"/>
        <pt x="418" y="428" on="0"/>
        <pt x="403" y="429" on="0"/>
      </contour>
    </TTGlyph>
    <TTGlyph name="at" xMin="76" yMin="-107" xMax="790" yMax="664">
      <contour>
        <pt x="619" y="-10" on="1"/>
        <pt x="625" y="-20" on="0"/>
        <pt x="625" y="-36" on="1"/>
        <pt x="625" y="-49" on="0"/>
        <pt x="621" y="-60" on="1"/>
        <pt x="458" y="-107" on="0"/>
        <pt x="240" y="-107" on="1"/>
        <pt x="148" y="-107" on="0"/>
        <pt x="76" y="-50" on="0"/>
        <pt x="76" y="28" on="1"/>
        <pt x="76" y="526" on="1"/>
        <pt x="76" y="603" on="0"/>
        <pt x="298" y="664" on="0"/>
        <pt x="542" y="664" on="1"/>
        <pt x="634" y="664" on="0"/>
        <pt x="706" y="607" on="0"/>
        <pt x="706" y="529" on="1"/>
        <pt x="706" y="195" on="1"/>
        <pt x="706" y="140" on="0"/>
        <pt x="717" y="140" on="1"/>
        <pt x="786" y="142" on="1"/>
        <pt x="790" y="134" on="0"/>
        <pt x="790" y="123" on="1"/>
        <pt x="790" y="115" on="0"/>
        <pt x="787" y="106" on="1"/>
        <pt x="720" y="87" on="0"/>
        <pt x="652" y="87" on="1"/>
        <pt x="613" y="87" on="0"/>
        <pt x="593" y="98" on="0"/>
        <pt x="592" y="120" on="1"/>
        <pt x="477" y="87" on="0"/>
        <pt x="394" y="87" on="1"/>
        <pt x="339" y="87" on="0"/>
        <pt x="293" y="122" on="0"/>
        <pt x="293" y="163" on="1"/>
        <pt x="293" y="303" on="1"/>
        <pt x="293" y="346" on="0"/>
        <pt x="336" y="392" on="0"/>
        <pt x="381" y="402" on="1"/>
        <pt x="497" y="420" on="0"/>
        <pt x="592" y="424" on="1"/>
        <pt x="592" y="515" on="1"/>
        <pt x="592" y="570" on="0"/>
        <pt x="547" y="611" on="0"/>
        <pt x="490" y="611" on="1"/>
        <pt x="364" y="611" on="0"/>
        <pt x="230" y="589" on="0"/>
        <pt x="190" y="553" on="0"/>
        <pt x="190" y="521" on="1"/>
        <pt x="190" y="42" on="1"/>
        <pt x="190" y="-13" on="0"/>
        <pt x="235" y="-54" on="0"/>
        <pt x="292" y="-54" on="1"/>
        <pt x="383" y="-54" on="0"/>
        <pt x="581" y="-23" on="0"/>
      </contour>
      <contour>
        <pt x="592" y="165" on="1"/>
        <pt x="592" y="379" on="1"/>
        <pt x="528" y="376" on="0"/>
        <pt x="474" y="365" on="1"/>
        <pt x="433" y="356" on="0"/>
        <pt x="407" y="333" on="0"/>
        <pt x="407" y="299" on="1"/>
        <pt x="407" y="188" on="1"/>
        <pt x="407" y="143" on="0"/>
        <pt x="470" y="143" on="1"/>
        <pt x="514" y="143" on="0"/>
      </contour>
    </TTGlyph>
    <TTGlyph name="atilde" xMin="46" yMin="-13" xMax="543" yMax="707">
      <component glyphName="a" x="0" y="0" flags="0x204"/>
      <component glyphName="tilde" x="70" y="0" flags="0x4"/>
    </TTGlyph>
    <TTGlyph name="b" xMin="-14" yMin="-12" xMax="494" yMax="713">
      <contour>
        <pt x="59" y="660" on="1"/>
        <pt x="-10" y="658" on="1"/>
        <pt x="-14" y="666" on="0"/>
        <pt x="-14" y="677" on="1"/>
        <pt x="-14" y="685" on="0"/>
        <pt x="-11" y="694" on="1"/>
        <pt x="56" y="713" on="0"/>
        <pt x="124" y="713" on="1"/>
        <pt x="166" y="713" on="0"/>
        <pt x="185" y="699" on="0"/>
        <pt x="184" y="670" on="1"/>
        <pt x="184" y="471" on="1"/>
        <pt x="195" y="474" on="0"/>
        <pt x="327" y="510" on="0"/>
        <pt x="374" y="514" on="0"/>
        <pt x="393" y="514" on="1"/>
        <pt x="448" y="514" on="0"/>
        <pt x="494" y="479" on="0"/>
        <pt x="494" y="438" on="1"/>
        <pt x="494" y="99" on="1"/>
        <pt x="494" y="38" on="0"/>
        <pt x="355" y="-12" on="0"/>
        <pt x="202" y="-12" on="1"/>
        <pt x="128" y="-12" on="0"/>
        <pt x="70" y="34" on="0"/>
        <pt x="70" y="97" on="1"/>
        <pt x="70" y="605" on="1"/>
        <pt x="70" y="660" on="0"/>
      </contour>
      <contour>
        <pt x="184" y="426" on="1"/>
        <pt x="184" y="108" on="1"/>
        <pt x="184" y="63" on="0"/>
        <pt x="208" y="31" on="0"/>
        <pt x="244" y="31" on="1"/>
        <pt x="323" y="31" on="0"/>
        <pt x="381" y="61" on="0"/>
        <pt x="380" y="103" on="1"/>
        <pt x="380" y="413" on="1"/>
        <pt x="380" y="454" on="0"/>
        <pt x="324" y="454" on="1"/>
        <pt x="281" y="454" on="0"/>
      </contour>
    </TTGlyph>
    <TTGlyph name="backslash" xMin="30" yMin="-161" xMax="355" yMax="772">
      <contour>
        <pt x="113" y="764" on="1"/>
        <pt x="355" y="-152" on="1"/>
        <pt x="334" y="-161" on="0"/>
        <pt x="298" y="-161" on="0"/>
        <pt x="273" y="-152" on="1"/>
        <pt x="30" y="764" on="1"/>
        <pt x="54" y="772" on="0"/>
        <pt x="72" y="772" on="1"/>
        <pt x="87" y="772" on="0"/>
      </contour>
    </TTGlyph>
    <TTGlyph name="bar" xMin="74" yMin="-158" xMax="150" yMax="772">
      <contour>
        <pt x="74" y="-152" on="1"/>
        <pt x="74" y="764" on="1"/>
        <pt x="96" y="772" on="0"/>
        <pt x="112" y="772" on="1"/>
        <pt x="126" y="772" on="0"/>
        <pt x="150" y="764" on="1"/>
        <pt x="150" y="-152" on="1"/>
        <pt x="128" y="-158" on="0"/>
        <pt x="112" y="-158" on="1"/>
        <pt x="95" y="-158" on="0"/>
      </contour>
    </TTGlyph>
    <TTGlyph name="braceleft" xMin="-3" yMin="-137" xMax="286" yMax="770">
      <contour>
        <pt x="121" y="443" on="1"/>
        <pt x="121" y="659" on="1"/>
        <pt x="121" y="699" on="0"/>
        <pt x="141" y="748" on="0"/>
        <pt x="184" y="766" on="0"/>
        <pt x="230" y="770" on="0"/>
        <pt x="281" y="770" on="1"/>
        <pt x="286" y="755" on="0"/>
        <pt x="286" y="745" on="1"/>
        <pt x="286" y="733" on="0"/>
        <pt x="282" y="725" on="1"/>
        <pt x="241" y="725" on="0"/>
        <pt x="212" y="693" on="0"/>
        <pt x="213" y="655" on="1"/>
        <pt x="213" y="441" on="1"/>
        <pt x="212" y="337" on="0"/>
        <pt x="112" y="318" on="1"/>
        <pt x="112" y="317" on="1"/>
        <pt x="213" y="298" on="0"/>
        <pt x="213" y="193" on="1"/>
        <pt x="213" y="-22" on="1"/>
        <pt x="212" y="-60" on="0"/>
        <pt x="241" y="-92" on="0"/>
        <pt x="282" y="-92" on="1"/>
        <pt x="286" y="-100" on="0"/>
        <pt x="286" y="-112" on="1"/>
        <pt x="286" y="-122" on="0"/>
        <pt x="281" y="-137" on="1"/>
        <pt x="230" y="-137" on="0"/>
        <pt x="179" y="-132" on="0"/>
        <pt x="139" y="-112" on="0"/>
        <pt x="121" y="-66" on="0"/>
        <pt x="121" y="-26" on="1"/>
        <pt x="121" y="190" on="1"/>
        <pt x="121" y="248" on="0"/>
        <pt x="57" y="295" on="0"/>
        <pt x="3" y="296" on="1"/>
        <pt x="-3" y="306" on="0"/>
        <pt x="-3" y="317" on="1"/>
        <pt x="-3" y="327" on="0"/>
        <pt x="3" y="338" on="1"/>
        <pt x="60" y="340" on="0"/>
        <pt x="121" y="388" on="0"/>
      </contour>
    </TTGlyph>
    <TTGlyph name="braceright" xMin="28" yMin="-136" xMax="317" yMax="771">
      <contour>
        <pt x="193" y="191" on="1"/>
        <pt x="193" y="-25" on="1"/>
        <pt x="193" y="-65" on="0"/>
        <pt x="173" y="-114" on="0"/>
        <pt x="130" y="-132" on="0"/>
        <pt x="84" y="-136" on="0"/>
        <pt x="33" y="-136" on="1"/>
        <pt x="28" y="-121" on="0"/>
        <pt x="28" y="-111" on="1"/>
        <pt x="28" y="-99" on="0"/>
        <pt x="32" y="-91" on="1"/>
        <pt x="73" y="-91" on="0"/>
        <pt x="102" y="-59" on="0"/>
        <pt x="101" y="-21" on="1"/>
        <pt x="101" y="193" on="1"/>
        <pt x="102" y="297" on="0"/>
        <pt x="202" y="316" on="1"/>
        <pt x="202" y="317" on="1"/>
        <pt x="101" y="336" on="0"/>
        <pt x="101" y="441" on="1"/>
        <pt x="101" y="656" on="1"/>
        <pt x="102" y="694" on="0"/>
        <pt x="73" y="726" on="0"/>
        <pt x="32" y="726" on="1"/>
        <pt x="28" y="734" on="0"/>
        <pt x="28" y="746" on="1"/>
        <pt x="28" y="756" on="0"/>
        <pt x="33" y="771" on="1"/>
        <pt x="84" y="771" on="0"/>
        <pt x="135" y="766" on="0"/>
        <pt x="175" y="746" on="0"/>
        <pt x="193" y="700" on="0"/>
        <pt x="193" y="660" on="1"/>
        <pt x="193" y="444" on="1"/>
        <pt x="193" y="386" on="0"/>
        <pt x="257" y="339" on="0"/>
        <pt x="311" y="338" on="1"/>
        <pt x="317" y="328" on="0"/>
        <pt x="317" y="317" on="1"/>
        <pt x="317" y="307" on="0"/>
        <pt x="311" y="296" on="1"/>
        <pt x="254" y="294" on="0"/>
        <pt x="193" y="246" on="0"/>
      </contour>
    </TTGlyph>
    <TTGlyph name="bracketleft" xMin="74" yMin="-128" xMax="257" yMax="760">
      <contour>
        <pt x="75" y="-85" on="1"/>
        <pt x="75" y="717" on="1"/>
        <pt x="74" y="747" on="0"/>
        <pt x="91" y="760" on="0"/>
        <pt x="131" y="760" on="1"/>
        <pt x="192" y="760" on="0"/>
        <pt x="254" y="741" on="1"/>
        <pt x="257" y="734" on="0"/>
        <pt x="257" y="725" on="1"/>
        <pt x="257" y="719" on="0"/>
        <pt x="253" y="705" on="1"/>
        <pt x="178" y="707" on="1"/>
        <pt x="167" y="707" on="0"/>
        <pt x="167" y="652" on="1"/>
        <pt x="167" y="-20" on="1"/>
        <pt x="167" y="-75" on="0"/>
        <pt x="178" y="-75" on="1"/>
        <pt x="253" y="-73" on="1"/>
        <pt x="257" y="-87" on="0"/>
        <pt x="257" y="-93" on="1"/>
        <pt x="257" y="-102" on="0"/>
        <pt x="254" y="-109" on="1"/>
        <pt x="192" y="-128" on="0"/>
        <pt x="131" y="-128" on="1"/>
        <pt x="91" y="-128" on="0"/>
        <pt x="74" y="-115" on="0"/>
      </contour>
    </TTGlyph>
    <TTGlyph name="bracketright" xMin="25" yMin="-128" xMax="208" yMax="760">
      <contour>
        <pt x="207" y="717" on="1"/>
        <pt x="207" y="-85" on="1"/>
        <pt x="208" y="-115" on="0"/>
        <pt x="191" y="-128" on="0"/>
        <pt x="151" y="-128" on="1"/>
        <pt x="90" y="-128" on="0"/>
        <pt x="28" y="-109" on="1"/>
        <pt x="25" y="-102" on="0"/>
        <pt x="25" y="-93" on="1"/>
        <pt x="25" y="-87" on="0"/>
        <pt x="29" y="-73" on="1"/>
        <pt x="104" y="-75" on="1"/>
        <pt x="115" y="-75" on="0"/>
        <pt x="115" y="-20" on="1"/>
        <pt x="115" y="652" on="1"/>
        <pt x="115" y="707" on="0"/>
        <pt x="104" y="707" on="1"/>
        <pt x="29" y="705" on="1"/>
        <pt x="25" y="719" on="0"/>
        <pt x="25" y="725" on="1"/>
        <pt x="25" y="734" on="0"/>
        <pt x="28" y="741" on="1"/>
        <pt x="90" y="760" on="0"/>
        <pt x="151" y="760" on="1"/>
        <pt x="191" y="760" on="0"/>
        <pt x="208" y="747" on="0"/>
      </contour>
    </TTGlyph>
    <TTGlyph name="brokenbar" xMin="76" yMin="-160" xMax="151" yMax="771">
      <contour>
        <pt x="76" y="372" on="1"/>
        <pt x="76" y="764" on="1"/>
        <pt x="88" y="767" on="0"/>
        <pt x="105" y="771" on="0"/>
        <pt x="113" y="771" on="1"/>
        <pt x="121" y="771" on="0"/>
        <pt x="138" y="767" on="0"/>
        <pt x="151" y="764" on="1"/>
        <pt x="151" y="372" on="1"/>
        <pt x="130" y="364" on="0"/>
        <pt x="114" y="364" on="1"/>
        <pt x="97" y="364" on="0"/>
      </contour>
      <contour>
        <pt x="76" y="-152" on="1"/>
        <pt x="76" y="240" on="1"/>
        <pt x="88" y="243" on="0"/>
        <pt x="105" y="247" on="0"/>
        <pt x="113" y="247" on="1"/>
        <pt x="121" y="247" on="0"/>
        <pt x="138" y="243" on="0"/>
        <pt x="151" y="240" on="1"/>
        <pt x="151" y="-152" on="1"/>
        <pt x="130" y="-160" on="0"/>
        <pt x="114" y="-160" on="1"/>
        <pt x="97" y="-160" on="0"/>
      </contour>
    </TTGlyph>
    <TTGlyph name="bullet" xMin="63" yMin="245" xMax="279" yMax="470">
      <contour>
        <pt x="63" y="404" on="1"/>
        <pt x="63" y="419" on="0"/>
        <pt x="65" y="439" on="0"/>
        <pt x="73" y="453" on="0"/>
        <pt x="88" y="461" on="0"/>
        <pt x="101" y="463" on="1"/>
        <pt x="245" y="468" on="1"/>
        <pt x="266" y="470" on="0"/>
        <pt x="279" y="442" on="0"/>
        <pt x="279" y="408" on="1"/>
        <pt x="279" y="311" on="1"/>
        <pt x="279" y="282" on="0"/>
        <pt x="267" y="257" on="0"/>
        <pt x="241" y="253" on="1"/>
        <pt x="97" y="247" on="1"/>
        <pt x="76" y="245" on="0"/>
        <pt x="63" y="273" on="0"/>
        <pt x="63" y="307" on="1"/>
      </contour>
    </TTGlyph>
    <TTGlyph name="c" xMin="65" yMin="-14" xMax="441" yMax="514">
      <contour>
        <pt x="431" y="486" on="1"/>
        <pt x="431" y="477" on="0"/>
        <pt x="424" y="463" on="1"/>
        <pt x="386" y="468" on="0"/>
        <pt x="349" y="468" on="1"/>
        <pt x="275" y="468" on="0"/>
        <pt x="216" y="446" on="1"/>
        <pt x="193" y="437" on="0"/>
        <pt x="179" y="410" on="0"/>
        <pt x="179" y="378" on="1"/>
        <pt x="179" y="99" on="1"/>
        <pt x="179" y="61" on="0"/>
        <pt x="209" y="37" on="0"/>
        <pt x="253" y="37" on="1"/>
        <pt x="292" y="37" on="0"/>
        <pt x="415" y="64" on="0"/>
        <pt x="436" y="72" on="1"/>
        <pt x="441" y="64" on="0"/>
        <pt x="441" y="47" on="1"/>
        <pt x="441" y="35" on="0"/>
        <pt x="437" y="27" on="1"/>
        <pt x="317" y="-14" on="0"/>
        <pt x="168" y="-13" on="1"/>
        <pt x="114" y="-13" on="0"/>
        <pt x="65" y="21" on="0"/>
        <pt x="65" y="60" on="1"/>
        <pt x="65" y="382" on="1"/>
        <pt x="65" y="427" on="0"/>
        <pt x="97" y="471" on="0"/>
        <pt x="148" y="489" on="1"/>
        <pt x="225" y="512" on="0"/>
        <pt x="310" y="514" on="1"/>
        <pt x="390" y="514" on="0"/>
        <pt x="423" y="510" on="1"/>
        <pt x="431" y="497" on="0"/>
      </contour>
    </TTGlyph>
    <TTGlyph name="caron" xMin="27" yMin="565" xMax="342" yMax="736">
      <contour>
        <pt x="185" y="565" on="1"/>
        <pt x="159" y="565" on="0"/>
        <pt x="151" y="573" on="1"/>
        <pt x="121" y="603" on="0"/>
        <pt x="61" y="667" on="0"/>
        <pt x="30" y="702" on="1"/>
        <pt x="27" y="706" on="0"/>
        <pt x="27" y="709" on="1"/>
        <pt x="27" y="718" on="0"/>
        <pt x="64" y="735" on="0"/>
        <pt x="70" y="734" on="1"/>
        <pt x="74" y="734" on="0"/>
        <pt x="91" y="722" on="1"/>
        <pt x="187" y="647" on="1"/>
        <pt x="281" y="725" on="1"/>
        <pt x="295" y="736" on="0"/>
        <pt x="301" y="736" on="1"/>
        <pt x="314" y="734" on="0"/>
        <pt x="342" y="715" on="0"/>
        <pt x="342" y="708" on="1"/>
        <pt x="342" y="706" on="0"/>
        <pt x="340" y="704" on="1"/>
        <pt x="219" y="573" on="1"/>
        <pt x="206" y="565" on="0"/>
      </contour>
    </TTGlyph>
    <TTGlyph name="caron.case" xMin="13" yMin="745" xMax="328" yMax="916">
      <contour>
        <pt x="171" y="745" on="1"/>
        <pt x="145" y="745" on="0"/>
        <pt x="137" y="753" on="1"/>
        <pt x="107" y="783" on="0"/>
        <pt x="47" y="847" on="0"/>
        <pt x="16" y="882" on="1"/>
        <pt x="13" y="886" on="0"/>
        <pt x="13" y="889" on="1"/>
        <pt x="13" y="898" on="0"/>
        <pt x="50" y="915" on="0"/>
        <pt x="56" y="914" on="1"/>
        <pt x="60" y="914" on="0"/>
        <pt x="77" y="902" on="1"/>
        <pt x="173" y="827" on="1"/>
        <pt x="267" y="905" on="1"/>
        <pt x="281" y="916" on="0"/>
        <pt x="287" y="916" on="1"/>
        <pt x="300" y="914" on="0"/>
        <pt x="328" y="895" on="0"/>
        <pt x="328" y="888" on="1"/>
        <pt x="328" y="886" on="0"/>
        <pt x="326" y="884" on="1"/>
        <pt x="205" y="753" on="1"/>
        <pt x="192" y="745" on="0"/>
      </contour>
    </TTGlyph>
    <TTGlyph name="ccedilla" xMin="65" yMin="-214" xMax="441" yMax="514">
      <contour>
        <pt x="282" y="-36" on="1"/>
        <pt x="323" y="-38" on="0"/>
        <pt x="367" y="-75" on="0"/>
        <pt x="367" y="-102" on="1"/>
        <pt x="367" y="-139" on="0"/>
        <pt x="292" y="-212" on="0"/>
        <pt x="243" y="-214" on="1"/>
        <pt x="216" y="-194" on="0"/>
        <pt x="216" y="-170" on="1"/>
        <pt x="216" y="-161" on="0"/>
        <pt x="229" y="-160" on="1"/>
        <pt x="262" y="-157" on="0"/>
        <pt x="299" y="-126" on="0"/>
        <pt x="299" y="-109" on="1"/>
        <pt x="299" y="-75" on="0"/>
        <pt x="246" y="-74" on="1"/>
        <pt x="230" y="-74" on="0"/>
        <pt x="233" y="-60" on="1"/>
        <pt x="247" y="-10" on="1"/>
        <pt x="208" y="-13" on="0"/>
        <pt x="168" y="-13" on="1"/>
        <pt x="114" y="-13" on="0"/>
        <pt x="65" y="21" on="0"/>
        <pt x="65" y="60" on="1"/>
        <pt x="65" y="382" on="1"/>
        <pt x="65" y="427" on="0"/>
        <pt x="97" y="471" on="0"/>
        <pt x="148" y="489" on="1"/>
        <pt x="225" y="512" on="0"/>
        <pt x="310" y="514" on="1"/>
        <pt x="390" y="514" on="0"/>
        <pt x="423" y="510" on="1"/>
        <pt x="431" y="497" on="0"/>
        <pt x="431" y="486" on="1"/>
        <pt x="431" y="477" on="0"/>
        <pt x="424" y="463" on="1"/>
        <pt x="386" y="468" on="0"/>
        <pt x="349" y="468" on="1"/>
        <pt x="275" y="468" on="0"/>
        <pt x="216" y="446" on="1"/>
        <pt x="193" y="437" on="0"/>
        <pt x="179" y="410" on="0"/>
        <pt x="179" y="378" on="1"/>
        <pt x="179" y="99" on="1"/>
        <pt x="179" y="61" on="0"/>
        <pt x="209" y="37" on="0"/>
        <pt x="253" y="37" on="1"/>
        <pt x="292" y="37" on="0"/>
        <pt x="415" y="64" on="0"/>
        <pt x="436" y="72" on="1"/>
        <pt x="441" y="64" on="0"/>
        <pt x="441" y="47" on="1"/>
        <pt x="441" y="35" on="0"/>
        <pt x="437" y="27" on="1"/>
        <pt x="368" y="3" on="0"/>
        <pt x="291" y="-6" on="1"/>
      </contour>
    </TTGlyph>
    <TTGlyph name="cedilla" xMin="61" yMin="-214" xMax="212" yMax="4">
      <contour>
        <pt x="127" y="-36" on="1"/>
        <pt x="168" y="-38" on="0"/>
        <pt x="212" y="-75" on="0"/>
        <pt x="212" y="-102" on="1"/>
        <pt x="212" y="-139" on="0"/>
        <pt x="137" y="-212" on="0"/>
        <pt x="88" y="-214" on="1"/>
        <pt x="61" y="-194" on="0"/>
        <pt x="61" y="-170" on="1"/>
        <pt x="61" y="-161" on="0"/>
        <pt x="74" y="-160" on="1"/>
        <pt x="107" y="-157" on="0"/>
        <pt x="144" y="-126" on="0"/>
        <pt x="144" y="-109" on="1"/>
        <pt x="144" y="-75" on="0"/>
        <pt x="91" y="-74" on="1"/>
        <pt x="75" y="-74" on="0"/>
        <pt x="78" y="-60" on="1"/>
        <pt x="96" y="4" on="1"/>
        <pt x="139" y="4" on="1"/>
      </contour>
    </TTGlyph>
    <TTGlyph name="cent" xMin="49" yMin="-116" xMax="425" yMax="615">
      <contour>
        <pt x="407" y="510" on="1"/>
        <pt x="410" y="505" on="0"/>
        <pt x="412" y="492" on="0"/>
        <pt x="412" y="486" on="1"/>
        <pt x="412" y="474" on="0"/>
        <pt x="408" y="463" on="1"/>
        <pt x="388" y="466" on="0"/>
        <pt x="300" y="466" on="1"/>
        <pt x="258" y="466" on="0"/>
        <pt x="164" y="436" on="0"/>
        <pt x="163" y="397" on="1"/>
        <pt x="163" y="99" on="1"/>
        <pt x="163" y="61" on="0"/>
        <pt x="193" y="37" on="0"/>
        <pt x="237" y="37" on="1"/>
        <pt x="267" y="37" on="0"/>
        <pt x="365" y="56" on="0"/>
        <pt x="411" y="69" on="0"/>
        <pt x="420" y="72" on="1"/>
        <pt x="425" y="62" on="0"/>
        <pt x="425" y="47" on="1"/>
        <pt x="425" y="34" on="0"/>
        <pt x="421" y="27" on="1"/>
        <pt x="357" y="6" on="0"/>
        <pt x="296" y="-3" on="1"/>
        <pt x="296" y="-110" on="1"/>
        <pt x="279" y="-116" on="0"/>
        <pt x="267" y="-116" on="1"/>
        <pt x="253" y="-116" on="0"/>
        <pt x="240" y="-111" on="1"/>
        <pt x="240" y="-9" on="1"/>
        <pt x="220" y="-11" on="0"/>
        <pt x="177" y="-13" on="0"/>
        <pt x="152" y="-13" on="1"/>
        <pt x="98" y="-13" on="0"/>
        <pt x="49" y="21" on="0"/>
        <pt x="49" y="60" on="1"/>
        <pt x="49" y="397" on="1"/>
        <pt x="50" y="420" on="0"/>
        <pt x="67" y="457" on="0"/>
        <pt x="109" y="485" on="0"/>
        <pt x="182" y="504" on="0"/>
        <pt x="240" y="510" on="1"/>
        <pt x="240" y="609" on="1"/>
        <pt x="256" y="615" on="0"/>
        <pt x="269" y="615" on="1"/>
        <pt x="285" y="615" on="0"/>
        <pt x="296" y="610" on="1"/>
        <pt x="296" y="514" on="1"/>
        <pt x="335" y="514" on="0"/>
        <pt x="390" y="512" on="0"/>
      </contour>
    </TTGlyph>
    <TTGlyph name="circumflex" xMin="13" yMin="568" xMax="329" yMax="739">
      <contour>
        <pt x="170" y="739" on="1"/>
        <pt x="196" y="739" on="0"/>
        <pt x="204" y="731" on="1"/>
        <pt x="234" y="701" on="0"/>
        <pt x="294" y="637" on="0"/>
        <pt x="325" y="602" on="1"/>
        <pt x="329" y="598" on="0"/>
        <pt x="328" y="593" on="1"/>
        <pt x="327" y="588" on="0"/>
        <pt x="320" y="583" on="0"/>
        <pt x="307" y="576" on="0"/>
        <pt x="290" y="570" on="0"/>
        <pt x="286" y="570" on="1"/>
        <pt x="280" y="570" on="0"/>
        <pt x="264" y="582" on="1"/>
        <pt x="168" y="657" on="1"/>
        <pt x="74" y="579" on="1"/>
        <pt x="60" y="568" on="0"/>
        <pt x="54" y="568" on="1"/>
        <pt x="49" y="568" on="0"/>
        <pt x="31" y="577" on="0"/>
        <pt x="19" y="585" on="0"/>
        <pt x="13" y="594" on="0"/>
        <pt x="13" y="597" on="1"/>
        <pt x="13" y="598" on="0"/>
        <pt x="15" y="600" on="1"/>
        <pt x="136" y="731" on="1"/>
        <pt x="148" y="739" on="0"/>
      </contour>
    </TTGlyph>
    <TTGlyph name="circumflex.case" xMin="13" yMin="753" xMax="329" yMax="924">
      <contour>
        <pt x="170" y="924" on="1"/>
        <pt x="196" y="924" on="0"/>
        <pt x="204" y="916" on="1"/>
        <pt x="234" y="886" on="0"/>
        <pt x="294" y="822" on="0"/>
        <pt x="325" y="787" on="1"/>
        <pt x="329" y="783" on="0"/>
        <pt x="328" y="778" on="1"/>
        <pt x="327" y="773" on="0"/>
        <pt x="320" y="768" on="0"/>
        <pt x="307" y="761" on="0"/>
        <pt x="290" y="755" on="0"/>
        <pt x="286" y="755" on="1"/>
        <pt x="280" y="755" on="0"/>
        <pt x="264" y="767" on="1"/>
        <pt x="168" y="842" on="1"/>
        <pt x="74" y="764" on="1"/>
        <pt x="60" y="753" on="0"/>
        <pt x="54" y="753" on="1"/>
        <pt x="49" y="753" on="0"/>
        <pt x="31" y="762" on="0"/>
        <pt x="19" y="770" on="0"/>
        <pt x="13" y="779" on="0"/>
        <pt x="13" y="782" on="1"/>
        <pt x="13" y="783" on="0"/>
        <pt x="15" y="785" on="1"/>
        <pt x="136" y="916" on="1"/>
        <pt x="148" y="924" on="0"/>
      </contour>
    </TTGlyph>
    <TTGlyph name="colon" xMin="58" yMin="-10" xMax="172" yMax="533">
      <contour>
        <pt x="58" y="23" on="1"/>
        <pt x="58" y="74" on="1"/>
        <pt x="58" y="91" on="0"/>
        <pt x="65" y="103" on="0"/>
        <pt x="78" y="105" on="1"/>
        <pt x="154" y="108" on="1"/>
        <pt x="165" y="109" on="0"/>
        <pt x="172" y="95" on="0"/>
        <pt x="172" y="76" on="1"/>
        <pt x="172" y="25" on="1"/>
        <pt x="172" y="8" on="0"/>
        <pt x="165" y="-4" on="0"/>
        <pt x="152" y="-6" on="1"/>
        <pt x="76" y="-9" on="1"/>
        <pt x="65" y="-10" on="0"/>
        <pt x="58" y="4" on="0"/>
      </contour>
      <contour>
        <pt x="58" y="447" on="1"/>
        <pt x="58" y="498" on="1"/>
        <pt x="58" y="515" on="0"/>
        <pt x="65" y="527" on="0"/>
        <pt x="78" y="529" on="1"/>
        <pt x="154" y="532" on="1"/>
        <pt x="165" y="533" on="0"/>
        <pt x="172" y="519" on="0"/>
        <pt x="172" y="500" on="1"/>
        <pt x="172" y="449" on="1"/>
        <pt x="172" y="432" on="0"/>
        <pt x="165" y="420" on="0"/>
        <pt x="152" y="418" on="1"/>
        <pt x="76" y="415" on="1"/>
        <pt x="65" y="414" on="0"/>
        <pt x="58" y="428" on="0"/>
      </contour>
    </TTGlyph>
    <TTGlyph name="comma" xMin="23" yMin="-127" xMax="167" yMax="109">
      <contour>
        <pt x="167" y="76" on="1"/>
        <pt x="167" y="25" on="1"/>
        <pt x="167" y="-96" on="0"/>
        <pt x="44" y="-127" on="1"/>
        <pt x="30" y="-110" on="0"/>
        <pt x="28" y="-107" on="1"/>
        <pt x="23" y="-99" on="0"/>
        <pt x="23" y="-88" on="1"/>
        <pt x="52" y="-76" on="0"/>
        <pt x="102" y="-30" on="0"/>
        <pt x="103" y="-7" on="1"/>
        <pt x="71" y="-9" on="1"/>
        <pt x="60" y="-10" on="0"/>
        <pt x="53" y="4" on="0"/>
        <pt x="53" y="23" on="1"/>
        <pt x="53" y="74" on="1"/>
        <pt x="53" y="91" on="0"/>
        <pt x="60" y="103" on="0"/>
        <pt x="73" y="105" on="1"/>
        <pt x="149" y="108" on="1"/>
        <pt x="160" y="109" on="0"/>
        <pt x="167" y="95" on="0"/>
      </contour>
    </TTGlyph>
    <TTGlyph name="copyright" xMin="70" yMin="-13" xMax="720" yMax="714">
      <contour>
        <pt x="70" y="122" on="1"/>
        <pt x="70" y="576" on="1"/>
        <pt x="70" y="653" on="0"/>
        <pt x="308" y="714" on="0"/>
        <pt x="571" y="714" on="1"/>
        <pt x="654" y="714" on="0"/>
        <pt x="720" y="657" on="0"/>
        <pt x="720" y="579" on="1"/>
        <pt x="720" y="125" on="1"/>
        <pt x="720" y="48" on="0"/>
        <pt x="482" y="-13" on="0"/>
        <pt x="219" y="-13" on="1"/>
        <pt x="136" y="-13" on="0"/>
        <pt x="70" y="44" on="0"/>
      </contour>
      <contour>
        <pt x="635" y="130" on="1"/>
        <pt x="635" y="565" on="1"/>
        <pt x="635" y="620" on="0"/>
        <pt x="586" y="661" on="0"/>
        <pt x="529" y="661" on="1"/>
        <pt x="381" y="661" on="0"/>
        <pt x="214" y="640" on="0"/>
        <pt x="155" y="602" on="0"/>
        <pt x="155" y="571" on="1"/>
        <pt x="155" y="136" on="1"/>
        <pt x="155" y="81" on="0"/>
        <pt x="204" y="40" on="0"/>
        <pt x="261" y="40" on="1"/>
        <pt x="409" y="40" on="0"/>
        <pt x="576" y="61" on="0"/>
        <pt x="635" y="99" on="0"/>
      </contour>
      <contour>
        <pt x="533" y="533" on="1"/>
        <pt x="515" y="537" on="0"/>
        <pt x="462" y="537" on="1"/>
        <pt x="395" y="536" on="0"/>
        <pt x="365" y="524" on="1"/>
        <pt x="344" y="516" on="0"/>
        <pt x="333" y="497" on="0"/>
        <pt x="333" y="480" on="1"/>
        <pt x="333" y="228" on="1"/>
        <pt x="333" y="194" on="0"/>
        <pt x="358" y="170" on="0"/>
        <pt x="393" y="170" on="1"/>
        <pt x="468" y="171" on="0"/>
        <pt x="537" y="189" on="1"/>
        <pt x="540" y="180" on="0"/>
        <pt x="540" y="166" on="0"/>
        <pt x="540" y="165" on="1"/>
        <pt x="539" y="154" on="0"/>
        <pt x="537" y="148" on="1"/>
        <pt x="461" y="125" on="0"/>
        <pt x="341" y="125" on="1"/>
        <pt x="283" y="125" on="0"/>
        <pt x="238" y="160" on="0"/>
        <pt x="238" y="209" on="1"/>
        <pt x="238" y="493" on="1"/>
        <pt x="238" y="549" on="0"/>
        <pt x="307" y="565" on="1"/>
        <pt x="374" y="579" on="0"/>
        <pt x="458" y="579" on="1"/>
        <pt x="486" y="579" on="0"/>
        <pt x="532" y="575" on="1"/>
        <pt x="535" y="568" on="0"/>
        <pt x="535" y="553" on="1"/>
        <pt x="535" y="539" on="0"/>
      </contour>
    </TTGlyph>
    <TTGlyph name="currency" xMin="49" yMin="143" xMax="479" yMax="574">
      <contour>
        <pt x="81" y="358" on="1"/>
        <pt x="81" y="419" on="0"/>
        <pt x="115" y="465" on="1"/>
        <pt x="49" y="531" on="1"/>
        <pt x="59" y="554" on="0"/>
        <pt x="91" y="573" on="1"/>
        <pt x="156" y="507" on="1"/>
        <pt x="208" y="542" on="0"/>
        <pt x="264" y="542" on="1"/>
        <pt x="318" y="542" on="0"/>
        <pt x="370" y="507" on="1"/>
        <pt x="437" y="574" on="1"/>
        <pt x="466" y="566" on="0"/>
        <pt x="479" y="531" on="1"/>
        <pt x="413" y="465" on="1"/>
        <pt x="448" y="418" on="0"/>
        <pt x="448" y="358" on="1"/>
        <pt x="448" y="295" on="0"/>
        <pt x="413" y="251" on="1"/>
        <pt x="479" y="185" on="1"/>
        <pt x="477" y="153" on="0"/>
        <pt x="438" y="143" on="1"/>
        <pt x="371" y="209" on="1"/>
        <pt x="321" y="175" on="0"/>
        <pt x="264" y="175" on="1"/>
        <pt x="203" y="175" on="0"/>
        <pt x="157" y="209" on="1"/>
        <pt x="91" y="143" on="1"/>
        <pt x="49" y="155" on="0"/>
        <pt x="49" y="185" on="1"/>
        <pt x="114" y="251" on="1"/>
        <pt x="81" y="297" on="0"/>
      </contour>
      <contour>
        <pt x="157" y="358" on="1"/>
        <pt x="157" y="310" on="0"/>
        <pt x="220" y="240" on="0"/>
        <pt x="264" y="240" on="1"/>
        <pt x="309" y="240" on="0"/>
        <pt x="372" y="310" on="0"/>
        <pt x="372" y="358" on="1"/>
        <pt x="372" y="408" on="0"/>
        <pt x="310" y="476" on="0"/>
        <pt x="264" y="476" on="1"/>
        <pt x="220" y="476" on="0"/>
        <pt x="157" y="407" on="0"/>
      </contour>
    </TTGlyph>
    <TTGlyph name="d" xMin="66" yMin="-13" xMax="576" yMax="713">
      <contour>
        <pt x="573" y="6" on="1"/>
        <pt x="506" y="-13" on="0"/>
        <pt x="438" y="-13" on="1"/>
        <pt x="396" y="-13" on="0"/>
        <pt x="377" y="1" on="0"/>
        <pt x="378" y="30" on="1"/>
        <pt x="367" y="27" on="0"/>
        <pt x="315" y="12" on="0"/>
        <pt x="291" y="6" on="0"/>
        <pt x="248" y="-4" on="0"/>
        <pt x="219" y="-9" on="0"/>
        <pt x="183" y="-13" on="0"/>
        <pt x="167" y="-13" on="1"/>
        <pt x="112" y="-13" on="0"/>
        <pt x="66" y="22" on="0"/>
        <pt x="66" y="63" on="1"/>
        <pt x="66" y="397" on="1"/>
        <pt x="66" y="476" on="0"/>
        <pt x="154" y="492" on="1"/>
        <pt x="243" y="509" on="0"/>
        <pt x="378" y="514" on="1"/>
        <pt x="378" y="605" on="1"/>
        <pt x="378" y="660" on="0"/>
        <pt x="367" y="660" on="1"/>
        <pt x="298" y="658" on="1"/>
        <pt x="294" y="666" on="0"/>
        <pt x="294" y="677" on="1"/>
        <pt x="294" y="685" on="0"/>
        <pt x="297" y="694" on="1"/>
        <pt x="364" y="713" on="0"/>
        <pt x="432" y="713" on="1"/>
        <pt x="474" y="713" on="0"/>
        <pt x="493" y="699" on="0"/>
        <pt x="492" y="670" on="1"/>
        <pt x="492" y="95" on="1"/>
        <pt x="492" y="42" on="0"/>
        <pt x="502" y="42" on="1"/>
        <pt x="572" y="42" on="1"/>
        <pt x="576" y="34" on="0"/>
        <pt x="576" y="23" on="1"/>
        <pt x="576" y="15" on="0"/>
      </contour>
      <contour>
        <pt x="378" y="75" on="1"/>
        <pt x="378" y="468" on="1"/>
        <pt x="289" y="464" on="0"/>
        <pt x="247" y="455" on="1"/>
        <pt x="207" y="447" on="0"/>
        <pt x="180" y="424" on="0"/>
        <pt x="180" y="396" on="1"/>
        <pt x="180" y="88" on="1"/>
        <pt x="180" y="47" on="0"/>
        <pt x="236" y="47" on="1"/>
        <pt x="277" y="47" on="0"/>
      </contour>
    </TTGlyph>
    <TTGlyph name="degree" xMin="34" yMin="411" xMax="337" yMax="714">
      <contour>
        <pt x="34" y="562" on="1"/>
        <pt x="34" y="594" on="0"/>
        <pt x="59" y="649" on="0"/>
        <pt x="100" y="690" on="0"/>
        <pt x="155" y="714" on="0"/>
        <pt x="185" y="714" on="1"/>
        <pt x="216" y="714" on="0"/>
        <pt x="271" y="690" on="0"/>
        <pt x="313" y="648" on="0"/>
        <pt x="337" y="593" on="0"/>
        <pt x="337" y="562" on="1"/>
        <pt x="337" y="532" on="0"/>
        <pt x="313" y="477" on="0"/>
        <pt x="272" y="436" on="0"/>
        <pt x="217" y="411" on="0"/>
        <pt x="185" y="411" on="1"/>
        <pt x="154" y="411" on="0"/>
        <pt x="99" y="435" on="0"/>
        <pt x="58" y="476" on="0"/>
        <pt x="34" y="531" on="0"/>
      </contour>
      <contour>
        <pt x="99" y="562" on="1"/>
        <pt x="99" y="524" on="0"/>
        <pt x="147" y="470" on="0"/>
        <pt x="185" y="470" on="1"/>
        <pt x="223" y="470" on="0"/>
        <pt x="272" y="524" on="0"/>
        <pt x="272" y="562" on="1"/>
        <pt x="272" y="601" on="0"/>
        <pt x="223" y="655" on="0"/>
        <pt x="185" y="655" on="1"/>
        <pt x="147" y="655" on="0"/>
        <pt x="99" y="601" on="0"/>
      </contour>
    </TTGlyph>
    <TTGlyph name="dieresis" xMin="37" yMin="599" xMax="320" yMax="709">
      <contour>
        <pt x="38" y="630" on="1"/>
        <pt x="38" y="678" on="1"/>
        <pt x="38" y="693" on="0"/>
        <pt x="44" y="704" on="0"/>
        <pt x="56" y="705" on="1"/>
        <pt x="126" y="709" on="1"/>
        <pt x="137" y="709" on="0"/>
        <pt x="143" y="696" on="0"/>
        <pt x="143" y="679" on="1"/>
        <pt x="143" y="631" on="1"/>
        <pt x="143" y="617" on="0"/>
        <pt x="136" y="605" on="0"/>
        <pt x="124" y="604" on="1"/>
        <pt x="52" y="600" on="1"/>
        <pt x="37" y="599" on="0"/>
      </contour>
      <contour>
        <pt x="215" y="630" on="1"/>
        <pt x="215" y="678" on="1"/>
        <pt x="215" y="693" on="0"/>
        <pt x="221" y="704" on="0"/>
        <pt x="234" y="705" on="1"/>
        <pt x="304" y="709" on="1"/>
        <pt x="314" y="709" on="0"/>
        <pt x="320" y="696" on="0"/>
        <pt x="320" y="679" on="1"/>
        <pt x="320" y="631" on="1"/>
        <pt x="320" y="617" on="0"/>
        <pt x="313" y="605" on="0"/>
        <pt x="302" y="604" on="1"/>
        <pt x="229" y="600" on="1"/>
        <pt x="214" y="599" on="0"/>
      </contour>
    </TTGlyph>
    <TTGlyph name="dieresis.case" xMin="37" yMin="774" xMax="320" yMax="884">
      <contour>
        <pt x="38" y="805" on="1"/>
        <pt x="38" y="853" on="1"/>
        <pt x="38" y="868" on="0"/>
        <pt x="44" y="879" on="0"/>
        <pt x="56" y="880" on="1"/>
        <pt x="126" y="884" on="1"/>
        <pt x="137" y="884" on="0"/>
        <pt x="143" y="872" on="0"/>
        <pt x="143" y="854" on="1"/>
        <pt x="143" y="806" on="1"/>
        <pt x="143" y="792" on="0"/>
        <pt x="136" y="780" on="0"/>
        <pt x="124" y="779" on="1"/>
        <pt x="52" y="775" on="1"/>
        <pt x="37" y="774" on="0"/>
      </contour>
      <contour>
        <pt x="215" y="805" on="1"/>
        <pt x="215" y="853" on="1"/>
        <pt x="215" y="868" on="0"/>
        <pt x="221" y="879" on="0"/>
        <pt x="234" y="880" on="1"/>
        <pt x="304" y="884" on="1"/>
        <pt x="314" y="884" on="0"/>
        <pt x="320" y="871" on="0"/>
        <pt x="320" y="854" on="1"/>
        <pt x="320" y="806" on="1"/>
        <pt x="320" y="792" on="0"/>
        <pt x="313" y="780" on="0"/>
        <pt x="302" y="779" on="1"/>
        <pt x="229" y="775" on="1"/>
        <pt x="214" y="774" on="0"/>
      </contour>
    </TTGlyph>
    <TTGlyph name="divide" xMin="47" yMin="93" xMax="474" yMax="581">
      <contour>
        <pt x="468" y="306" on="1"/>
        <pt x="56" y="284" on="1"/>
        <pt x="47" y="309" on="0"/>
        <pt x="47" y="325" on="1"/>
        <pt x="47" y="340" on="0"/>
        <pt x="54" y="363" on="1"/>
        <pt x="466" y="385" on="1"/>
        <pt x="474" y="361" on="0"/>
        <pt x="474" y="342" on="1"/>
        <pt x="474" y="324" on="0"/>
      </contour>
      <contour>
        <pt x="201" y="126" on="1"/>
        <pt x="201" y="177" on="1"/>
        <pt x="201" y="194" on="0"/>
        <pt x="208" y="206" on="0"/>
        <pt x="221" y="208" on="1"/>
        <pt x="297" y="211" on="1"/>
        <pt x="308" y="212" on="0"/>
        <pt x="315" y="198" on="0"/>
        <pt x="315" y="179" on="1"/>
        <pt x="315" y="128" on="1"/>
        <pt x="315" y="111" on="0"/>
        <pt x="308" y="99" on="0"/>
        <pt x="295" y="97" on="1"/>
        <pt x="219" y="94" on="1"/>
        <pt x="208" y="93" on="0"/>
        <pt x="201" y="107" on="0"/>
      </contour>
      <contour>
        <pt x="201" y="495" on="1"/>
        <pt x="201" y="546" on="1"/>
        <pt x="201" y="563" on="0"/>
        <pt x="208" y="575" on="0"/>
        <pt x="221" y="577" on="1"/>
        <pt x="297" y="580" on="1"/>
        <pt x="308" y="581" on="0"/>
        <pt x="315" y="567" on="0"/>
        <pt x="315" y="548" on="1"/>
        <pt x="315" y="497" on="1"/>
        <pt x="315" y="480" on="0"/>
        <pt x="308" y="468" on="0"/>
        <pt x="295" y="466" on="1"/>
        <pt x="219" y="463" on="1"/>
        <pt x="208" y="462" on="0"/>
        <pt x="201" y="476" on="0"/>
      </contour>
    </TTGlyph>
    <TTGlyph name="dollar" xMin="30" yMin="-104" xMax="454" yMax="784">
      <contour>
        <pt x="35" y="56" on="1"/>
        <pt x="110" y="46" on="0"/>
        <pt x="163" y="46" on="1"/>
        <pt x="260" y="46" on="0"/>
        <pt x="328" y="69" on="0"/>
        <pt x="327" y="102" on="1"/>
        <pt x="327" y="130" on="0"/>
        <pt x="282" y="200" on="1"/>
        <pt x="80" y="501" on="1"/>
        <pt x="46" y="552" on="0"/>
        <pt x="47" y="602" on="1"/>
        <pt x="47" y="688" on="0"/>
        <pt x="229" y="701" on="1"/>
        <pt x="229" y="778" on="1"/>
        <pt x="245" y="784" on="0"/>
        <pt x="258" y="784" on="1"/>
        <pt x="274" y="784" on="0"/>
        <pt x="285" y="779" on="1"/>
        <pt x="285" y="703" on="1"/>
        <pt x="296" y="703" on="1"/>
        <pt x="353" y="703" on="0"/>
        <pt x="425" y="695" on="1"/>
        <pt x="428" y="681" on="0"/>
        <pt x="427" y="668" on="1"/>
        <pt x="426" y="653" on="0"/>
        <pt x="422" y="641" on="1"/>
        <pt x="374" y="651" on="0"/>
        <pt x="302" y="652" on="1"/>
        <pt x="167" y="652" on="0"/>
        <pt x="167" y="602" on="1"/>
        <pt x="167" y="584" on="0"/>
        <pt x="197" y="527" on="0"/>
        <pt x="215" y="501" on="1"/>
        <pt x="352" y="301" on="1"/>
        <pt x="355" y="297" on="0"/>
        <pt x="380" y="260" on="0"/>
        <pt x="393" y="241" on="0"/>
        <pt x="417" y="204" on="0"/>
        <pt x="431" y="177" on="0"/>
        <pt x="446" y="145" on="0"/>
        <pt x="454" y="116" on="0"/>
        <pt x="454" y="104" on="1"/>
        <pt x="452" y="3" on="0"/>
        <pt x="253" y="-5" on="1"/>
        <pt x="253" y="-98" on="1"/>
        <pt x="239" y="-104" on="0"/>
        <pt x="224" y="-104" on="1"/>
        <pt x="209" y="-104" on="0"/>
        <pt x="197" y="-99" on="1"/>
        <pt x="197" y="-6" on="1"/>
        <pt x="138" y="-5" on="0"/>
        <pt x="36" y="3" on="1"/>
        <pt x="30" y="16" on="0"/>
        <pt x="30" y="31" on="1"/>
        <pt x="30" y="43" on="0"/>
      </contour>
    </TTGlyph>
    <TTGlyph name="dotlessi" xMin="10" yMin="-13" xMax="292" yMax="514">
      <contour>
        <pt x="289" y="6" on="1"/>
        <pt x="222" y="-13" on="0"/>
        <pt x="154" y="-13" on="1"/>
        <pt x="112" y="-13" on="0"/>
        <pt x="93" y="1" on="0"/>
        <pt x="94" y="30" on="1"/>
        <pt x="94" y="406" on="1"/>
        <pt x="94" y="461" on="0"/>
        <pt x="83" y="461" on="1"/>
        <pt x="14" y="459" on="1"/>
        <pt x="10" y="467" on="0"/>
        <pt x="10" y="478" on="1"/>
        <pt x="10" y="486" on="0"/>
        <pt x="13" y="495" on="1"/>
        <pt x="80" y="514" on="0"/>
        <pt x="148" y="514" on="1"/>
        <pt x="190" y="514" on="0"/>
        <pt x="209" y="500" on="0"/>
        <pt x="208" y="471" on="1"/>
        <pt x="208" y="95" on="1"/>
        <pt x="208" y="40" on="0"/>
        <pt x="219" y="40" on="1"/>
        <pt x="288" y="42" on="1"/>
        <pt x="292" y="34" on="0"/>
        <pt x="292" y="23" on="1"/>
        <pt x="292" y="15" on="0"/>
      </contour>
    </TTGlyph>
    <TTGlyph name="e" xMin="66" yMin="-13" xMax="470" yMax="514">
      <contour>
        <pt x="462" y="67" on="1"/>
        <pt x="467" y="58" on="0"/>
        <pt x="467" y="42" on="1"/>
        <pt x="467" y="30" on="0"/>
        <pt x="463" y="22" on="1"/>
        <pt x="331" y="-13" on="0"/>
        <pt x="169" y="-13" on="1"/>
        <pt x="115" y="-13" on="0"/>
        <pt x="66" y="21" on="0"/>
        <pt x="66" y="60" on="1"/>
        <pt x="66" y="403" on="1"/>
        <pt x="66" y="465" on="0"/>
        <pt x="197" y="514" on="0"/>
        <pt x="340" y="514" on="1"/>
        <pt x="414" y="514" on="0"/>
        <pt x="470" y="469" on="0"/>
        <pt x="470" y="406" on="1"/>
        <pt x="470" y="335" on="1"/>
        <pt x="470" y="292" on="0"/>
        <pt x="427" y="246" on="0"/>
        <pt x="382" y="236" on="1"/>
        <pt x="275" y="219" on="0"/>
        <pt x="180" y="213" on="1"/>
        <pt x="180" y="99" on="1"/>
        <pt x="180" y="61" on="0"/>
        <pt x="210" y="37" on="0"/>
        <pt x="254" y="37" on="1"/>
        <pt x="298" y="37" on="0"/>
        <pt x="437" y="60" on="0"/>
      </contour>
      <contour>
        <pt x="180" y="399" on="1"/>
        <pt x="180" y="259" on="1"/>
        <pt x="252" y="265" on="0"/>
        <pt x="289" y="273" on="1"/>
        <pt x="329" y="282" on="0"/>
        <pt x="356" y="305" on="0"/>
        <pt x="356" y="338" on="1"/>
        <pt x="356" y="399" on="1"/>
        <pt x="356" y="441" on="0"/>
        <pt x="330" y="472" on="0"/>
        <pt x="298" y="472" on="1"/>
        <pt x="226" y="472" on="0"/>
        <pt x="178" y="438" on="0"/>
      </contour>
    </TTGlyph>
    <TTGlyph name="eacute" xMin="66" yMin="-13" xMax="470" yMax="736">
      <component glyphName="e" x="0" y="0" flags="0x204"/>
      <component glyphName="acute" x="186" y="0" flags="0x4"/>
    </TTGlyph>
    <TTGlyph name="ecircumflex" xMin="66" yMin="-13" xMax="470" yMax="739">
      <component glyphName="e" x="0" y="0" flags="0x204"/>
      <component glyphName="circumflex" x="105" y="0" flags="0x4"/>
    </TTGlyph>
    <TTGlyph name="edieresis" xMin="66" yMin="-13" xMax="470" yMax="709">
      <component glyphName="e" x="0" y="0" flags="0x204"/>
      <component glyphName="dieresis" x="99" y="0" flags="0x4"/>
    </TTGlyph>
    <TTGlyph name="egrave" xMin="66" yMin="-13" xMax="470" yMax="736">
      <component glyphName="e" x="0" y="0" flags="0x204"/>
      <component glyphName="grave" x="116" y="0" flags="0x4"/>
    </TTGlyph>
    <TTGlyph name="eight" xMin="66" yMin="-13" xMax="471" yMax="715">
      <contour>
        <pt x="346" y="495" on="1"/>
        <pt x="346" y="577" on="1"/>
        <pt x="346" y="628" on="0"/>
        <pt x="325" y="663" on="0"/>
        <pt x="292" y="663" on="1"/>
        <pt x="232" y="663" on="0"/>
        <pt x="189" y="627" on="0"/>
        <pt x="189" y="577" on="1"/>
        <pt x="189" y="510" on="1"/>
        <pt x="189" y="446" on="0"/>
        <pt x="208" y="406" on="0"/>
        <pt x="247" y="408" on="1"/>
        <pt x="308" y="412" on="0"/>
        <pt x="346" y="447" on="0"/>
      </contour>
      <contour>
        <pt x="359" y="127" on="1"/>
        <pt x="359" y="254" on="1"/>
        <pt x="359" y="309" on="0"/>
        <pt x="330" y="356" on="0"/>
        <pt x="289" y="354" on="1"/>
        <pt x="226" y="351" on="0"/>
        <pt x="178" y="315" on="0"/>
        <pt x="178" y="267" on="1"/>
        <pt x="178" y="115" on="1"/>
        <pt x="178" y="65" on="0"/>
        <pt x="206" y="37" on="0"/>
        <pt x="244" y="39" on="1"/>
        <pt x="315" y="41" on="0"/>
        <pt x="359" y="75" on="0"/>
      </contour>
      <contour>
        <pt x="471" y="257" on="1"/>
        <pt x="471" y="126" on="1"/>
        <pt x="466" y="-13" on="0"/>
        <pt x="183" y="-13" on="1"/>
        <pt x="119" y="-13" on="0"/>
        <pt x="66" y="51" on="0"/>
        <pt x="66" y="122" on="1"/>
        <pt x="66" y="293" on="1"/>
        <pt x="66" y="318" on="0"/>
        <pt x="112" y="369" on="0"/>
        <pt x="158" y="380" on="1"/>
        <pt x="158" y="382" on="1"/>
        <pt x="135" y="386" on="0"/>
        <pt x="105" y="401" on="0"/>
        <pt x="89" y="416" on="0"/>
        <pt x="82" y="449" on="0"/>
        <pt x="81" y="470" on="0"/>
        <pt x="81" y="494" on="1"/>
        <pt x="81" y="583" on="1"/>
        <pt x="81" y="619" on="0"/>
        <pt x="109" y="668" on="0"/>
        <pt x="151" y="696" on="0"/>
        <pt x="225" y="711" on="0"/>
        <pt x="293" y="715" on="0"/>
        <pt x="346" y="715" on="1"/>
        <pt x="410" y="715" on="0"/>
        <pt x="454" y="657" on="0"/>
        <pt x="454" y="585" on="1"/>
        <pt x="454" y="479" on="1"/>
        <pt x="454" y="415" on="0"/>
        <pt x="378" y="397" on="1"/>
        <pt x="378" y="395" on="1"/>
        <pt x="435" y="386" on="0"/>
        <pt x="471" y="318" on="0"/>
      </contour>
    </TTGlyph>
    <TTGlyph name="emdash" xMin="61" yMin="261" xMax="907" yMax="384">
      <contour>
        <pt x="902" y="305" on="1"/>
        <pt x="69" y="261" on="1"/>
        <pt x="61" y="283" on="0"/>
        <pt x="61" y="303" on="1"/>
        <pt x="61" y="320" on="0"/>
        <pt x="67" y="340" on="1"/>
        <pt x="206" y="347" on="0"/>
        <pt x="760" y="377" on="0"/>
        <pt x="900" y="384" on="1"/>
        <pt x="907" y="366" on="0"/>
        <pt x="907" y="345" on="1"/>
        <pt x="907" y="322" on="0"/>
      </contour>
    </TTGlyph>
    <TTGlyph name="endash" xMin="64" yMin="266" xMax="583" yMax="372">
      <contour>
        <pt x="576" y="293" on="1"/>
        <pt x="71" y="266" on="1"/>
        <pt x="64" y="289" on="0"/>
        <pt x="64" y="307" on="1"/>
        <pt x="64" y="322" on="0"/>
        <pt x="69" y="345" on="1"/>
        <pt x="574" y="372" on="1"/>
        <pt x="583" y="349" on="0"/>
        <pt x="583" y="332" on="1"/>
        <pt x="583" y="314" on="0"/>
      </contour>
    </TTGlyph>
    <TTGlyph name="equal" xMin="67" yMin="218" xMax="492" yMax="494">
      <contour>
        <pt x="481" y="414" on="1"/>
        <pt x="73" y="392" on="1"/>
        <pt x="67" y="413" on="0"/>
        <pt x="67" y="435" on="1"/>
        <pt x="67" y="452" on="0"/>
        <pt x="73" y="472" on="1"/>
        <pt x="481" y="494" on="1"/>
        <pt x="488" y="470" on="0"/>
        <pt x="488" y="455" on="1"/>
        <pt x="488" y="437" on="0"/>
      </contour>
      <contour>
        <pt x="485" y="240" on="1"/>
        <pt x="77" y="218" on="1"/>
        <pt x="71" y="239" on="0"/>
        <pt x="71" y="261" on="1"/>
        <pt x="71" y="278" on="0"/>
        <pt x="77" y="298" on="1"/>
        <pt x="485" y="320" on="1"/>
        <pt x="492" y="296" on="0"/>
        <pt x="492" y="281" on="1"/>
        <pt x="492" y="263" on="0"/>
      </contour>
    </TTGlyph>
    <TTGlyph name="eth" xMin="65" yMin="-12" xMax="489" yMax="758">
      <contour>
        <pt x="224" y="602" on="1"/>
        <pt x="277" y="654" on="1"/>
        <pt x="240" y="662" on="0"/>
        <pt x="187" y="662" on="1"/>
        <pt x="145" y="662" on="0"/>
        <pt x="128" y="660" on="1"/>
        <pt x="123" y="670" on="0"/>
        <pt x="123" y="682" on="1"/>
        <pt x="123" y="695" on="0"/>
        <pt x="129" y="710" on="1"/>
        <pt x="166" y="714" on="0"/>
        <pt x="212" y="714" on="1"/>
        <pt x="274" y="714" on="0"/>
        <pt x="329" y="705" on="1"/>
        <pt x="383" y="758" on="1"/>
        <pt x="420" y="758" on="0"/>
        <pt x="435" y="730" on="1"/>
        <pt x="393" y="688" on="1"/>
        <pt x="489" y="654" on="0"/>
        <pt x="489" y="579" on="1"/>
        <pt x="489" y="99" on="1"/>
        <pt x="489" y="38" on="0"/>
        <pt x="350" y="-12" on="0"/>
        <pt x="197" y="-12" on="1"/>
        <pt x="123" y="-12" on="0"/>
        <pt x="65" y="34" on="0"/>
        <pt x="65" y="97" on="1"/>
        <pt x="65" y="397" on="1"/>
        <pt x="65" y="437" on="0"/>
        <pt x="108" y="482" on="0"/>
        <pt x="153" y="492" on="1"/>
        <pt x="269" y="511" on="0"/>
        <pt x="375" y="515" on="1"/>
        <pt x="375" y="574" on="1"/>
        <pt x="375" y="618" on="0"/>
        <pt x="340" y="637" on="1"/>
        <pt x="276" y="574" on="1"/>
        <pt x="239" y="574" on="0"/>
      </contour>
      <contour>
        <pt x="246" y="455" on="1"/>
        <pt x="206" y="446" on="0"/>
        <pt x="179" y="425" on="0"/>
        <pt x="179" y="396" on="1"/>
        <pt x="179" y="108" on="1"/>
        <pt x="179" y="63" on="0"/>
        <pt x="203" y="31" on="0"/>
        <pt x="239" y="31" on="1"/>
        <pt x="324" y="31" on="0"/>
        <pt x="376" y="64" on="0"/>
        <pt x="375" y="103" on="1"/>
        <pt x="375" y="470" on="1"/>
        <pt x="299" y="466" on="0"/>
      </contour>
    </TTGlyph>
    <TTGlyph name="exclam" xMin="21" yMin="-10" xMax="220" yMax="713">
      <contour>
        <pt x="94" y="660" on="1"/>
        <pt x="25" y="658" on="1"/>
        <pt x="21" y="666" on="0"/>
        <pt x="21" y="677" on="1"/>
        <pt x="21" y="685" on="0"/>
        <pt x="24" y="694" on="1"/>
        <pt x="91" y="713" on="0"/>
        <pt x="159" y="713" on="1"/>
        <pt x="201" y="713" on="0"/>
        <pt x="220" y="699" on="0"/>
        <pt x="219" y="670" on="1"/>
        <pt x="219" y="198" on="1"/>
        <pt x="219" y="184" on="0"/>
        <pt x="203" y="178" on="1"/>
        <pt x="167" y="167" on="0"/>
        <pt x="122" y="167" on="1"/>
        <pt x="105" y="167" on="0"/>
        <pt x="105" y="184" on="1"/>
        <pt x="105" y="620" on="1"/>
        <pt x="104" y="660" on="0"/>
      </contour>
      <contour>
        <pt x="104" y="23" on="1"/>
        <pt x="104" y="74" on="1"/>
        <pt x="104" y="91" on="0"/>
        <pt x="111" y="103" on="0"/>
        <pt x="124" y="105" on="1"/>
        <pt x="200" y="108" on="1"/>
        <pt x="211" y="109" on="0"/>
        <pt x="218" y="95" on="0"/>
        <pt x="218" y="76" on="1"/>
        <pt x="218" y="25" on="1"/>
        <pt x="218" y="8" on="0"/>
        <pt x="211" y="-4" on="0"/>
        <pt x="198" y="-6" on="1"/>
        <pt x="122" y="-9" on="1"/>
        <pt x="111" y="-10" on="0"/>
        <pt x="104" y="4" on="0"/>
      </contour>
    </TTGlyph>
    <TTGlyph name="exclamdown" xMin="67" yMin="-179" xMax="266" yMax="543">
      <component glyphName="exclam" x="287" y="534" scale="-0.999938964844" flags="0x4"/>
    </TTGlyph>
    <TTGlyph name="f" xMin="20" yMin="-241" xMax="326" yMax="713">
      <contour>
        <pt x="322" y="668" on="1"/>
        <pt x="258" y="668" on="0"/>
        <pt x="212" y="636" on="0"/>
        <pt x="213" y="598" on="1"/>
        <pt x="213" y="507" on="1"/>
        <pt x="291" y="513" on="1"/>
        <pt x="296" y="498" on="0"/>
        <pt x="296" y="488" on="1"/>
        <pt x="296" y="476" on="0"/>
        <pt x="292" y="468" on="1"/>
        <pt x="213" y="462" on="1"/>
        <pt x="213" y="-130" on="1"/>
        <pt x="213" y="-153" on="0"/>
        <pt x="204" y="-188" on="0"/>
        <pt x="190" y="-210" on="0"/>
        <pt x="165" y="-227" on="0"/>
        <pt x="136" y="-236" on="0"/>
        <pt x="93" y="-240" on="0"/>
        <pt x="61" y="-241" on="0"/>
        <pt x="31" y="-241" on="1"/>
        <pt x="26" y="-226" on="0"/>
        <pt x="26" y="-216" on="1"/>
        <pt x="26" y="-204" on="0"/>
        <pt x="30" y="-196" on="1"/>
        <pt x="71" y="-196" on="0"/>
        <pt x="100" y="-164" on="0"/>
        <pt x="99" y="-126" on="1"/>
        <pt x="99" y="455" on="1"/>
        <pt x="25" y="450" on="1"/>
        <pt x="20" y="465" on="0"/>
        <pt x="20" y="475" on="1"/>
        <pt x="20" y="487" on="0"/>
        <pt x="24" y="495" on="1"/>
        <pt x="99" y="500" on="1"/>
        <pt x="99" y="602" on="1"/>
        <pt x="99" y="636" on="0"/>
        <pt x="143" y="682" on="0"/>
        <pt x="214" y="705" on="0"/>
        <pt x="282" y="713" on="0"/>
        <pt x="321" y="713" on="1"/>
        <pt x="326" y="698" on="0"/>
        <pt x="326" y="688" on="1"/>
        <pt x="326" y="676" on="0"/>
      </contour>
    </TTGlyph>
    <TTGlyph name="five" xMin="56" yMin="-18" xMax="453" yMax="724">
      <contour>
        <pt x="151" y="225" on="1"/>
        <pt x="169" y="225" on="0"/>
        <pt x="169" y="207" on="1"/>
        <pt x="169" y="136" on="1"/>
        <pt x="169" y="77" on="0"/>
        <pt x="195" y="43" on="0"/>
        <pt x="216" y="43" on="1"/>
        <pt x="233" y="42" on="0"/>
        <pt x="306" y="53" on="0"/>
        <pt x="339" y="83" on="0"/>
        <pt x="339" y="130" on="1"/>
        <pt x="339" y="365" on="1"/>
        <pt x="339" y="393" on="0"/>
        <pt x="324" y="415" on="0"/>
        <pt x="302" y="416" on="1"/>
        <pt x="246" y="420" on="0"/>
        <pt x="116" y="379" on="1"/>
        <pt x="99" y="376" on="0"/>
        <pt x="84" y="384" on="1"/>
        <pt x="84" y="652" on="1"/>
        <pt x="84" y="679" on="0"/>
        <pt x="131" y="694" on="1"/>
        <pt x="237" y="724" on="0"/>
        <pt x="440" y="724" on="1"/>
        <pt x="452" y="700" on="0"/>
        <pt x="441" y="669" on="1"/>
        <pt x="296" y="669" on="0"/>
        <pt x="188" y="644" on="1"/>
        <pt x="188" y="455" on="1"/>
        <pt x="264" y="478" on="0"/>
        <pt x="331" y="478" on="1"/>
        <pt x="401" y="478" on="0"/>
        <pt x="453" y="423" on="0"/>
        <pt x="453" y="349" on="1"/>
        <pt x="453" y="125" on="1"/>
        <pt x="453" y="-18" on="0"/>
        <pt x="196" y="-18" on="1"/>
        <pt x="127" y="-18" on="0"/>
        <pt x="56" y="54" on="0"/>
        <pt x="56" y="122" on="1"/>
        <pt x="56" y="192" on="1"/>
        <pt x="56" y="207" on="0"/>
        <pt x="73" y="213" on="1"/>
        <pt x="109" y="225" on="0"/>
      </contour>
    </TTGlyph>
    <TTGlyph name="foundryicon" xMin="51" yMin="138" xMax="1007" yMax="316">
      <contour>
        <pt x="1007" y="282" on="1"/>
        <pt x="1007" y="251" on="1"/>
        <pt x="991" y="251" on="1"/>
        <pt x="992" y="249" on="0"/>
        <pt x="992" y="246" on="1"/>
        <pt x="992" y="231" on="0"/>
        <pt x="969" y="211" on="0"/>
        <pt x="947" y="211" on="1"/>
        <pt x="938" y="211" on="0"/>
        <pt x="935" y="212" on="1"/>
        <pt x="935" y="197" on="1"/>
        <pt x="953" y="197" on="1"/>
        <pt x="992" y="197" on="0"/>
        <pt x="992" y="161" on="1"/>
        <pt x="992" y="153" on="0"/>
        <pt x="986" y="138" on="1"/>
        <pt x="959" y="138" on="1"/>
        <pt x="959" y="167" on="1"/>
        <pt x="913" y="167" on="1"/>
        <pt x="903" y="174" on="0"/>
        <pt x="903" y="189" on="1"/>
        <pt x="903" y="207" on="0"/>
        <pt x="917" y="219" on="1"/>
        <pt x="903" y="227" on="0"/>
        <pt x="903" y="247" on="1"/>
        <pt x="903" y="263" on="0"/>
        <pt x="926" y="284" on="0"/>
        <pt x="946" y="284" on="1"/>
        <pt x="964" y="284" on="0"/>
        <pt x="977" y="274" on="1"/>
        <pt x="985" y="284" on="0"/>
        <pt x="996" y="284" on="1"/>
        <pt x="999" y="284" on="0"/>
      </contour>
      <contour>
        <pt x="268" y="251" on="1"/>
        <pt x="245" y="175" on="1"/>
        <pt x="235" y="138" on="0"/>
        <pt x="202" y="138" on="1"/>
        <pt x="183" y="138" on="0"/>
        <pt x="176" y="145" on="1"/>
        <pt x="176" y="171" on="1"/>
        <pt x="193" y="171" on="1"/>
        <pt x="209" y="171" on="0"/>
        <pt x="214" y="182" on="1"/>
        <pt x="200" y="182" on="1"/>
        <pt x="176" y="251" on="1"/>
        <pt x="166" y="251" on="1"/>
        <pt x="166" y="282" on="1"/>
        <pt x="204" y="282" on="1"/>
        <pt x="218" y="233" on="1"/>
        <pt x="223" y="209" on="1"/>
        <pt x="234" y="251" on="1"/>
        <pt x="225" y="251" on="1"/>
        <pt x="225" y="282" on="1"/>
        <pt x="268" y="282" on="1"/>
      </contour>
      <contour>
        <pt x="158" y="212" on="1"/>
        <pt x="158" y="187" on="1"/>
        <pt x="140" y="179" on="0"/>
        <pt x="117" y="179" on="1"/>
        <pt x="86" y="179" on="0"/>
        <pt x="51" y="214" on="0"/>
        <pt x="51" y="245" on="1"/>
        <pt x="51" y="278" on="0"/>
        <pt x="86" y="316" on="0"/>
        <pt x="119" y="316" on="1"/>
        <pt x="135" y="316" on="0"/>
        <pt x="158" y="309" on="1"/>
        <pt x="158" y="269" on="1"/>
        <pt x="127" y="269" on="1"/>
        <pt x="127" y="284" on="1"/>
        <pt x="124" y="285" on="0"/>
        <pt x="118" y="285" on="1"/>
        <pt x="89" y="285" on="0"/>
        <pt x="89" y="249" on="1"/>
        <pt x="89" y="212" on="0"/>
        <pt x="126" y="212" on="1"/>
      </contour>
      <contour>
        <pt x="748" y="179" on="1"/>
        <pt x="699" y="179" on="0"/>
        <pt x="699" y="231" on="1"/>
        <pt x="699" y="256" on="0"/>
        <pt x="726" y="284" on="0"/>
        <pt x="772" y="284" on="0"/>
        <pt x="799" y="257" on="0"/>
        <pt x="799" y="207" on="0"/>
        <pt x="772" y="179" on="0"/>
      </contour>
      <contour>
        <pt x="484" y="277" on="1"/>
        <pt x="505" y="284" on="0"/>
        <pt x="520" y="284" on="1"/>
        <pt x="566" y="284" on="0"/>
        <pt x="566" y="246" on="1"/>
        <pt x="566" y="212" on="1"/>
        <pt x="577" y="212" on="1"/>
        <pt x="577" y="185" on="1"/>
        <pt x="570" y="180" on="0"/>
        <pt x="557" y="180" on="1"/>
        <pt x="541" y="180" on="0"/>
        <pt x="535" y="187" on="1"/>
        <pt x="526" y="179" on="0"/>
        <pt x="510" y="179" on="1"/>
        <pt x="495" y="179" on="0"/>
        <pt x="476" y="195" on="0"/>
        <pt x="476" y="210" on="1"/>
        <pt x="476" y="240" on="0"/>
        <pt x="515" y="240" on="1"/>
        <pt x="531" y="240" on="1"/>
        <pt x="531" y="241" on="1"/>
        <pt x="531" y="251" on="0"/>
        <pt x="509" y="251" on="1"/>
        <pt x="484" y="251" on="1"/>
      </contour>
      <contour>
        <pt x="432" y="212" on="1"/>
        <pt x="461" y="212" on="1"/>
        <pt x="461" y="186" on="1"/>
        <pt x="446" y="179" on="0"/>
        <pt x="424" y="179" on="1"/>
        <pt x="371" y="179" on="0"/>
        <pt x="371" y="230" on="1"/>
        <pt x="371" y="284" on="0"/>
        <pt x="420" y="284" on="1"/>
        <pt x="440" y="284" on="0"/>
        <pt x="464" y="260" on="0"/>
        <pt x="464" y="242" on="1"/>
        <pt x="464" y="238" on="0"/>
        <pt x="462" y="224" on="1"/>
        <pt x="407" y="224" on="1"/>
        <pt x="411" y="212" on="0"/>
      </contour>
      <contour>
        <pt x="822" y="251" on="1"/>
        <pt x="811" y="251" on="1"/>
        <pt x="811" y="282" on="1"/>
        <pt x="845" y="282" on="1"/>
        <pt x="855" y="266" on="1"/>
        <pt x="858" y="272" on="0"/>
        <pt x="865" y="279" on="1"/>
        <pt x="872" y="284" on="0"/>
        <pt x="880" y="284" on="1"/>
        <pt x="886" y="284" on="0"/>
        <pt x="892" y="282" on="1"/>
        <pt x="892" y="251" on="1"/>
        <pt x="858" y="251" on="1"/>
        <pt x="858" y="212" on="1"/>
        <pt x="875" y="212" on="1"/>
        <pt x="875" y="182" on="1"/>
        <pt x="813" y="182" on="1"/>
        <pt x="813" y="212" on="1"/>
        <pt x="822" y="212" on="1"/>
      </contour>
      <contour>
        <pt x="294" y="251" on="1"/>
        <pt x="282" y="251" on="1"/>
        <pt x="282" y="282" on="1"/>
        <pt x="316" y="282" on="1"/>
        <pt x="326" y="266" on="1"/>
        <pt x="329" y="272" on="0"/>
        <pt x="336" y="279" on="1"/>
        <pt x="343" y="284" on="0"/>
        <pt x="351" y="284" on="1"/>
        <pt x="357" y="284" on="0"/>
        <pt x="363" y="282" on="1"/>
        <pt x="363" y="251" on="1"/>
        <pt x="329" y="251" on="1"/>
        <pt x="329" y="212" on="1"/>
        <pt x="346" y="212" on="1"/>
        <pt x="346" y="182" on="1"/>
        <pt x="284" y="182" on="1"/>
        <pt x="284" y="212" on="1"/>
        <pt x="294" y="212" on="1"/>
      </contour>
      <contour>
        <pt x="589" y="208" on="1"/>
        <pt x="589" y="285" on="1"/>
        <pt x="577" y="285" on="1"/>
        <pt x="577" y="316" on="1"/>
        <pt x="624" y="316" on="1"/>
        <pt x="624" y="212" on="1"/>
        <pt x="638" y="212" on="1"/>
        <pt x="638" y="184" on="1"/>
        <pt x="629" y="180" on="0"/>
        <pt x="616" y="180" on="1"/>
        <pt x="589" y="180" on="0"/>
      </contour>
      <contour>
        <pt x="651" y="199" on="1"/>
        <pt x="651" y="219" on="0"/>
        <pt x="671" y="219" on="1"/>
        <pt x="693" y="219" on="0"/>
        <pt x="693" y="199" on="1"/>
        <pt x="693" y="180" on="0"/>
        <pt x="671" y="180" on="1"/>
        <pt x="651" y="180" on="0"/>
      </contour>
      <contour>
        <pt x="763" y="232" on="1"/>
        <pt x="763" y="256" on="0"/>
        <pt x="735" y="256" on="0"/>
        <pt x="735" y="232" on="1"/>
        <pt x="735" y="206" on="0"/>
        <pt x="763" y="206" on="0"/>
      </contour>
      <contour>
        <pt x="948" y="232" on="1"/>
        <pt x="958" y="232" on="0"/>
        <pt x="958" y="262" on="0"/>
        <pt x="948" y="262" on="1"/>
        <pt x="936" y="262" on="0"/>
        <pt x="936" y="232" on="0"/>
      </contour>
      <contour>
        <pt x="520" y="204" on="1"/>
        <pt x="527" y="204" on="0"/>
        <pt x="531" y="207" on="1"/>
        <pt x="531" y="222" on="1"/>
        <pt x="523" y="222" on="1"/>
        <pt x="510" y="222" on="0"/>
        <pt x="510" y="204" on="0"/>
      </contour>
      <contour>
        <pt x="419" y="258" on="1"/>
        <pt x="409" y="258" on="0"/>
        <pt x="406" y="242" on="1"/>
        <pt x="431" y="242" on="1"/>
        <pt x="431" y="258" on="0"/>
      </contour>
    </TTGlyph>
    <TTGlyph name="four" xMin="10" yMin="-13" xMax="469" yMax="722">
      <contour>
        <pt x="462" y="183" on="1"/>
        <pt x="385" y="177" on="1"/>
        <pt x="385" y="95" on="1"/>
        <pt x="385" y="40" on="0"/>
        <pt x="396" y="40" on="1"/>
        <pt x="465" y="42" on="1"/>
        <pt x="469" y="28" on="0"/>
        <pt x="469" y="22" on="1"/>
        <pt x="469" y="14" on="0"/>
        <pt x="466" y="6" on="1"/>
        <pt x="399" y="-13" on="0"/>
        <pt x="338" y="-13" on="1"/>
        <pt x="292" y="-13" on="0"/>
        <pt x="270" y="1" on="0"/>
        <pt x="271" y="30" on="1"/>
        <pt x="271" y="167" on="1"/>
        <pt x="16" y="148" on="1"/>
        <pt x="10" y="168" on="0"/>
        <pt x="10" y="186" on="1"/>
        <pt x="10" y="196" on="0"/>
        <pt x="15" y="208" on="1"/>
        <pt x="268" y="704" on="1"/>
        <pt x="321" y="722" on="0"/>
        <pt x="385" y="722" on="1"/>
        <pt x="385" y="237" on="1"/>
        <pt x="461" y="243" on="1"/>
        <pt x="467" y="227" on="0"/>
        <pt x="467" y="215" on="1"/>
        <pt x="467" y="195" on="0"/>
      </contour>
      <contour>
        <pt x="274" y="604" on="1"/>
        <pt x="237" y="508" on="1"/>
        <pt x="96" y="214" on="1"/>
        <pt x="271" y="228" on="1"/>
        <pt x="271" y="499" on="1"/>
        <pt x="276" y="604" on="1"/>
      </contour>
    </TTGlyph>
    <TTGlyph name="foursuperior" xMin="12" yMin="289" xMax="314" yMax="727">
      <contour>
        <pt x="310" y="402" on="1"/>
        <pt x="264" y="398" on="1"/>
        <pt x="264" y="354" on="1"/>
        <pt x="264" y="321" on="0"/>
        <pt x="270" y="321" on="1"/>
        <pt x="312" y="322" on="1"/>
        <pt x="314" y="314" on="0"/>
        <pt x="314" y="310" on="1"/>
        <pt x="314" y="307" on="0"/>
        <pt x="312" y="301" on="1"/>
        <pt x="273" y="289" on="0"/>
        <pt x="226" y="289" on="1"/>
        <pt x="197" y="289" on="0"/>
        <pt x="176" y="298" on="0"/>
        <pt x="176" y="315" on="1"/>
        <pt x="176" y="392" on="1"/>
        <pt x="15" y="381" on="1"/>
        <pt x="12" y="399" on="0"/>
        <pt x="12" y="403" on="1"/>
        <pt x="12" y="415" on="0"/>
        <pt x="15" y="421" on="1"/>
        <pt x="175" y="717" on="1"/>
        <pt x="206" y="727" on="0"/>
        <pt x="264" y="727" on="1"/>
        <pt x="264" y="438" on="1"/>
        <pt x="309" y="442" on="1"/>
        <pt x="313" y="430" on="0"/>
        <pt x="313" y="420" on="1"/>
        <pt x="313" y="408" on="0"/>
      </contour>
      <contour>
        <pt x="180" y="645" on="1"/>
        <pt x="179" y="645" on="1"/>
        <pt x="166" y="603" on="0"/>
        <pt x="155" y="578" on="1"/>
        <pt x="76" y="426" on="1"/>
        <pt x="176" y="433" on="1"/>
        <pt x="176" y="567" on="1"/>
        <pt x="176" y="593" on="0"/>
      </contour>
    </TTGlyph>
    <TTGlyph name="fraction" xMin="-10" yMin="-48" xMax="400" yMax="766">
      <contour>
        <pt x="400" y="736" on="1"/>
        <pt x="46" y="-48" on="1"/>
        <pt x="12" y="-45" on="0"/>
        <pt x="-10" y="-19" on="1"/>
        <pt x="344" y="766" on="1"/>
        <pt x="382" y="763" on="0"/>
      </contour>
    </TTGlyph>
    <TTGlyph name="g" xMin="66" yMin="-231" xMax="490" yMax="514">
      <contour>
        <pt x="98" y="-230" on="1"/>
        <pt x="89" y="-214" on="0"/>
        <pt x="89" y="-204" on="1"/>
        <pt x="89" y="-189" on="0"/>
        <pt x="93" y="-178" on="1"/>
        <pt x="176" y="-178" on="0"/>
        <pt x="278" y="-172" on="0"/>
        <pt x="344" y="-159" on="0"/>
        <pt x="370" y="-138" on="0"/>
        <pt x="376" y="-117" on="0"/>
        <pt x="376" y="-97" on="1"/>
        <pt x="376" y="30" on="1"/>
        <pt x="365" y="27" on="0"/>
        <pt x="300" y="9" on="0"/>
        <pt x="273" y="2" on="0"/>
        <pt x="225" y="-9" on="0"/>
        <pt x="186" y="-13" on="0"/>
        <pt x="167" y="-13" on="1"/>
        <pt x="112" y="-13" on="0"/>
        <pt x="66" y="22" on="0"/>
        <pt x="66" y="63" on="1"/>
        <pt x="66" y="403" on="1"/>
        <pt x="66" y="465" on="0"/>
        <pt x="206" y="514" on="0"/>
        <pt x="360" y="514" on="1"/>
        <pt x="434" y="514" on="0"/>
        <pt x="490" y="469" on="0"/>
        <pt x="490" y="406" on="1"/>
        <pt x="490" y="-105" on="1"/>
        <pt x="490" y="-148" on="0"/>
        <pt x="447" y="-195" on="0"/>
        <pt x="402" y="-204" on="1"/>
        <pt x="279" y="-231" on="0"/>
      </contour>
      <contour>
        <pt x="180" y="399" on="1"/>
        <pt x="180" y="88" on="1"/>
        <pt x="180" y="47" on="0"/>
        <pt x="236" y="47" on="1"/>
        <pt x="279" y="47" on="0"/>
        <pt x="376" y="75" on="1"/>
        <pt x="376" y="394" on="1"/>
        <pt x="376" y="439" on="0"/>
        <pt x="351" y="472" on="0"/>
        <pt x="318" y="472" on="1"/>
        <pt x="232" y="472" on="0"/>
        <pt x="179" y="439" on="0"/>
      </contour>
    </TTGlyph>
    <TTGlyph name="germandbls" xMin="-1" yMin="-241" xMax="458" yMax="715">
      <contour>
        <pt x="186" y="598" on="1"/>
        <pt x="186" y="-130" on="1"/>
        <pt x="186" y="-153" on="0"/>
        <pt x="177" y="-188" on="0"/>
        <pt x="163" y="-211" on="0"/>
        <pt x="136" y="-228" on="0"/>
        <pt x="111" y="-236" on="0"/>
        <pt x="66" y="-240" on="0"/>
        <pt x="34" y="-241" on="0"/>
        <pt x="4" y="-241" on="1"/>
        <pt x="-1" y="-226" on="0"/>
        <pt x="-1" y="-216" on="1"/>
        <pt x="-1" y="-204" on="0"/>
        <pt x="3" y="-196" on="1"/>
        <pt x="44" y="-196" on="0"/>
        <pt x="73" y="-164" on="0"/>
        <pt x="72" y="-126" on="1"/>
        <pt x="72" y="602" on="1"/>
        <pt x="72" y="715" on="0"/>
        <pt x="316" y="715" on="1"/>
        <pt x="381" y="715" on="0"/>
        <pt x="436" y="671" on="0"/>
        <pt x="436" y="616" on="1"/>
        <pt x="436" y="535" on="1"/>
        <pt x="436" y="497" on="0"/>
        <pt x="370" y="435" on="0"/>
        <pt x="318" y="423" on="1"/>
        <pt x="318" y="421" on="1"/>
        <pt x="380" y="421" on="0"/>
        <pt x="458" y="367" on="0"/>
        <pt x="458" y="314" on="1"/>
        <pt x="458" y="100" on="1"/>
        <pt x="458" y="41" on="0"/>
        <pt x="384" y="-13" on="0"/>
        <pt x="306" y="-13" on="1"/>
        <pt x="255" y="-13" on="0"/>
        <pt x="210" y="-7" on="1"/>
        <pt x="205" y="3" on="0"/>
        <pt x="205" y="16" on="1"/>
        <pt x="205" y="24" on="0"/>
        <pt x="209" y="38" on="1"/>
        <pt x="233" y="34" on="0"/>
        <pt x="261" y="34" on="1"/>
        <pt x="312" y="34" on="0"/>
        <pt x="345" y="65" on="0"/>
        <pt x="344" y="102" on="1"/>
        <pt x="344" y="338" on="1"/>
        <pt x="344" y="364" on="0"/>
        <pt x="291" y="392" on="0"/>
        <pt x="250" y="392" on="1"/>
        <pt x="234" y="392" on="1"/>
        <pt x="228" y="402" on="0"/>
        <pt x="228" y="416" on="1"/>
        <pt x="228" y="425" on="0"/>
        <pt x="233" y="437" on="1"/>
        <pt x="322" y="445" on="0"/>
        <pt x="322" y="531" on="1"/>
        <pt x="322" y="594" on="1"/>
        <pt x="322" y="637" on="0"/>
        <pt x="301" y="672" on="0"/>
        <pt x="273" y="672" on="1"/>
        <pt x="190" y="672" on="0"/>
      </contour>
    </TTGlyph>
    <TTGlyph name="grave" xMin="22" yMin="562" xMax="222" yMax="736">
      <contour>
        <pt x="94" y="728" on="1"/>
        <pt x="143" y="671" on="0"/>
        <pt x="218" y="601" on="1"/>
        <pt x="222" y="598" on="0"/>
        <pt x="222" y="594" on="1"/>
        <pt x="222" y="589" on="0"/>
        <pt x="213" y="573" on="0"/>
        <pt x="201" y="562" on="0"/>
        <pt x="194" y="562" on="1"/>
        <pt x="189" y="562" on="0"/>
        <pt x="185" y="563" on="1"/>
        <pt x="168" y="570" on="0"/>
        <pt x="114" y="597" on="0"/>
        <pt x="60" y="631" on="0"/>
        <pt x="22" y="656" on="0"/>
        <pt x="22" y="666" on="1"/>
        <pt x="22" y="673" on="0"/>
        <pt x="34" y="699" on="0"/>
        <pt x="52" y="720" on="0"/>
        <pt x="71" y="736" on="0"/>
        <pt x="78" y="736" on="1"/>
        <pt x="86" y="736" on="0"/>
      </contour>
    </TTGlyph>
    <TTGlyph name="grave.case" xMin="22" yMin="751" xMax="222" yMax="925">
      <contour>
        <pt x="94" y="917" on="1"/>
        <pt x="143" y="860" on="0"/>
        <pt x="218" y="790" on="1"/>
        <pt x="222" y="787" on="0"/>
        <pt x="222" y="783" on="1"/>
        <pt x="222" y="778" on="0"/>
        <pt x="213" y="762" on="0"/>
        <pt x="201" y="751" on="0"/>
        <pt x="194" y="751" on="1"/>
        <pt x="189" y="751" on="0"/>
        <pt x="185" y="752" on="1"/>
        <pt x="168" y="759" on="0"/>
        <pt x="114" y="786" on="0"/>
        <pt x="60" y="820" on="0"/>
        <pt x="22" y="845" on="0"/>
        <pt x="22" y="855" on="1"/>
        <pt x="22" y="862" on="0"/>
        <pt x="34" y="888" on="0"/>
        <pt x="52" y="909" on="0"/>
        <pt x="71" y="925" on="0"/>
        <pt x="78" y="925" on="1"/>
        <pt x="86" y="925" on="0"/>
      </contour>
    </TTGlyph>
    <TTGlyph name="greater" xMin="35" yMin="119" xMax="335" yMax="564">
      <contour>
        <pt x="325" y="307" on="1"/>
        <pt x="84" y="119" on="1"/>
        <pt x="43" y="137" on="0"/>
        <pt x="35" y="177" on="1"/>
        <pt x="235" y="333" on="1"/>
        <pt x="41" y="510" on="1"/>
        <pt x="55" y="549" on="0"/>
        <pt x="91" y="564" on="1"/>
        <pt x="326" y="350" on="1"/>
        <pt x="335" y="328" on="0"/>
      </contour>
    </TTGlyph>
    <TTGlyph name="guillemotleft" xMin="39" yMin="100" xMax="445" yMax="569">
      <contour>
        <pt x="131" y="334" on="1"/>
        <pt x="243" y="141" on="1"/>
        <pt x="225" y="100" on="0"/>
        <pt x="184" y="100" on="1"/>
        <pt x="177" y="100" on="0"/>
        <pt x="173" y="101" on="1"/>
        <pt x="39" y="334" on="1"/>
        <pt x="173" y="568" on="1"/>
        <pt x="176" y="568" on="0"/>
        <pt x="181" y="569" on="0"/>
        <pt x="184" y="569" on="1"/>
        <pt x="224" y="569" on="0"/>
        <pt x="243" y="527" on="1"/>
      </contour>
      <contour>
        <pt x="333" y="334" on="1"/>
        <pt x="445" y="141" on="1"/>
        <pt x="427" y="100" on="0"/>
        <pt x="386" y="100" on="1"/>
        <pt x="379" y="100" on="0"/>
        <pt x="375" y="101" on="1"/>
        <pt x="241" y="334" on="1"/>
        <pt x="375" y="568" on="1"/>
        <pt x="378" y="568" on="0"/>
        <pt x="383" y="569" on="0"/>
        <pt x="386" y="569" on="1"/>
        <pt x="426" y="569" on="0"/>
        <pt x="445" y="527" on="1"/>
      </contour>
    </TTGlyph>
    <TTGlyph name="guillemotright" xMin="47" yMin="100" xMax="453" yMax="569">
      <contour>
        <pt x="249" y="141" on="1"/>
        <pt x="361" y="334" on="1"/>
        <pt x="249" y="527" on="1"/>
        <pt x="266" y="569" on="0"/>
        <pt x="308" y="569" on="1"/>
        <pt x="311" y="569" on="0"/>
        <pt x="316" y="568" on="0"/>
        <pt x="319" y="568" on="1"/>
        <pt x="453" y="334" on="1"/>
        <pt x="319" y="101" on="1"/>
        <pt x="315" y="100" on="0"/>
        <pt x="308" y="100" on="1"/>
        <pt x="266" y="100" on="0"/>
      </contour>
      <contour>
        <pt x="47" y="141" on="1"/>
        <pt x="159" y="334" on="1"/>
        <pt x="47" y="527" on="1"/>
        <pt x="64" y="569" on="0"/>
        <pt x="106" y="569" on="1"/>
        <pt x="109" y="569" on="0"/>
        <pt x="114" y="568" on="0"/>
        <pt x="117" y="568" on="1"/>
        <pt x="251" y="334" on="1"/>
        <pt x="117" y="101" on="1"/>
        <pt x="113" y="100" on="0"/>
        <pt x="106" y="100" on="1"/>
        <pt x="64" y="100" on="0"/>
      </contour>
    </TTGlyph>
    <TTGlyph name="guilsinglleft" xMin="39" yMin="100" xMax="243" yMax="569">
      <contour>
        <pt x="131" y="334" on="1"/>
        <pt x="243" y="141" on="1"/>
        <pt x="225" y="100" on="0"/>
        <pt x="184" y="100" on="1"/>
        <pt x="177" y="100" on="0"/>
        <pt x="173" y="101" on="1"/>
        <pt x="39" y="334" on="1"/>
        <pt x="173" y="568" on="1"/>
        <pt x="176" y="568" on="0"/>
        <pt x="181" y="569" on="0"/>
        <pt x="184" y="569" on="1"/>
        <pt x="224" y="569" on="0"/>
        <pt x="243" y="527" on="1"/>
      </contour>
    </TTGlyph>
    <TTGlyph name="guilsinglright" xMin="47" yMin="100" xMax="251" yMax="569">
      <contour>
        <pt x="47" y="141" on="1"/>
        <pt x="159" y="334" on="1"/>
        <pt x="47" y="527" on="1"/>
        <pt x="64" y="569" on="0"/>
        <pt x="106" y="569" on="1"/>
        <pt x="109" y="569" on="0"/>
        <pt x="114" y="568" on="0"/>
        <pt x="117" y="568" on="1"/>
        <pt x="251" y="334" on="1"/>
        <pt x="117" y="101" on="1"/>
        <pt x="113" y="100" on="0"/>
        <pt x="106" y="100" on="1"/>
        <pt x="64" y="100" on="0"/>
      </contour>
    </TTGlyph>
    <TTGlyph name="h" xMin="-12" yMin="-13" xMax="575" yMax="713">
      <contour>
        <pt x="572" y="6" on="1"/>
        <pt x="505" y="-13" on="0"/>
        <pt x="437" y="-13" on="1"/>
        <pt x="395" y="-13" on="0"/>
        <pt x="376" y="1" on="0"/>
        <pt x="377" y="30" on="1"/>
        <pt x="377" y="413" on="1"/>
        <pt x="377" y="454" on="0"/>
        <pt x="321" y="454" on="1"/>
        <pt x="281" y="454" on="0"/>
        <pt x="186" y="425" on="1"/>
        <pt x="186" y="18" on="1"/>
        <pt x="186" y="4" on="0"/>
        <pt x="170" y="-2" on="1"/>
        <pt x="134" y="-13" on="0"/>
        <pt x="89" y="-13" on="1"/>
        <pt x="72" y="-13" on="0"/>
        <pt x="72" y="4" on="1"/>
        <pt x="72" y="605" on="1"/>
        <pt x="72" y="660" on="0"/>
        <pt x="61" y="660" on="1"/>
        <pt x="-8" y="658" on="1"/>
        <pt x="-12" y="666" on="0"/>
        <pt x="-12" y="677" on="1"/>
        <pt x="-12" y="685" on="0"/>
        <pt x="-9" y="694" on="1"/>
        <pt x="58" y="713" on="0"/>
        <pt x="126" y="713" on="1"/>
        <pt x="168" y="713" on="0"/>
        <pt x="187" y="699" on="0"/>
        <pt x="186" y="670" on="1"/>
        <pt x="186" y="471" on="1"/>
        <pt x="196" y="474" on="0"/>
        <pt x="247" y="489" on="0"/>
        <pt x="269" y="495" on="0"/>
        <pt x="312" y="505" on="0"/>
        <pt x="339" y="510" on="0"/>
        <pt x="374" y="514" on="0"/>
        <pt x="390" y="514" on="1"/>
        <pt x="445" y="514" on="0"/>
        <pt x="491" y="479" on="0"/>
        <pt x="491" y="438" on="1"/>
        <pt x="491" y="95" on="1"/>
        <pt x="491" y="40" on="0"/>
        <pt x="502" y="40" on="1"/>
        <pt x="571" y="42" on="1"/>
        <pt x="575" y="34" on="0"/>
        <pt x="575" y="23" on="1"/>
        <pt x="575" y="15" on="0"/>
      </contour>
    </TTGlyph>
    <TTGlyph name="hyphen" xMin="64" yMin="262" xMax="282" yMax="368">
      <contour>
        <pt x="276" y="274" on="1"/>
        <pt x="72" y="262" on="1"/>
        <pt x="64" y="288" on="0"/>
        <pt x="64" y="311" on="1"/>
        <pt x="64" y="332" on="0"/>
        <pt x="70" y="356" on="1"/>
        <pt x="274" y="368" on="1"/>
        <pt x="282" y="344" on="0"/>
        <pt x="282" y="323" on="1"/>
        <pt x="282" y="301" on="0"/>
      </contour>
    </TTGlyph>
    <TTGlyph name="i" xMin="10" yMin="-13" xMax="292" yMax="714">
      <contour>
        <pt x="289" y="6" on="1"/>
        <pt x="222" y="-13" on="0"/>
        <pt x="154" y="-13" on="1"/>
        <pt x="112" y="-13" on="0"/>
        <pt x="93" y="1" on="0"/>
        <pt x="94" y="30" on="1"/>
        <pt x="94" y="406" on="1"/>
        <pt x="94" y="461" on="0"/>
        <pt x="83" y="461" on="1"/>
        <pt x="14" y="459" on="1"/>
        <pt x="10" y="467" on="0"/>
        <pt x="10" y="478" on="1"/>
        <pt x="10" y="486" on="0"/>
        <pt x="13" y="495" on="1"/>
        <pt x="80" y="514" on="0"/>
        <pt x="148" y="514" on="1"/>
        <pt x="190" y="514" on="0"/>
        <pt x="209" y="500" on="0"/>
        <pt x="208" y="471" on="1"/>
        <pt x="208" y="95" on="1"/>
        <pt x="208" y="42" on="0"/>
        <pt x="218" y="42" on="1"/>
        <pt x="288" y="42" on="1"/>
        <pt x="292" y="34" on="0"/>
        <pt x="292" y="23" on="1"/>
        <pt x="292" y="15" on="0"/>
      </contour>
      <contour>
        <pt x="74" y="628" on="1"/>
        <pt x="74" y="679" on="1"/>
        <pt x="74" y="696" on="0"/>
        <pt x="81" y="708" on="0"/>
        <pt x="94" y="710" on="1"/>
        <pt x="172" y="713" on="1"/>
        <pt x="189" y="714" on="0"/>
        <pt x="188" y="681" on="1"/>
        <pt x="188" y="630" on="1"/>
        <pt x="188" y="613" on="0"/>
        <pt x="181" y="601" on="0"/>
        <pt x="168" y="599" on="1"/>
        <pt x="90" y="596" on="1"/>
        <pt x="73" y="595" on="0"/>
      </contour>
    </TTGlyph>
    <TTGlyph name="iacute" xMin="10" yMin="-13" xMax="292" yMax="736">
      <component glyphName="dotlessi" x="0" y="0" flags="0x204"/>
      <component glyphName="acute" x="49" y="0" flags="0x4"/>
    </TTGlyph>
    <TTGlyph name="icircumflex" xMin="-36" yMin="-13" xMax="292" yMax="739">
      <component glyphName="dotlessi" x="0" y="0" flags="0x204"/>
      <component glyphName="circumflex" x="-49" y="0" flags="0x4"/>
    </TTGlyph>
    <TTGlyph name="idieresis" xMin="1" yMin="-13" xMax="292" yMax="709">
      <component glyphName="dotlessi" x="0" y="0" flags="0x204"/>
      <component glyphName="dieresis" x="-36" y="0" flags="0x4"/>
    </TTGlyph>
    <TTGlyph name="igrave" xMin="-8" yMin="-13" xMax="292" yMax="736">
      <component glyphName="dotlessi" x="0" y="0" flags="0x204"/>
      <component glyphName="grave" x="-30" y="0" flags="0x4"/>
    </TTGlyph>
    <TTGlyph name="j" xMin="-14" yMin="-241" xMax="214" yMax="714">
      <contour>
        <pt x="88" y="461" on="1"/>
        <pt x="19" y="459" on="1"/>
        <pt x="15" y="467" on="0"/>
        <pt x="15" y="478" on="1"/>
        <pt x="15" y="486" on="0"/>
        <pt x="18" y="495" on="1"/>
        <pt x="85" y="514" on="0"/>
        <pt x="153" y="514" on="1"/>
        <pt x="195" y="514" on="0"/>
        <pt x="214" y="500" on="0"/>
        <pt x="213" y="471" on="1"/>
        <pt x="213" y="-130" on="1"/>
        <pt x="213" y="-163" on="0"/>
        <pt x="171" y="-209" on="0"/>
        <pt x="99" y="-233" on="0"/>
        <pt x="30" y="-241" on="0"/>
        <pt x="-9" y="-241" on="1"/>
        <pt x="-14" y="-226" on="0"/>
        <pt x="-14" y="-216" on="1"/>
        <pt x="-14" y="-204" on="0"/>
        <pt x="-10" y="-196" on="1"/>
        <pt x="54" y="-196" on="0"/>
        <pt x="100" y="-164" on="0"/>
        <pt x="99" y="-126" on="1"/>
        <pt x="99" y="406" on="1"/>
        <pt x="99" y="461" on="0"/>
      </contour>
      <contour>
        <pt x="74" y="628" on="1"/>
        <pt x="74" y="679" on="1"/>
        <pt x="74" y="696" on="0"/>
        <pt x="81" y="708" on="0"/>
        <pt x="94" y="710" on="1"/>
        <pt x="172" y="713" on="1"/>
        <pt x="189" y="714" on="0"/>
        <pt x="188" y="681" on="1"/>
        <pt x="188" y="630" on="1"/>
        <pt x="188" y="613" on="0"/>
        <pt x="181" y="601" on="0"/>
        <pt x="168" y="599" on="1"/>
        <pt x="90" y="596" on="1"/>
        <pt x="73" y="595" on="0"/>
      </contour>
    </TTGlyph>
    <TTGlyph name="k" xMin="-12" yMin="-13" xMax="533" yMax="713">
      <contour>
        <pt x="61" y="660" on="1"/>
        <pt x="-8" y="658" on="1"/>
        <pt x="-12" y="666" on="0"/>
        <pt x="-12" y="677" on="1"/>
        <pt x="-12" y="685" on="0"/>
        <pt x="-9" y="694" on="1"/>
        <pt x="58" y="713" on="0"/>
        <pt x="126" y="713" on="1"/>
        <pt x="168" y="713" on="0"/>
        <pt x="187" y="699" on="0"/>
        <pt x="186" y="670" on="1"/>
        <pt x="186" y="476" on="1"/>
        <pt x="195" y="479" on="0"/>
        <pt x="294" y="506" on="0"/>
        <pt x="349" y="514" on="0"/>
        <pt x="378" y="514" on="1"/>
        <pt x="433" y="514" on="0"/>
        <pt x="479" y="479" on="0"/>
        <pt x="479" y="438" on="1"/>
        <pt x="479" y="335" on="1"/>
        <pt x="479" y="292" on="0"/>
        <pt x="436" y="246" on="0"/>
        <pt x="391" y="236" on="1"/>
        <pt x="371" y="232" on="1"/>
        <pt x="425" y="95" on="1"/>
        <pt x="438" y="62" on="0"/>
        <pt x="452" y="40" on="0"/>
        <pt x="460" y="40" on="1"/>
        <pt x="529" y="42" on="1"/>
        <pt x="533" y="28" on="0"/>
        <pt x="533" y="22" on="1"/>
        <pt x="533" y="14" on="0"/>
        <pt x="530" y="6" on="1"/>
        <pt x="463" y="-13" on="0"/>
        <pt x="395" y="-13" on="1"/>
        <pt x="377" y="-13" on="0"/>
        <pt x="355" y="-11" on="0"/>
        <pt x="345" y="0" on="0"/>
        <pt x="337" y="19" on="0"/>
        <pt x="333" y="30" on="1"/>
        <pt x="260" y="218" on="1"/>
        <pt x="240" y="215" on="0"/>
        <pt x="186" y="213" on="1"/>
        <pt x="186" y="18" on="1"/>
        <pt x="186" y="4" on="0"/>
        <pt x="170" y="-2" on="1"/>
        <pt x="134" y="-13" on="0"/>
        <pt x="89" y="-13" on="1"/>
        <pt x="72" y="-13" on="0"/>
        <pt x="72" y="4" on="1"/>
        <pt x="72" y="605" on="1"/>
        <pt x="72" y="660" on="0"/>
      </contour>
      <contour>
        <pt x="186" y="430" on="1"/>
        <pt x="186" y="259" on="1"/>
        <pt x="247" y="262" on="0"/>
        <pt x="298" y="273" on="1"/>
        <pt x="339" y="282" on="0"/>
        <pt x="365" y="305" on="0"/>
        <pt x="365" y="339" on="1"/>
        <pt x="365" y="413" on="1"/>
        <pt x="365" y="454" on="0"/>
        <pt x="309" y="454" on="1"/>
        <pt x="266" y="454" on="0"/>
      </contour>
    </TTGlyph>
    <TTGlyph name="l" xMin="-1" yMin="-13" xMax="281" yMax="713">
      <contour>
        <pt x="278" y="6" on="1"/>
        <pt x="211" y="-13" on="0"/>
        <pt x="143" y="-13" on="1"/>
        <pt x="101" y="-13" on="0"/>
        <pt x="82" y="1" on="0"/>
        <pt x="83" y="30" on="1"/>
        <pt x="83" y="605" on="1"/>
        <pt x="83" y="660" on="0"/>
        <pt x="72" y="660" on="1"/>
        <pt x="3" y="658" on="1"/>
        <pt x="-1" y="666" on="0"/>
        <pt x="-1" y="677" on="1"/>
        <pt x="-1" y="685" on="0"/>
        <pt x="2" y="694" on="1"/>
        <pt x="69" y="713" on="0"/>
        <pt x="137" y="713" on="1"/>
        <pt x="179" y="713" on="0"/>
        <pt x="198" y="699" on="0"/>
        <pt x="197" y="670" on="1"/>
        <pt x="197" y="95" on="1"/>
        <pt x="197" y="40" on="0"/>
        <pt x="208" y="40" on="1"/>
        <pt x="277" y="42" on="1"/>
        <pt x="281" y="34" on="0"/>
        <pt x="281" y="23" on="1"/>
        <pt x="281" y="15" on="0"/>
      </contour>
    </TTGlyph>
    <TTGlyph name="less" xMin="34" yMin="119" xMax="334" yMax="564">
      <contour>
        <pt x="285" y="119" on="1"/>
        <pt x="44" y="307" on="1"/>
        <pt x="34" y="328" on="0"/>
        <pt x="43" y="350" on="1"/>
        <pt x="278" y="564" on="1"/>
        <pt x="314" y="549" on="0"/>
        <pt x="328" y="510" on="1"/>
        <pt x="134" y="333" on="1"/>
        <pt x="334" y="177" on="1"/>
        <pt x="326" y="137" on="0"/>
      </contour>
    </TTGlyph>
    <TTGlyph name="logicalnot" xMin="55" yMin="185" xMax="413" yMax="417">
      <contour>
        <pt x="327" y="190" on="1"/>
        <pt x="324" y="334" on="1"/>
        <pt x="65" y="321" on="1"/>
        <pt x="55" y="347" on="0"/>
        <pt x="55" y="363" on="1"/>
        <pt x="55" y="375" on="0"/>
        <pt x="63" y="399" on="1"/>
        <pt x="409" y="417" on="1"/>
        <pt x="413" y="194" on="1"/>
        <pt x="388" y="185" on="0"/>
        <pt x="363" y="185" on="1"/>
        <pt x="349" y="185" on="0"/>
      </contour>
    </TTGlyph>
    <TTGlyph name="m" xMin="10" yMin="-13" xMax="902" yMax="515">
      <contour>
        <pt x="208" y="425" on="1"/>
        <pt x="208" y="18" on="1"/>
        <pt x="208" y="4" on="0"/>
        <pt x="192" y="-2" on="1"/>
        <pt x="156" y="-13" on="0"/>
        <pt x="111" y="-13" on="1"/>
        <pt x="94" y="-13" on="0"/>
        <pt x="94" y="4" on="1"/>
        <pt x="94" y="406" on="1"/>
        <pt x="94" y="461" on="0"/>
        <pt x="83" y="461" on="1"/>
        <pt x="14" y="459" on="1"/>
        <pt x="10" y="467" on="0"/>
        <pt x="10" y="478" on="1"/>
        <pt x="10" y="486" on="0"/>
        <pt x="13" y="495" on="1"/>
        <pt x="80" y="514" on="0"/>
        <pt x="148" y="514" on="1"/>
        <pt x="190" y="514" on="0"/>
        <pt x="209" y="500" on="0"/>
        <pt x="208" y="471" on="1"/>
        <pt x="293" y="496" on="0"/>
        <pt x="358" y="510" on="0"/>
        <pt x="396" y="514" on="0"/>
        <pt x="412" y="514" on="1"/>
        <pt x="493" y="515" on="0"/>
        <pt x="508" y="469" on="1"/>
        <pt x="517" y="472" on="0"/>
        <pt x="570" y="487" on="0"/>
        <pt x="592" y="493" on="0"/>
        <pt x="637" y="505" on="0"/>
        <pt x="665" y="510" on="0"/>
        <pt x="701" y="514" on="0"/>
        <pt x="717" y="514" on="1"/>
        <pt x="772" y="514" on="0"/>
        <pt x="818" y="479" on="0"/>
        <pt x="818" y="438" on="1"/>
        <pt x="818" y="95" on="1"/>
        <pt x="818" y="59" on="0"/>
        <pt x="821" y="40" on="0"/>
        <pt x="829" y="40" on="1"/>
        <pt x="898" y="42" on="1"/>
        <pt x="902" y="30" on="0"/>
        <pt x="902" y="23" on="1"/>
        <pt x="902" y="20" on="0"/>
        <pt x="901" y="15" on="0"/>
        <pt x="899" y="8" on="0"/>
        <pt x="899" y="6" on="1"/>
        <pt x="832" y="-13" on="0"/>
        <pt x="764" y="-13" on="1"/>
        <pt x="722" y="-13" on="0"/>
        <pt x="703" y="1" on="0"/>
        <pt x="704" y="30" on="1"/>
        <pt x="704" y="413" on="1"/>
        <pt x="704" y="454" on="0"/>
        <pt x="648" y="454" on="1"/>
        <pt x="609" y="454" on="0"/>
        <pt x="513" y="425" on="1"/>
        <pt x="513" y="18" on="1"/>
        <pt x="513" y="4" on="0"/>
        <pt x="497" y="-2" on="1"/>
        <pt x="461" y="-13" on="0"/>
        <pt x="416" y="-13" on="1"/>
        <pt x="399" y="-13" on="0"/>
        <pt x="399" y="4" on="1"/>
        <pt x="399" y="413" on="1"/>
        <pt x="399" y="454" on="0"/>
        <pt x="343" y="454" on="1"/>
        <pt x="302" y="454" on="0"/>
      </contour>
    </TTGlyph>
    <TTGlyph name="macron" xMin="0" yMin="733" xMax="399" yMax="822">
      <contour>
        <pt x="395" y="747" on="1"/>
        <pt x="6" y="733" on="1"/>
        <pt x="0" y="756" on="0"/>
        <pt x="0" y="776" on="1"/>
        <pt x="0" y="791" on="0"/>
        <pt x="5" y="808" on="1"/>
        <pt x="48" y="810" on="0"/>
        <pt x="350" y="820" on="0"/>
        <pt x="394" y="822" on="1"/>
        <pt x="399" y="800" on="0"/>
        <pt x="399" y="784" on="1"/>
        <pt x="399" y="764" on="0"/>
      </contour>
    </TTGlyph>
    <TTGlyph name="minus" xMin="68" yMin="287" xMax="495" yMax="388">
      <contour>
        <pt x="489" y="309" on="1"/>
        <pt x="77" y="287" on="1"/>
        <pt x="68" y="312" on="0"/>
        <pt x="68" y="328" on="1"/>
        <pt x="68" y="343" on="0"/>
        <pt x="75" y="366" on="1"/>
        <pt x="487" y="388" on="1"/>
        <pt x="495" y="364" on="0"/>
        <pt x="495" y="345" on="1"/>
        <pt x="495" y="327" on="0"/>
      </contour>
    </TTGlyph>
    <TTGlyph name="mu" xMin="73" yMin="-241" xMax="581" yMax="514">
      <contour>
        <pt x="383" y="80" on="1"/>
        <pt x="383" y="483" on="1"/>
        <pt x="383" y="497" on="0"/>
        <pt x="399" y="503" on="1"/>
        <pt x="435" y="514" on="0"/>
        <pt x="480" y="514" on="1"/>
        <pt x="497" y="514" on="0"/>
        <pt x="497" y="497" on="1"/>
        <pt x="497" y="95" on="1"/>
        <pt x="497" y="40" on="0"/>
        <pt x="508" y="40" on="1"/>
        <pt x="577" y="42" on="1"/>
        <pt x="581" y="34" on="0"/>
        <pt x="581" y="23" on="1"/>
        <pt x="581" y="15" on="0"/>
        <pt x="578" y="6" on="1"/>
        <pt x="511" y="-13" on="0"/>
        <pt x="443" y="-13" on="1"/>
        <pt x="402" y="-13" on="0"/>
        <pt x="383" y="4" on="0"/>
        <pt x="383" y="34" on="1"/>
        <pt x="328" y="2" on="0"/>
        <pt x="260" y="-13" on="0"/>
        <pt x="226" y="-13" on="1"/>
        <pt x="171" y="-13" on="0"/>
        <pt x="132" y="38" on="1"/>
        <pt x="127" y="38" on="1"/>
        <pt x="132" y="-16" on="0"/>
        <pt x="150" y="-65" on="1"/>
        <pt x="204" y="-210" on="1"/>
        <pt x="204" y="-224" on="0"/>
        <pt x="188" y="-230" on="1"/>
        <pt x="152" y="-241" on="0"/>
        <pt x="107" y="-241" on="1"/>
        <pt x="90" y="-241" on="0"/>
        <pt x="90" y="-224" on="1"/>
        <pt x="73" y="-125" on="0"/>
        <pt x="73" y="46" on="1"/>
        <pt x="73" y="483" on="1"/>
        <pt x="73" y="497" on="0"/>
        <pt x="89" y="503" on="1"/>
        <pt x="125" y="514" on="0"/>
        <pt x="170" y="514" on="1"/>
        <pt x="187" y="514" on="0"/>
        <pt x="187" y="497" on="1"/>
        <pt x="187" y="79" on="1"/>
        <pt x="187" y="42" on="0"/>
        <pt x="243" y="42" on="1"/>
        <pt x="297" y="42" on="0"/>
      </contour>
    </TTGlyph>
    <TTGlyph name="multiply" xMin="61" yMin="151" xMax="430" yMax="527">
      <contour>
        <pt x="377" y="156" on="1"/>
        <pt x="246" y="281" on="1"/>
        <pt x="127" y="151" on="1"/>
        <pt x="108" y="162" on="0"/>
        <pt x="96" y="173" on="1"/>
        <pt x="80" y="189" on="0"/>
        <pt x="73" y="202" on="1"/>
        <pt x="194" y="336" on="1"/>
        <pt x="61" y="459" on="1"/>
        <pt x="73" y="482" on="0"/>
        <pt x="89" y="496" on="1"/>
        <pt x="98" y="505" on="0"/>
        <pt x="115" y="517" on="1"/>
        <pt x="245" y="392" on="1"/>
        <pt x="368" y="527" on="1"/>
        <pt x="384" y="519" on="0"/>
        <pt x="400" y="503" on="1"/>
        <pt x="415" y="488" on="0"/>
        <pt x="421" y="476" on="1"/>
        <pt x="295" y="342" on="1"/>
        <pt x="430" y="215" on="1"/>
        <pt x="421" y="191" on="0"/>
        <pt x="407" y="177" on="1"/>
        <pt x="392" y="162" on="0"/>
      </contour>
    </TTGlyph>
    <TTGlyph name="n" xMin="10" yMin="-13" xMax="604" yMax="514">
      <contour>
        <pt x="208" y="426" on="1"/>
        <pt x="208" y="18" on="1"/>
        <pt x="208" y="4" on="0"/>
        <pt x="192" y="-2" on="1"/>
        <pt x="156" y="-13" on="0"/>
        <pt x="111" y="-13" on="1"/>
        <pt x="94" y="-13" on="0"/>
        <pt x="94" y="4" on="1"/>
        <pt x="94" y="406" on="1"/>
        <pt x="94" y="461" on="0"/>
        <pt x="83" y="461" on="1"/>
        <pt x="14" y="459" on="1"/>
        <pt x="10" y="467" on="0"/>
        <pt x="10" y="478" on="1"/>
        <pt x="10" y="486" on="0"/>
        <pt x="13" y="495" on="1"/>
        <pt x="80" y="514" on="0"/>
        <pt x="148" y="514" on="1"/>
        <pt x="190" y="514" on="0"/>
        <pt x="209" y="500" on="0"/>
        <pt x="208" y="471" on="1"/>
        <pt x="219" y="474" on="0"/>
        <pt x="271" y="489" on="0"/>
        <pt x="295" y="495" on="0"/>
        <pt x="338" y="505" on="0"/>
        <pt x="367" y="510" on="0"/>
        <pt x="403" y="514" on="0"/>
        <pt x="419" y="514" on="1"/>
        <pt x="474" y="514" on="0"/>
        <pt x="520" y="479" on="0"/>
        <pt x="520" y="438" on="1"/>
        <pt x="520" y="95" on="1"/>
        <pt x="520" y="40" on="0"/>
        <pt x="531" y="40" on="1"/>
        <pt x="600" y="42" on="1"/>
        <pt x="604" y="34" on="0"/>
        <pt x="604" y="23" on="1"/>
        <pt x="604" y="15" on="0"/>
        <pt x="601" y="6" on="1"/>
        <pt x="534" y="-13" on="0"/>
        <pt x="466" y="-13" on="1"/>
        <pt x="424" y="-13" on="0"/>
        <pt x="405" y="1" on="0"/>
        <pt x="406" y="30" on="1"/>
        <pt x="406" y="413" on="1"/>
        <pt x="406" y="454" on="0"/>
        <pt x="350" y="454" on="1"/>
        <pt x="307" y="454" on="0"/>
      </contour>
    </TTGlyph>
    <TTGlyph name="nine" xMin="55" yMin="-13" xMax="453" yMax="714">
      <contour>
        <pt x="55" y="359" on="1"/>
        <pt x="55" y="576" on="1"/>
        <pt x="55" y="653" on="0"/>
        <pt x="177" y="714" on="0"/>
        <pt x="313" y="714" on="1"/>
        <pt x="393" y="714" on="0"/>
        <pt x="453" y="655" on="0"/>
        <pt x="453" y="579" on="1"/>
        <pt x="453" y="122" on="1"/>
        <pt x="453" y="72" on="0"/>
        <pt x="374" y="11" on="0"/>
        <pt x="257" y="-13" on="0"/>
        <pt x="182" y="-13" on="1"/>
        <pt x="136" y="-13" on="0"/>
        <pt x="99" y="-9" on="1"/>
        <pt x="93" y="6" on="0"/>
        <pt x="93" y="19" on="1"/>
        <pt x="93" y="29" on="0"/>
        <pt x="98" y="41" on="1"/>
        <pt x="115" y="39" on="0"/>
        <pt x="157" y="39" on="1"/>
        <pt x="222" y="39" on="0"/>
        <pt x="289" y="56" on="1"/>
        <pt x="341" y="69" on="0"/>
        <pt x="339" y="127" on="1"/>
        <pt x="339" y="249" on="1"/>
        <pt x="241" y="220" on="0"/>
        <pt x="166" y="220" on="1"/>
        <pt x="104" y="220" on="0"/>
        <pt x="55" y="287" on="0"/>
      </contour>
      <contour>
        <pt x="169" y="584" on="1"/>
        <pt x="169" y="353" on="1"/>
        <pt x="169" y="306" on="0"/>
        <pt x="194" y="277" on="0"/>
        <pt x="228" y="277" on="1"/>
        <pt x="284" y="277" on="0"/>
        <pt x="339" y="297" on="1"/>
        <pt x="339" y="565" on="1"/>
        <pt x="339" y="626" on="0"/>
        <pt x="310" y="666" on="0"/>
        <pt x="261" y="662" on="1"/>
        <pt x="205" y="658" on="0"/>
        <pt x="169" y="630" on="0"/>
      </contour>
    </TTGlyph>
    <TTGlyph name="ntilde" xMin="10" yMin="-13" xMax="604" yMax="707">
      <component glyphName="n" x="0" y="0" flags="0x204"/>
      <component glyphName="tilde" x="92" y="0" flags="0x4"/>
    </TTGlyph>
    <TTGlyph name="numbersign" xMin="33" yMin="-22" xMax="575" yMax="708">
      <contour>
        <pt x="361" y="5" on="1"/>
        <pt x="371" y="218" on="1"/>
        <pt x="224" y="206" on="1"/>
        <pt x="214" y="-10" on="1"/>
        <pt x="187" y="-22" on="0"/>
        <pt x="167" y="-22" on="1"/>
        <pt x="150" y="-22" on="0"/>
        <pt x="136" y="-15" on="1"/>
        <pt x="146" y="199" on="1"/>
        <pt x="41" y="190" on="1"/>
        <pt x="33" y="207" on="0"/>
        <pt x="33" y="229" on="1"/>
        <pt x="33" y="242" on="0"/>
        <pt x="36" y="254" on="1"/>
        <pt x="149" y="264" on="1"/>
        <pt x="156" y="410" on="1"/>
        <pt x="52" y="401" on="1"/>
        <pt x="44" y="418" on="0"/>
        <pt x="44" y="440" on="1"/>
        <pt x="44" y="453" on="0"/>
        <pt x="47" y="465" on="1"/>
        <pt x="159" y="474" on="1"/>
        <pt x="169" y="678" on="1"/>
        <pt x="190" y="688" on="0"/>
        <pt x="213" y="688" on="1"/>
        <pt x="229" y="688" on="0"/>
        <pt x="247" y="683" on="1"/>
        <pt x="237" y="481" on="1"/>
        <pt x="384" y="494" on="1"/>
        <pt x="394" y="698" on="1"/>
        <pt x="415" y="708" on="0"/>
        <pt x="438" y="708" on="1"/>
        <pt x="454" y="708" on="0"/>
        <pt x="472" y="703" on="1"/>
        <pt x="462" y="501" on="1"/>
        <pt x="566" y="510" on="1"/>
        <pt x="575" y="492" on="0"/>
        <pt x="575" y="469" on="1"/>
        <pt x="575" y="454" on="0"/>
        <pt x="573" y="446" on="1"/>
        <pt x="459" y="436" on="1"/>
        <pt x="452" y="290" on="1"/>
        <pt x="555" y="299" on="1"/>
        <pt x="564" y="281" on="0"/>
        <pt x="564" y="258" on="1"/>
        <pt x="564" y="243" on="0"/>
        <pt x="562" y="235" on="1"/>
        <pt x="449" y="225" on="1"/>
        <pt x="439" y="10" on="1"/>
        <pt x="412" y="-2" on="0"/>
        <pt x="392" y="-2" on="1"/>
        <pt x="375" y="-2" on="0"/>
      </contour>
      <contour>
        <pt x="234" y="417" on="1"/>
        <pt x="227" y="271" on="1"/>
        <pt x="374" y="283" on="1"/>
        <pt x="381" y="429" on="1"/>
      </contour>
    </TTGlyph>
    <TTGlyph name="o" xMin="65" yMin="-12" xMax="489" yMax="514">
      <contour>
        <pt x="489" y="406" on="1"/>
        <pt x="489" y="99" on="1"/>
        <pt x="489" y="38" on="0"/>
        <pt x="350" y="-12" on="0"/>
        <pt x="197" y="-12" on="1"/>
        <pt x="123" y="-12" on="0"/>
        <pt x="65" y="34" on="0"/>
        <pt x="65" y="97" on="1"/>
        <pt x="65" y="403" on="1"/>
        <pt x="65" y="465" on="0"/>
        <pt x="205" y="514" on="0"/>
        <pt x="359" y="514" on="1"/>
        <pt x="433" y="514" on="0"/>
        <pt x="489" y="469" on="0"/>
      </contour>
      <contour>
        <pt x="375" y="103" on="1"/>
        <pt x="375" y="394" on="1"/>
        <pt x="375" y="439" on="0"/>
        <pt x="350" y="472" on="0"/>
        <pt x="317" y="472" on="1"/>
        <pt x="231" y="472" on="0"/>
        <pt x="178" y="439" on="0"/>
        <pt x="179" y="399" on="1"/>
        <pt x="179" y="108" on="1"/>
        <pt x="179" y="63" on="0"/>
        <pt x="203" y="31" on="0"/>
        <pt x="239" y="31" on="1"/>
        <pt x="326" y="32" on="0"/>
        <pt x="376" y="64" on="0"/>
      </contour>
    </TTGlyph>
    <TTGlyph name="oacute" xMin="65" yMin="-12" xMax="489" yMax="736">
      <component glyphName="o" x="0" y="0" flags="0x204"/>
      <component glyphName="acute" x="205" y="0" flags="0x4"/>
    </TTGlyph>
    <TTGlyph name="ocircumflex" xMin="65" yMin="-12" xMax="489" yMax="739">
      <component glyphName="o" x="0" y="0" flags="0x204"/>
      <component glyphName="circumflex" x="106" y="0" flags="0x4"/>
    </TTGlyph>
    <TTGlyph name="odieresis" xMin="65" yMin="-12" xMax="489" yMax="709">
      <component glyphName="o" x="0" y="0" flags="0x204"/>
      <component glyphName="dieresis" x="98" y="0" flags="0x4"/>
    </TTGlyph>
    <TTGlyph name="oe" xMin="65" yMin="-13" xMax="779" yMax="514">
      <contour>
        <pt x="771" y="67" on="1"/>
        <pt x="776" y="58" on="0"/>
        <pt x="776" y="42" on="1"/>
        <pt x="776" y="30" on="0"/>
        <pt x="772" y="22" on="1"/>
        <pt x="640" y="-13" on="0"/>
        <pt x="478" y="-13" on="1"/>
        <pt x="424" y="-13" on="0"/>
        <pt x="398" y="5" on="1"/>
        <pt x="330" y="-12" on="0"/>
        <pt x="197" y="-12" on="1"/>
        <pt x="123" y="-12" on="0"/>
        <pt x="65" y="34" on="0"/>
        <pt x="65" y="97" on="1"/>
        <pt x="65" y="403" on="1"/>
        <pt x="65" y="465" on="0"/>
        <pt x="205" y="514" on="0"/>
        <pt x="359" y="514" on="1"/>
        <pt x="429" y="514" on="0"/>
        <pt x="457" y="494" on="1"/>
        <pt x="521" y="514" on="0"/>
        <pt x="649" y="514" on="1"/>
        <pt x="723" y="514" on="0"/>
        <pt x="779" y="469" on="0"/>
        <pt x="779" y="406" on="1"/>
        <pt x="779" y="335" on="1"/>
        <pt x="779" y="292" on="0"/>
        <pt x="736" y="246" on="0"/>
        <pt x="691" y="236" on="1"/>
        <pt x="584" y="219" on="0"/>
        <pt x="489" y="213" on="1"/>
        <pt x="489" y="99" on="1"/>
        <pt x="489" y="61" on="0"/>
        <pt x="521" y="36" on="0"/>
        <pt x="570" y="37" on="1"/>
        <pt x="612" y="38" on="0"/>
        <pt x="746" y="60" on="0"/>
      </contour>
      <contour>
        <pt x="375" y="103" on="1"/>
        <pt x="375" y="394" on="1"/>
        <pt x="375" y="439" on="0"/>
        <pt x="350" y="472" on="0"/>
        <pt x="317" y="472" on="1"/>
        <pt x="231" y="472" on="0"/>
        <pt x="179" y="439" on="0"/>
        <pt x="179" y="399" on="1"/>
        <pt x="179" y="108" on="1"/>
        <pt x="179" y="63" on="0"/>
        <pt x="203" y="31" on="0"/>
        <pt x="239" y="31" on="1"/>
        <pt x="324" y="31" on="0"/>
        <pt x="375" y="64" on="0"/>
      </contour>
      <contour>
        <pt x="489" y="399" on="1"/>
        <pt x="489" y="259" on="1"/>
        <pt x="561" y="265" on="0"/>
        <pt x="598" y="273" on="1"/>
        <pt x="638" y="282" on="0"/>
        <pt x="665" y="305" on="0"/>
        <pt x="665" y="338" on="1"/>
        <pt x="665" y="399" on="1"/>
        <pt x="665" y="441" on="0"/>
        <pt x="639" y="472" on="0"/>
        <pt x="607" y="472" on="1"/>
        <pt x="533" y="472" on="0"/>
        <pt x="489" y="439" on="0"/>
      </contour>
    </TTGlyph>
    <TTGlyph name="ograve" xMin="65" yMin="-12" xMax="489" yMax="736">
      <component glyphName="o" x="0" y="0" flags="0x204"/>
      <component glyphName="grave" x="115" y="0" flags="0x4"/>
    </TTGlyph>
    <TTGlyph name="one" xMin="8" yMin="-13" xMax="320" yMax="713">
      <contour>
        <pt x="317" y="6" on="1"/>
        <pt x="250" y="-13" on="0"/>
        <pt x="182" y="-13" on="1"/>
        <pt x="140" y="-13" on="0"/>
        <pt x="121" y="1" on="0"/>
        <pt x="122" y="30" on="1"/>
        <pt x="122" y="605" on="1"/>
        <pt x="122" y="660" on="0"/>
        <pt x="111" y="660" on="1"/>
        <pt x="12" y="658" on="1"/>
        <pt x="8" y="666" on="0"/>
        <pt x="8" y="677" on="1"/>
        <pt x="8" y="685" on="0"/>
        <pt x="11" y="694" on="1"/>
        <pt x="94" y="713" on="0"/>
        <pt x="176" y="713" on="1"/>
        <pt x="218" y="713" on="0"/>
        <pt x="237" y="699" on="0"/>
        <pt x="236" y="670" on="1"/>
        <pt x="236" y="95" on="1"/>
        <pt x="236" y="40" on="0"/>
        <pt x="247" y="40" on="1"/>
        <pt x="316" y="42" on="1"/>
        <pt x="320" y="34" on="0"/>
        <pt x="320" y="23" on="1"/>
        <pt x="320" y="15" on="0"/>
      </contour>
    </TTGlyph>
    <TTGlyph name="onehalf" xMin="28" yMin="-48" xMax="766" yMax="766">
      <component glyphName="twosuperior" x="427" y="-288" flags="0x4"/>
      <component glyphName="fraction" x="159" y="0" flags="0x4"/>
      <component glyphName="onesuperior" x="5" y="0" flags="0x4"/>
    </TTGlyph>
    <TTGlyph name="onequarter" xMin="28" yMin="-48" xMax="712" yMax="766">
      <component glyphName="onesuperior" x="5" y="0" flags="0x4"/>
      <component glyphName="fraction" x="159" y="0" flags="0x4"/>
      <component glyphName="foursuperior" x="398" y="-288" flags="0x4"/>
    </TTGlyph>
    <TTGlyph name="onesuperior" xMin="23" yMin="289" xMax="219" yMax="721">
      <contour>
        <pt x="217" y="301" on="1"/>
        <pt x="178" y="290" on="0"/>
        <pt x="117" y="289" on="1"/>
        <pt x="92" y="289" on="0"/>
        <pt x="81" y="297" on="0"/>
        <pt x="81" y="315" on="1"/>
        <pt x="81" y="647" on="1"/>
        <pt x="81" y="680" on="0"/>
        <pt x="74" y="680" on="1"/>
        <pt x="25" y="679" on="1"/>
        <pt x="23" y="685" on="0"/>
        <pt x="23" y="695" on="1"/>
        <pt x="23" y="702" on="0"/>
        <pt x="25" y="710" on="1"/>
        <pt x="69" y="721" on="0"/>
        <pt x="129" y="721" on="1"/>
        <pt x="155" y="721" on="0"/>
        <pt x="169" y="712" on="0"/>
        <pt x="169" y="696" on="1"/>
        <pt x="169" y="364" on="1"/>
        <pt x="169" y="331" on="0"/>
        <pt x="176" y="331" on="1"/>
        <pt x="217" y="332" on="1"/>
        <pt x="219" y="324" on="0"/>
        <pt x="219" y="316" on="1"/>
        <pt x="219" y="307" on="0"/>
      </contour>
    </TTGlyph>
    <TTGlyph name="ordfeminine" xMin="50" yMin="380" xMax="378" yMax="719">
      <contour>
        <pt x="60" y="654" on="1"/>
        <pt x="56" y="666" on="0"/>
        <pt x="56" y="676" on="1"/>
        <pt x="56" y="687" on="0"/>
        <pt x="59" y="693" on="1"/>
        <pt x="151" y="719" on="0"/>
        <pt x="258" y="719" on="1"/>
        <pt x="324" y="719" on="0"/>
        <pt x="324" y="672" on="1"/>
        <pt x="324" y="459" on="1"/>
        <pt x="324" y="424" on="0"/>
        <pt x="331" y="424" on="1"/>
        <pt x="375" y="425" on="1"/>
        <pt x="378" y="419" on="0"/>
        <pt x="378" y="408" on="1"/>
        <pt x="378" y="398" on="0"/>
        <pt x="376" y="392" on="1"/>
        <pt x="333" y="380" on="0"/>
        <pt x="289" y="380" on="1"/>
        <pt x="264" y="380" on="0"/>
        <pt x="251" y="387" on="0"/>
        <pt x="251" y="401" on="1"/>
        <pt x="176" y="380" on="0"/>
        <pt x="115" y="380" on="1"/>
        <pt x="79" y="380" on="0"/>
        <pt x="50" y="402" on="0"/>
        <pt x="50" y="428" on="1"/>
        <pt x="50" y="519" on="1"/>
        <pt x="50" y="572" on="0"/>
        <pt x="106" y="584" on="1"/>
        <pt x="167" y="595" on="0"/>
        <pt x="246" y="598" on="1"/>
        <pt x="246" y="637" on="1"/>
        <pt x="246" y="661" on="0"/>
        <pt x="227" y="676" on="0"/>
        <pt x="198" y="676" on="1"/>
        <pt x="168" y="676" on="0"/>
        <pt x="75" y="659" on="0"/>
      </contour>
      <contour>
        <pt x="246" y="440" on="1"/>
        <pt x="246" y="558" on="1"/>
        <pt x="192" y="556" on="0"/>
        <pt x="171" y="550" on="1"/>
        <pt x="146" y="544" on="0"/>
        <pt x="128" y="529" on="0"/>
        <pt x="128" y="507" on="1"/>
        <pt x="128" y="455" on="1"/>
        <pt x="128" y="425" on="0"/>
        <pt x="169" y="425" on="1"/>
        <pt x="195" y="425" on="0"/>
      </contour>
    </TTGlyph>
    <TTGlyph name="ordmasculine" xMin="54" yMin="380" xMax="327" yMax="719">
      <contour>
        <pt x="327" y="649" on="1"/>
        <pt x="327" y="452" on="1"/>
        <pt x="327" y="412" on="0"/>
        <pt x="238" y="380" on="0"/>
        <pt x="140" y="380" on="1"/>
        <pt x="92" y="380" on="0"/>
        <pt x="54" y="410" on="0"/>
        <pt x="54" y="451" on="1"/>
        <pt x="54" y="647" on="1"/>
        <pt x="54" y="687" on="0"/>
        <pt x="145" y="719" on="0"/>
        <pt x="244" y="719" on="1"/>
        <pt x="291" y="719" on="0"/>
        <pt x="327" y="690" on="0"/>
      </contour>
      <contour>
        <pt x="133" y="630" on="1"/>
        <pt x="133" y="473" on="1"/>
        <pt x="133" y="444" on="0"/>
        <pt x="149" y="423" on="0"/>
        <pt x="171" y="423" on="1"/>
        <pt x="220" y="423" on="0"/>
        <pt x="249" y="444" on="0"/>
        <pt x="249" y="469" on="1"/>
        <pt x="249" y="627" on="1"/>
        <pt x="249" y="656" on="0"/>
        <pt x="232" y="677" on="0"/>
        <pt x="211" y="677" on="1"/>
        <pt x="162" y="677" on="0"/>
        <pt x="133" y="656" on="0"/>
      </contour>
    </TTGlyph>
</ttFont>
